Moderustic-Medium.ufo
<glyph name="exclam" format="2">
  <advance width="255"/>
  <unicode hex="0021"/>
  <outline>
    <contour>
      <point x="78" y="249" type="line"/>
      <point x="177" y="249" type="line"/>
      <point x="193" y="750" type="line"/>
      <point x="62" y="750" type="line"/>
    </contour>
    <contour>
      <point x="127" y="-20" type="curve" smooth="yes"/>
      <point x="162.161" y="-20"/>
      <point x="189.92" y="8.684"/>
      <point x="189.92" y="43.845" type="curve" smooth="yes"/>
      <point x="189.92" y="78.081"/>
      <point x="162.161" y="104.914"/>
      <point x="127" y="104.914" type="curve" smooth="yes"/>
      <point x="90.914" y="104.914"/>
      <point x="64.08" y="78.081"/>
      <point x="64.08" y="43.845" type="curve" smooth="yes"/>
      <point x="64.08" y="8.684"/>
      <point x="90.914" y="-20"/>
    </contour>
  </outline>
</glyph>
<glyph name="comma" format="2">
  <advance width="262"/>
  <unicode hex="002C"/>
  <outline>
    <contour>
      <point x="63" y="-133" type="curve"/>
      <point x="71" y="-158" type="line"/>
      <point x="158" y="-93"/>
      <point x="199" y="-32"/>
      <point x="199" y="32" type="curve" smooth="yes"/>
      <point x="199" y="87"/>
      <point x="169" y="115"/>
      <point x="130" y="115" type="curve" smooth="yes"/>
      <point x="90" y="115"/>
      <point x="63" y="85"/>
      <point x="63" y="46" type="curve" smooth="yes"/>
      <point x="63" y="-4"/>
      <point x="108" y="-34"/>
      <point x="151" y="-12" type="curve"/>
      <point x="144" y="-49"/>
      <point x="118" y="-85"/>
    </contour>
  </outline>
</glyph>
<glyph name="period" format="2">
  <advance width="262"/>
  <unicode hex="002E"/>
  <outline>
    <contour>
      <point x="131" y="-20" type="curve" smooth="yes"/>
      <point x="169" y="-20"/>
      <point x="199" y="11"/>
      <point x="199" y="49" type="curve" smooth="yes"/>
      <point x="199" y="86"/>
      <point x="169" y="115"/>
      <point x="131" y="115" type="curve" smooth="yes"/>
      <point x="92" y="115"/>
      <point x="63" y="86"/>
      <point x="63" y="49" type="curve" smooth="yes"/>
      <point x="63" y="11"/>
      <point x="92" y="-20"/>
    </contour>
  </outline>
</glyph>
<glyph name="zero" format="2">
  <advance width="627"/>
  <unicode hex="0030"/>
  <outline>
    <contour>
      <point x="316" y="-19" type="curve" smooth="yes"/>
      <point x="487" y="-19"/>
      <point x="578" y="107"/>
      <point x="578" y="350" type="curve" smooth="yes"/>
      <point x="578" y="592"/>
      <point x="488" y="720"/>
      <point x="320" y="720" type="curve" smooth="yes"/>
      <point x="146" y="720"/>
      <point x="49" y="583"/>
      <point x="49" y="345" type="curve" smooth="yes"/>
      <point x="49" y="110"/>
      <point x="143" y="-19"/>
    </contour>
    <contour>
      <point x="314" y="81" type="curve" smooth="yes"/>
      <point x="223" y="81"/>
      <point x="169" y="167"/>
      <point x="169" y="347" type="curve" smooth="yes"/>
      <point x="169" y="531"/>
      <point x="225" y="620"/>
      <point x="317" y="620" type="curve" smooth="yes"/>
      <point x="406" y="620"/>
      <point x="458" y="537"/>
      <point x="458" y="352" type="curve" smooth="yes"/>
      <point x="458" y="166"/>
      <point x="405" y="81"/>
    </contour>
  </outline>
</glyph>
<glyph name="one" format="2">
  <advance width="456"/>
  <unicode hex="0031"/>
  <outline>
    <contour>
      <point x="249" y="524" type="curve"/>
      <point x="249" y="0" type="line"/>
      <point x="369" y="0" type="line"/>
      <point x="369" y="700" type="line"/>
      <point x="265" y="700" type="line"/>
      <point x="210" y="608"/>
      <point x="138" y="535"/>
      <point x="35" y="515" type="curve"/>
      <point x="35" y="409" type="line"/>
      <point x="163" y="440"/>
      <point x="197" y="470"/>
    </contour>
  </outline>
</glyph>
<glyph name="six" format="2">
  <advance width="631"/>
  <unicode hex="0036"/>
  <outline>
    <contour>
      <point x="316" y="-20" type="curve" smooth="yes"/>
      <point x="492" y="-20"/>
      <point x="589" y="89"/>
      <point x="589" y="228" type="curve" smooth="yes"/>
      <point x="589" y="378"/>
      <point x="475" y="458"/>
      <point x="336" y="458" type="curve" smooth="yes"/>
      <point x="241.133" y="458"/>
      <point x="186.032" y="420.506"/>
      <point x="128.31" y="349.15" type="curve"/>
      <point x="139.47" y="340.496" type="line"/>
      <point x="131.551" y="524.186"/>
      <point x="224.862" y="620"/>
      <point x="334.051" y="620" type="curve" smooth="yes"/>
      <point x="404.205" y="620"/>
      <point x="449.205" y="598"/>
      <point x="485.205" y="561" type="curve"/>
      <point x="561.205" y="637" type="line"/>
      <point x="514.205" y="685"/>
      <point x="425.205" y="720"/>
      <point x="331.205" y="720" type="curve" smooth="yes"/>
      <point x="150.205" y="720"/>
      <point x="38" y="581"/>
      <point x="38" y="330" type="curve" smooth="yes"/>
      <point x="38" y="97"/>
      <point x="134" y="-20"/>
    </contour>
    <contour>
      <point x="318" y="80" type="curve" smooth="yes"/>
      <point x="228" y="80"/>
      <point x="171" y="132"/>
      <point x="171" y="222" type="curve" smooth="yes"/>
      <point x="171" y="312"/>
      <point x="229" y="368"/>
      <point x="322" y="368" type="curve" smooth="yes"/>
      <point x="409" y="368"/>
      <point x="469" y="319"/>
      <point x="469" y="227" type="curve" smooth="yes"/>
      <point x="469" y="138"/>
      <point x="413" y="80"/>
    </contour>
  </outline>
</glyph>
<glyph name="at" format="2">
  <advance width="885"/>
  <unicode hex="0040"/>
  <outline>
    <contour>
      <point x="423" y="-159" type="curve" smooth="yes"/>
      <point x="463" y="-159"/>
      <point x="499" y="-154"/>
      <point x="534" y="-147" type="curve"/>
      <point x="534" y="-87" type="line"/>
      <point x="502.744" y="-93"/>
      <point x="464.651" y="-99"/>
      <point x="426.558" y="-99" type="curve" smooth="yes"/>
      <point x="251.721" y="-99"/>
      <point x="114" y="15.25"/>
      <point x="114" y="242.056" type="curve" smooth="yes"/>
      <point x="114" y="482.667"/>
      <point x="269.273" y="601"/>
      <point x="446.867" y="601" type="curve" smooth="yes"/>
      <point x="625.431" y="601"/>
      <point x="771" y="482.314"/>
      <point x="771" y="275.348" type="curve" smooth="yes"/>
      <point x="771" y="143.91"/>
      <point x="720.945" y="88"/>
      <point x="666.718" y="88" type="curve" smooth="yes"/>
      <point x="630.845" y="88"/>
      <point x="620" y="111"/>
      <point x="620" y="151" type="curve" smooth="yes"/>
      <point x="620" y="164" type="line"/>
      <point x="639" y="422" type="line"/>
      <point x="593" y="447"/>
      <point x="545" y="460"/>
      <point x="486" y="460" type="curve" smooth="yes"/>
      <point x="315" y="460"/>
      <point x="234" y="349"/>
      <point x="234" y="220" type="curve" smooth="yes"/>
      <point x="234" y="90"/>
      <point x="319.594" y="21"/>
      <point x="421.688" y="21" type="curve" smooth="yes"/>
      <point x="503.156" y="21"/>
      <point x="531" y="65"/>
      <point x="552" y="128" type="curve"/>
      <point x="548.143" y="59"/>
      <point x="597" y="23"/>
      <point x="667" y="23" type="curve" smooth="yes"/>
      <point x="792" y="23"/>
      <point x="841" y="136"/>
      <point x="841" y="282" type="curve" smooth="yes"/>
      <point x="841" y="507"/>
      <point x="680" y="661"/>
      <point x="448" y="661" type="curve" smooth="yes"/>
      <point x="216" y="661"/>
      <point x="44" y="507"/>
      <point x="44" y="244" type="curve" smooth="yes"/>
      <point x="44" y="-6"/>
      <point x="199" y="-159"/>
    </contour>
    <contour>
      <point x="420" y="93" type="curve" smooth="yes"/>
      <point x="357" y="93"/>
      <point x="334" y="138.69"/>
      <point x="334" y="208.219" type="curve" smooth="yes"/>
      <point x="334" y="316.485"/>
      <point x="389" y="388"/>
      <point x="466" y="388" type="curve" smooth="yes"/>
      <point x="493" y="388"/>
      <point x="523" y="379.061"/>
      <point x="544" y="362.175" type="curve"/>
      <point x="541" y="332.377"/>
      <point x="534.948" y="290.665"/>
      <point x="532" y="262.848" type="curve" smooth="yes"/>
      <point x="518.948" y="139.689"/>
      <point x="484" y="93"/>
    </contour>
  </outline>
</glyph>
<glyph name="A" format="2">
  <advance width="655"/>
  <unicode hex="0041"/>
  <anchor x="328" y="-20" name="bottom"/>
  <anchor x="627" y="-2" name="ogonek"/>
  <anchor x="328" y="719" name="top"/>
  <anchor x="96" y="500" name="topgr"/>
  <outline>
    <contour>
      <point x="507" y="0" type="line"/>
      <point x="633" y="0" type="line"/>
      <point x="406" y="700" type="line"/>
      <point x="298" y="700" type="line"/>
    </contour>
    <contour>
      <point x="143" y="131" type="line" name="dv01"/>
      <point x="509" y="131" type="line"/>
      <point x="475" y="226" type="line" name="dv03"/>
      <point x="177" y="226" type="line" name="dv02"/>
    </contour>
    <contour>
      <point x="22" y="0" type="line"/>
      <point x="148" y="0" type="line"/>
      <point x="357" y="700" type="line"/>
      <point x="249" y="700" type="line"/>
    </contour>
  </outline>
</glyph>
<glyph name="C" format="2">
  <advance width="684"/>
  <unicode hex="0043"/>
  <anchor x="402" y="-20" name="bottom"/>
  <anchor x="382" y="719" name="top"/>
  <outline>
    <contour>
      <point x="387" y="-20" type="curve" smooth="yes" name="dv01"/>
      <point x="488" y="-20"/>
      <point x="572" y="18"/>
      <point x="647" y="102" type="curve"/>
      <point x="576" y="173" type="line"/>
      <point x="534.407" y="117.495"/>
      <point x="473.007" y="84"/>
      <point x="394.772" y="84" type="curve" smooth="yes" name="dv02"/>
      <point x="266.031" y="84"/>
      <point x="167" y="188.623"/>
      <point x="167" y="365.299" type="curve" smooth="yes"/>
      <point x="167" y="524.208"/>
      <point x="246.225" y="616"/>
      <point x="386.85" y="616" type="curve" smooth="yes" name="dv03"/>
      <point x="462.114" y="616"/>
      <point x="523.513" y="586.989"/>
      <point x="576" y="528" type="curve"/>
      <point x="647" y="599" type="line"/>
      <point x="581" y="681"/>
      <point x="492" y="720"/>
      <point x="379" y="720" type="curve" smooth="yes" name="dv04"/>
      <point x="166" y="720"/>
      <point x="43" y="581"/>
      <point x="43" y="365" type="curve" smooth="yes"/>
      <point x="43" y="135"/>
      <point x="182" y="-20"/>
    </contour>
  </outline>
</glyph>
<glyph name="D" format="2">
  <advance width="722"/>
  <unicode hex="0044"/>
  <anchor x="318" y="-20" name="bottom"/>
  <anchor x="318" y="719" name="top"/>
  <outline>
    <contour>
      <point x="74" y="0" type="line" name="ab01"/>
      <point x="331" y="0" type="line" smooth="yes"/>
      <point x="538" y="0"/>
      <point x="679" y="141"/>
      <point x="679" y="350" type="curve" smooth="yes"/>
      <point x="679" y="558"/>
      <point x="537" y="700"/>
      <point x="331" y="700" type="curve" smooth="yes" name="at01"/>
      <point x="74" y="700" type="line"/>
    </contour>
    <contour>
      <point x="310.635" y="100" type="curve" smooth="yes"/>
      <point x="194" y="100" type="line" name="sv01"/>
      <point x="194" y="600" type="line" name="sv02"/>
      <point x="310.635" y="600" type="line" smooth="yes"/>
      <point x="457.056" y="600"/>
      <point x="555" y="499"/>
      <point x="555" y="349" type="curve" smooth="yes"/>
      <point x="555" y="197"/>
      <point x="454.088" y="100"/>
    </contour>
  </outline>
</glyph>
<glyph name="E" format="2">
  <advance width="530"/>
  <unicode hex="0045"/>
  <anchor x="265" y="-20" name="bottom"/>
  <anchor x="479" y="-2" name="ogonek"/>
  <anchor x="265" y="719" name="top"/>
  <anchor x="-38" y="500" name="topgr"/>
  <outline>
    <contour>
      <point x="64" y="0" type="line"/>
      <point x="485" y="0" type="line" name="ab01"/>
      <point x="485" y="100" type="line" name="sv01"/>
      <point x="184" y="100" type="line"/>
      <point x="184" y="315" type="line" name="dv01"/>
      <point x="445" y="315" type="line"/>
      <point x="445" y="415" type="line"/>
      <point x="184" y="415" type="line" name="dv02"/>
      <point x="184" y="600" type="line" name="sv02"/>
      <point x="470" y="600" type="line"/>
      <point x="470" y="700" type="line" name="at01"/>
      <point x="64" y="700" type="line"/>
    </contour>
  </outline>
</glyph>
<glyph name="M" format="2">
  <advance width="888"/>
  <unicode hex="004D"/>
  <anchor x="444" y="-20" name="bottom"/>
  <anchor x="444" y="719" name="top"/>
  <outline>
    <contour>
      <point x="77" y="0" type="line" name="ab03"/>
      <point x="197" y="0" type="line"/>
      <point x="197" y="464" type="line" name="iv01"/>
      <point x="413" y="0" type="line" name="ab01"/>
      <point x="475" y="0" type="line"/>
      <point x="691" y="464" type="line" name="iv02"/>
      <point x="691" y="0" type="line" name="ab02"/>
      <point x="811" y="0" type="line"/>
      <point x="811" y="700" type="line" name="at01"/>
      <point x="691" y="700" type="line"/>
      <point x="444" y="170" type="line" name="iv03"/>
      <point x="197" y="700" type="line" name="at02"/>
      <point x="77" y="700" type="line"/>
    </contour>
  </outline>
</glyph>
<glyph name="N" format="2">
  <advance width="732"/>
  <unicode hex="004E"/>
  <anchor x="366" y="-20" name="bottom"/>
  <anchor x="366" y="719" name="top"/>
  <outline>
    <contour>
      <point x="77" y="0" type="line"/>
      <point x="197" y="0" type="line" name="ab01"/>
      <point x="197" y="515" type="line" name="iv01"/>
      <point x="545" y="0" type="line" name="ab02"/>
      <point x="655" y="0" type="line"/>
      <point x="655" y="700" type="line" name="at01"/>
      <point x="535" y="700" type="line"/>
      <point x="535" y="185" type="line" name="iv02"/>
      <point x="187" y="700" type="line" name="at02"/>
      <point x="77" y="700" type="line"/>
    </contour>
  </outline>
</glyph>
<glyph name="O" format="2">
  <advance width="775"/>
  <unicode hex="004F"/>
  <anchor x="388" y="-20" name="bottom"/>
  <anchor x="513" y="-1" name="ogonek"/>
  <anchor x="388" y="719" name="top"/>
  <anchor x="2" y="500" name="topgr"/>
  <outline>
    <contour>
      <point x="387" y="-20" type="curve" smooth="yes" name="dv01"/>
      <point x="589" y="-20"/>
      <point x="732" y="107"/>
      <point x="732" y="350" type="curve" smooth="yes" name="dv06"/>
      <point x="732" y="575"/>
      <point x="602" y="720"/>
      <point x="388" y="720" type="curve" smooth="yes" name="dv04"/>
      <point x="182" y="720"/>
      <point x="43" y="586"/>
      <point x="43" y="350" type="curve" smooth="yes"/>
      <point x="43" y="109"/>
      <point x="186" y="-20"/>
    </contour>
    <contour>
      <point x="390.938" y="84" type="curve" smooth="yes" name="dv02"/>
      <point x="252.45" y="84"/>
      <point x="167" y="183.84"/>
      <point x="167" y="349.967" type="curve" smooth="yes"/>
      <point x="167" y="518.071"/>
      <point x="245.575" y="616"/>
      <point x="383.08" y="616" type="curve" smooth="yes" name="dv03"/>
      <point x="524.514" y="616"/>
      <point x="608" y="520.126"/>
      <point x="608" y="350.045" type="curve" smooth="yes" name="dv05"/>
      <point x="608" y="184.907"/>
      <point x="527.461" y="84"/>
    </contour>
  </outline>
</glyph>
<glyph name="P" format="2">
  <advance width="628"/>
  <unicode hex="0050"/>
  <anchor x="322" y="-20" name="bottom"/>
  <anchor x="322" y="719" name="top"/>
  <outline>
    <contour>
      <point x="78" y="0" type="line"/>
      <point x="198" y="0" type="line" name="ab01"/>
      <point x="198" y="226" type="line" name="dv01"/>
      <point x="320" y="226" type="line" smooth="yes"/>
      <point x="488" y="226"/>
      <point x="595" y="319"/>
      <point x="595" y="466" type="curve" smooth="yes"/>
      <point x="595" y="608"/>
      <point x="494" y="700"/>
      <point x="334" y="700" type="curve" smooth="yes" name="at01"/>
      <point x="78" y="700" type="line"/>
    </contour>
    <contour>
      <point x="293" y="326" type="curve" smooth="yes"/>
      <point x="198" y="326" type="line" name="dv02"/>
      <point x="198" y="600" type="line" name="sv01"/>
      <point x="293" y="600" type="line" smooth="yes"/>
      <point x="419" y="600"/>
      <point x="475" y="557.846"/>
      <point x="475" y="467.516" type="curve" smooth="yes"/>
      <point x="475" y="373.172"/>
      <point x="413" y="326"/>
    </contour>
  </outline>
</glyph>
<glyph name="U" format="2">
  <advance width="675"/>
  <unicode hex="0055"/>
  <anchor x="338" y="-20" name="bottom"/>
  <anchor x="447" y="-1" name="ogonek"/>
  <anchor x="338" y="719" name="top"/>
  <outline>
    <contour>
      <point x="336" y="-20" type="curve" smooth="yes" name="dv01"/>
      <point x="507" y="-20"/>
      <point x="605" y="89"/>
      <point x="605" y="262" type="curve" smooth="yes"/>
      <point x="605" y="700" type="line" name="at02"/>
      <point x="485" y="700" type="line"/>
      <point x="485" y="278" type="line" smooth="yes"/>
      <point x="485" y="139"/>
      <point x="430" y="80"/>
      <point x="337" y="80" type="curve" smooth="yes" name="dv02"/>
      <point x="245" y="80"/>
      <point x="190" y="138"/>
      <point x="190" y="278" type="curve" smooth="yes"/>
      <point x="190" y="700" type="line"/>
      <point x="70" y="700" type="line" name="at01"/>
      <point x="70" y="262" type="line" smooth="yes"/>
      <point x="70" y="88"/>
      <point x="165" y="-20"/>
    </contour>
  </outline>
</glyph>
<glyph name="W" format="2">
  <advance width="960"/>
  <unicode hex="0057"/>
  <anchor x="480" y="-20" name="bottom"/>
  <anchor x="480" y="719" name="top"/>
  <outline>
    <contour>
      <point x="644" y="0" type="line"/>
      <point x="743" y="0" type="line"/>
      <point x="944" y="700" type="line"/>
      <point x="819" y="700" type="line"/>
    </contour>
    <contour>
      <point x="218" y="0" type="line"/>
      <point x="317" y="0" type="line"/>
      <point x="142" y="700" type="line"/>
      <point x="17" y="700" type="line"/>
    </contour>
    <contour>
      <point x="257" y="0" type="line"/>
      <point x="351" y="0" type="line"/>
      <point x="515" y="700" type="line"/>
      <point x="432" y="700" type="line"/>
    </contour>
    <contour>
      <point x="610" y="0" type="line"/>
      <point x="704" y="0" type="line"/>
      <point x="529" y="700" type="line"/>
      <point x="446" y="700" type="line"/>
    </contour>
  </outline>
</glyph>
<glyph name="X" format="2">
  <advance width="648"/>
  <unicode hex="0058"/>
  <anchor x="324" y="-20" name="bottom"/>
  <anchor x="324" y="719" name="top"/>
  <outline>
    <contour>
      <point x="25" y="0" type="line"/>
      <point x="167" y="0" type="line"/>
      <point x="325" y="285" type="line"/>
      <point x="483" y="0" type="line"/>
      <point x="624" y="0" type="line"/>
      <point x="411" y="354" type="line"/>
      <point x="619" y="700" type="line"/>
      <point x="480" y="700" type="line"/>
      <point x="325" y="420" type="line"/>
      <point x="170" y="700" type="line"/>
      <point x="30" y="700" type="line"/>
      <point x="238" y="354" type="line"/>
    </contour>
  </outline>
</glyph>
<glyph name="Y" format="2">
  <advance width="662"/>
  <unicode hex="0059"/>
  <anchor x="331" y="-20" name="bottom"/>
  <anchor x="331" y="719" name="top"/>
  <anchor x="-75" y="500" name="topgr"/>
  <outline>
    <contour>
      <point x="271" y="0" type="line" name="ab01"/>
      <point x="391" y="0" type="line"/>
      <point x="391" y="295" type="line" name="iv04"/>
      <point x="634" y="700" type="line" name="at01"/>
      <point x="497" y="700" type="line"/>
      <point x="334" y="418" type="line" name="iv05"/>
      <point x="168" y="700" type="line" name="at02"/>
      <point x="28" y="700" type="line"/>
      <point x="271" y="295" type="line" name="iv01"/>
    </contour>
  </outline>
</glyph>
<glyph name="bracketleft" format="2">
  <advance width="420"/>
  <unicode hex="005B"/>
  <outline>
    <contour>
      <point x="87" y="-217" type="line"/>
      <point x="367" y="-217" type="line"/>
      <point x="367" y="-142" type="line"/>
      <point x="202" y="-142" type="line"/>
      <point x="202" y="703" type="line"/>
      <point x="367" y="703" type="line"/>
      <point x="367" y="778" type="line"/>
      <point x="87" y="778" type="line"/>
    </contour>
  </outline>
</glyph>
<glyph name="backslash" format="2">
  <advance width="326"/>
  <unicode hex="005C"/>
  <outline>
    <contour>
      <point x="363" y="0" type="line"/>
      <point x="-9" y="700" type="line"/>
      <point x="-35" y="700" type="line"/>
      <point x="337" y="0" type="line"/>
    </contour>
  </outline>
</glyph>
<glyph name="b" format="2">
  <advance width="635"/>
  <unicode hex="0062"/>
  <anchor x="345" y="-20" name="bottom"/>
  <anchor x="353" y="750" name="top"/>
  <outline>
    <contour>
      <point x="367.316" y="-20" type="curve" smooth="yes" name="dv01"/>
      <point x="501" y="-20"/>
      <point x="585" y="99"/>
      <point x="585" y="255" type="curve" smooth="yes"/>
      <point x="585" y="411"/>
      <point x="510" y="520"/>
      <point x="376.03" y="520" type="curve" smooth="yes" name="at01"/>
      <point x="249" y="520"/>
      <point x="181" y="422"/>
      <point x="181" y="255" type="curve" smooth="yes"/>
      <point x="181" y="78"/>
      <point x="246" y="-20"/>
    </contour>
    <contour>
      <point x="83" y="0" type="line"/>
      <point x="203" y="0" type="line" name="ab02"/>
      <point x="203" y="750" type="line" name="ab01"/>
      <point x="83" y="750" type="line" name="sh01"/>
    </contour>
    <contour>
      <point x="338" y="70" type="curve" smooth="yes" name="dv02"/>
      <point x="258" y="70"/>
      <point x="203" y="151.226"/>
      <point x="203" y="256.518" type="curve" smooth="yes"/>
      <point x="203" y="357.799"/>
      <point x="260" y="430"/>
      <point x="339" y="430" type="curve" smooth="yes" name="sv01"/>
      <point x="418" y="430"/>
      <point x="465" y="364.819"/>
      <point x="465" y="255.515" type="curve" smooth="yes"/>
      <point x="465" y="144.206"/>
      <point x="415" y="70"/>
    </contour>
  </outline>
</glyph>
<glyph name="c" format="2">
  <advance width="545"/>
  <unicode hex="0063"/>
  <anchor x="303" y="-20" name="bottom"/>
  <anchor x="303" y="520" name="top"/>
  <outline>
    <contour>
      <point x="293" y="-20" type="curve" smooth="yes" name="dv01"/>
      <point x="393" y="-20"/>
      <point x="474" y="17"/>
      <point x="516" y="70" type="curve"/>
      <point x="448" y="138" type="line"/>
      <point x="418" y="95.373"/>
      <point x="350" y="70"/>
      <point x="299" y="70" type="curve" smooth="yes" name="dv02"/>
      <point x="191" y="68.997"/>
      <point x="170" y="167.544"/>
      <point x="170" y="255.029" type="curve" smooth="yes"/>
      <point x="170" y="373.688"/>
      <point x="211" y="430"/>
      <point x="297" y="430" type="curve" smooth="yes" name="sv01"/>
      <point x="352" y="430"/>
      <point x="410" y="406.657"/>
      <point x="442" y="362" type="curve"/>
      <point x="510" y="430" type="line"/>
      <point x="468" y="483"/>
      <point x="392" y="520"/>
      <point x="294" y="520" type="curve" smooth="yes"/>
      <point x="138" y="520"/>
      <point x="50" y="421"/>
      <point x="50" y="255" type="curve" smooth="yes"/>
      <point x="50" y="79"/>
      <point x="138" y="-20"/>
    </contour>
  </outline>
</glyph>
<glyph name="e" format="2">
  <advance width="570"/>
  <unicode hex="0065"/>
  <anchor x="271" y="-20" name="bottom"/>
  <anchor x="393" y="-2" name="ogonek"/>
  <anchor x="271" y="520" name="top"/>
  <outline>
    <contour>
      <point x="294.53" y="-20" type="curve" smooth="yes" name="dv01"/>
      <point x="391.463" y="-20"/>
      <point x="465.877" y="17"/>
      <point x="507" y="70" type="curve"/>
      <point x="439" y="138" type="line"/>
      <point x="408.962" y="94.358"/>
      <point x="346.948" y="70"/>
      <point x="288.81" y="70" type="curve" smooth="yes" name="dv02"/>
      <point x="201.603" y="70"/>
      <point x="158" y="125.353"/>
      <point x="158" y="227" type="curve" name="sv04"/>
      <point x="531" y="227" type="line" name="dv03"/>
      <point x="541" y="424"/>
      <point x="443.769" y="520"/>
      <point x="289.891" y="520" type="curve" smooth="yes" name="at01"/>
      <point x="138.952" y="520"/>
      <point x="38" y="427"/>
      <point x="38" y="251" type="curve" smooth="yes" name="sv03"/>
      <point x="38" y="72"/>
      <point x="141.787" y="-20"/>
    </contour>
    <contour>
      <point x="411" y="307" type="curve" name="dv04"/>
      <point x="162" y="307" type="line" name="sv02"/>
      <point x="171.114" y="385.639"/>
      <point x="220.869" y="430"/>
      <point x="290.136" y="430" type="curve" smooth="yes" name="sv01"/>
      <point x="358.428" y="430"/>
      <point x="402.329" y="385.639"/>
    </contour>
  </outline>
</glyph>
<glyph name="g" format="2">
  <advance width="605"/>
  <unicode hex="0067"/>
  <anchor x="291" y="-220" name="bottom"/>
  <anchor x="297" y="520" name="top"/>
  <outline>
    <contour>
      <point x="287" y="-220" type="curve" smooth="yes"/>
      <point x="455" y="-220"/>
      <point x="541" y="-121"/>
      <point x="541" y="52" type="curve" smooth="yes"/>
      <point x="541" y="500" type="line" name="av01"/>
      <point x="421" y="500" type="line"/>
      <point x="421" y="50.286" type="line" smooth="yes"/>
      <point x="421" y="-98.951"/>
      <point x="358" y="-130"/>
      <point x="286" y="-130" type="curve" smooth="yes"/>
      <point x="223" y="-130"/>
      <point x="166" y="-105.642"/>
      <point x="135" y="-62" type="curve"/>
      <point x="67" y="-130" type="line"/>
      <point x="109" y="-183"/>
      <point x="185" y="-220"/>
    </contour>
    <contour>
      <point x="255" y="-20" type="curve" smooth="yes" name="dv01"/>
      <point x="379" y="-20"/>
      <point x="444" y="88"/>
      <point x="444" y="253" type="curve" smooth="yes"/>
      <point x="444" y="422"/>
      <point x="376" y="520"/>
      <point x="249" y="520" type="curve" smooth="yes" name="at01"/>
      <point x="115" y="520"/>
      <point x="40" y="411"/>
      <point x="40" y="259" type="curve" smooth="yes"/>
      <point x="40" y="99"/>
      <point x="124" y="-20"/>
    </contour>
    <contour>
      <point x="286" y="70" type="curve" smooth="yes" name="dv02"/>
      <point x="210" y="70"/>
      <point x="160" y="143.203"/>
      <point x="160" y="256.518" type="curve" smooth="yes"/>
      <point x="160" y="365.822"/>
      <point x="206" y="430"/>
      <point x="283" y="430" type="curve" smooth="yes" name="sv01"/>
      <point x="364" y="430"/>
      <point x="421" y="357.799"/>
      <point x="421" y="253.51" type="curve" smooth="yes"/>
      <point x="421" y="151.226"/>
      <point x="366" y="70"/>
    </contour>
  </outline>
</glyph>
<glyph name="l" format="2">
  <advance width="300"/>
  <unicode hex="006C"/>
  <anchor x="180" y="-20" name="bottom"/>
  <anchor x="128" y="750" name="top"/>
  <anchor x="230" y="750" name="topright"/>
  <outline>
    <contour>
      <point x="197.961" y="-20" type="curve" smooth="yes" name="dv01"/>
      <point x="226.947" y="-20"/>
      <point x="254" y="-16"/>
      <point x="300" y="2" type="curve"/>
      <point x="277" y="88" type="line"/>
      <point x="259" y="79"/>
      <point x="237.75" y="73"/>
      <point x="218.348" y="73" type="curve" smooth="yes" name="dv02"/>
      <point x="185.087" y="73"/>
      <point x="174" y="90"/>
      <point x="174" y="161" type="curve" smooth="yes"/>
      <point x="174" y="750" type="line" name="ab01"/>
      <point x="54" y="750" type="line"/>
      <point x="54" y="132" type="line" smooth="yes"/>
      <point x="54" y="30"/>
      <point x="94.58" y="-20"/>
    </contour>
  </outline>
</glyph>
<glyph name="m" format="2">
  <advance width="899"/>
  <unicode hex="006D"/>
  <anchor x="452" y="-20" name="bottom"/>
  <anchor x="452" y="520" name="top"/>
  <outline>
    <contour>
      <point x="719" y="291.355" type="curve" smooth="yes"/>
      <point x="719" y="0" type="line" name="ab01"/>
      <point x="839" y="0" type="line"/>
      <point x="839" y="314" type="line" smooth="yes"/>
      <point x="839" y="458"/>
      <point x="775" y="520"/>
      <point x="684" y="520" type="curve" smooth="yes" name="at01"/>
      <point x="588" y="520"/>
      <point x="514" y="452"/>
      <point x="501" y="355" type="curve"/>
      <point x="503" y="280" type="line"/>
      <point x="514" y="217" type="line" name="iv01"/>
      <point x="514" y="345.204"/>
      <point x="558" y="430"/>
      <point x="641" y="430" type="curve" smooth="yes" name="sv01"/>
      <point x="690" y="430"/>
      <point x="719" y="399.86"/>
    </contour>
    <contour>
      <point x="64" y="0" type="line" name="ab01"/>
      <point x="184" y="0" type="line" name="sh01"/>
      <point x="184" y="500" type="line" name="av01"/>
      <point x="64" y="500" type="line"/>
    </contour>
    <contour>
      <point x="394" y="291.355" type="curve" smooth="yes"/>
      <point x="394" y="0" type="line" name="ab01"/>
      <point x="514" y="0" type="line"/>
      <point x="514" y="314" type="line" smooth="yes"/>
      <point x="514" y="458"/>
      <point x="450" y="520"/>
      <point x="359" y="520" type="curve" smooth="yes" name="at01"/>
      <point x="263" y="520"/>
      <point x="189" y="452"/>
      <point x="176" y="355" type="curve"/>
      <point x="177" y="280" type="line"/>
      <point x="184" y="217" type="line" name="iv01"/>
      <point x="184" y="345.204"/>
      <point x="229" y="430"/>
      <point x="314" y="430" type="curve" smooth="yes" name="sv01"/>
      <point x="364" y="430"/>
      <point x="394" y="399.86"/>
    </contour>
  </outline>
</glyph>
<glyph name="o" format="2">
  <advance width="578"/>
  <unicode hex="006F"/>
  <anchor x="289" y="-20" name="bottom"/>
  <anchor x="394" y="-3" name="ogonek"/>
  <anchor x="289" y="520" name="top"/>
  <anchor x="289" y="520" name="topgr"/>
  <outline>
    <contour>
      <point x="289" y="-20" type="curve" smooth="yes" name="dv01"/>
      <point x="459.024" y="-20"/>
      <point x="541" y="79"/>
      <point x="541" y="255" type="curve" smooth="yes"/>
      <point x="541" y="421"/>
      <point x="458.012" y="520"/>
      <point x="289" y="520" type="curve" smooth="yes" name="at01"/>
      <point x="131.12" y="520"/>
      <point x="37" y="421"/>
      <point x="37" y="255" type="curve" smooth="yes"/>
      <point x="37" y="79"/>
      <point x="132.133" y="-20"/>
    </contour>
    <contour>
      <point x="289" y="70" type="curve" smooth="yes" name="dv02"/>
      <point x="204.07" y="70"/>
      <point x="157" y="132.346"/>
      <point x="157" y="255.028" type="curve" smooth="yes"/>
      <point x="157" y="373.687"/>
      <point x="201" y="430"/>
      <point x="289" y="430" type="curve" smooth="yes" name="sv01"/>
      <point x="378.023" y="430"/>
      <point x="421" y="369.665"/>
      <point x="421" y="253.017" type="curve" smooth="yes"/>
      <point x="421" y="135.363"/>
      <point x="377" y="70"/>
    </contour>
  </outline>
</glyph>
<glyph name="p" format="2">
  <advance width="632"/>
  <unicode hex="0070"/>
  <anchor x="359" y="-20" name="bottom"/>
  <anchor x="347" y="520" name="top"/>
  <outline>
    <contour>
      <point x="361" y="-20" type="curve" smooth="yes" name="dv01"/>
      <point x="499" y="-20"/>
      <point x="583" y="99"/>
      <point x="583" y="255" type="curve" smooth="yes"/>
      <point x="583" y="411"/>
      <point x="508" y="520"/>
      <point x="367" y="520" type="curve" smooth="yes" name="at01"/>
      <point x="247" y="520"/>
      <point x="179" y="422"/>
      <point x="179" y="255" type="curve" smooth="yes"/>
      <point x="179" y="88"/>
      <point x="244" y="-20"/>
    </contour>
    <contour>
      <point x="81" y="-200" type="line" name="av01"/>
      <point x="201" y="-200" type="line"/>
      <point x="201" y="500" type="line" name="av02"/>
      <point x="81" y="500" type="line"/>
    </contour>
    <contour>
      <point x="336" y="70" type="curve" smooth="yes" name="dv02"/>
      <point x="256" y="70"/>
      <point x="201" y="151.226"/>
      <point x="201" y="256.518" type="curve" smooth="yes"/>
      <point x="201" y="357.799"/>
      <point x="258" y="430"/>
      <point x="337" y="430" type="curve" smooth="yes" name="sv01"/>
      <point x="417" y="430"/>
      <point x="463" y="366.825"/>
      <point x="463" y="255.515" type="curve" smooth="yes"/>
      <point x="463" y="142.201"/>
      <point x="414" y="70"/>
    </contour>
  </outline>
</glyph>
<glyph name="q" format="2">
  <advance width="635"/>
  <unicode hex="0071"/>
  <anchor x="290" y="-20" name="bottom"/>
  <anchor x="291" y="520" name="top"/>
  <outline>
    <contour>
      <point x="272" y="-20" type="curve" smooth="yes" name="dv01"/>
      <point x="389" y="-20"/>
      <point x="454" y="88"/>
      <point x="454" y="255" type="curve" smooth="yes"/>
      <point x="454" y="422"/>
      <point x="386" y="520"/>
      <point x="266" y="520" type="curve" smooth="yes" name="at01"/>
      <point x="125" y="520"/>
      <point x="50" y="411"/>
      <point x="50" y="255" type="curve" smooth="yes"/>
      <point x="50" y="99"/>
      <point x="134" y="-20"/>
    </contour>
    <contour>
      <point x="297" y="70" type="curve" smooth="yes" name="dv02"/>
      <point x="221" y="70"/>
      <point x="170" y="145.209"/>
      <point x="170" y="255.515" type="curve" smooth="yes"/>
      <point x="170" y="363.816"/>
      <point x="218" y="430"/>
      <point x="296" y="430" type="curve" smooth="yes" name="sv01"/>
      <point x="375" y="430"/>
      <point x="432" y="357.799"/>
      <point x="432" y="256.518" type="curve" smooth="yes"/>
      <point x="432" y="151.226"/>
      <point x="377" y="70"/>
    </contour>
    <contour>
      <point x="432" y="-200" type="line"/>
      <point x="552" y="-200" type="line"/>
      <point x="552" y="500" type="line"/>
      <point x="432" y="500" type="line"/>
    </contour>
  </outline>
</glyph>
<glyph name="r" format="2">
  <advance width="410"/>
  <unicode hex="0072"/>
  <anchor x="126" y="-20" name="bottom"/>
  <anchor x="229" y="520" name="top"/>
  <outline>
    <contour>
      <point x="64" y="0" type="line" name="ab01"/>
      <point x="184" y="0" type="line"/>
      <point x="184" y="210.981" type="line" smooth="yes"/>
      <point x="184" y="337.57"/>
      <point x="227" y="430"/>
      <point x="368" y="430" type="curve" name="sv01"/>
      <point x="368" y="520" type="line" name="at01"/>
      <point x="272" y="519"/>
      <point x="214" y="466"/>
      <point x="184" y="390" type="curve" name="iv01"/>
      <point x="184" y="500" type="line"/>
      <point x="64" y="500" type="line" name="av01"/>
    </contour>
  </outline>
</glyph>
<glyph name="s" format="2">
  <advance width="487"/>
  <unicode hex="0073"/>
  <anchor x="243" y="-20" name="bottom"/>
  <anchor x="243" y="520" name="top"/>
  <outline>
    <contour>
      <point x="239" y="-20" type="curve" smooth="yes"/>
      <point x="353" y="-20"/>
      <point x="442" y="44.143"/>
      <point x="442" y="141.359" type="curve" smooth="yes"/>
      <point x="442" y="207.506"/>
      <point x="400.879" y="247.173"/>
      <point x="281" y="281.67" type="curve" smooth="yes"/>
      <point x="198.878" y="305.303"/>
      <point x="169" y="327.773"/>
      <point x="169" y="367.862" type="curve" smooth="yes"/>
      <point x="169" y="404.944"/>
      <point x="194" y="430"/>
      <point x="238" y="430" type="curve" smooth="yes"/>
      <point x="285" y="430"/>
      <point x="333" y="401.582"/>
      <point x="361" y="362" type="curve"/>
      <point x="429" y="430" type="line"/>
      <point x="389" y="480"/>
      <point x="319" y="520"/>
      <point x="232" y="520" type="curve" smooth="yes"/>
      <point x="121" y="520"/>
      <point x="49" y="454.855"/>
      <point x="49" y="366.659" type="curve" smooth="yes"/>
      <point x="49" y="291.492"/>
      <point x="100.878" y="234.906"/>
      <point x="229" y="201.292" type="curve" smooth="yes"/>
      <point x="291.881" y="184.794"/>
      <point x="322" y="167.216"/>
      <point x="322" y="132.138" type="curve" smooth="yes"/>
      <point x="322" y="96.058"/>
      <point x="290" y="70"/>
      <point x="237" y="70" type="curve" smooth="yes"/>
      <point x="183" y="70"/>
      <point x="135" y="98.418"/>
      <point x="107" y="138" type="curve"/>
      <point x="39" y="70" type="line"/>
      <point x="79" y="20"/>
      <point x="149" y="-20"/>
    </contour>
  </outline>
</glyph>
<glyph name="t" format="2">
  <advance width="395"/>
  <unicode hex="0074"/>
  <anchor x="220" y="-20" name="bottom"/>
  <anchor x="167" y="630" name="top"/>
  <anchor x="262" y="700" name="topright"/>
  <outline>
    <contour>
      <point x="254" y="-20" type="curve" smooth="yes" name="dv01"/>
      <point x="286.27" y="-20"/>
      <point x="316.25" y="-15.36"/>
      <point x="368.83" y="6.36" type="curve"/>
      <point x="345.41" y="93.91" type="line"/>
      <point x="326.55" y="81.72"/>
      <point x="298.32" y="73"/>
      <point x="273" y="73" type="curve" smooth="yes" name="dv02"/>
      <point x="237" y="73"/>
      <point x="225" y="90"/>
      <point x="225" y="161" type="curve" smooth="yes"/>
      <point x="225" y="620" type="line" name="ab01"/>
      <point x="105" y="620" type="line"/>
      <point x="105" y="132" type="line" smooth="yes"/>
      <point x="105" y="30"/>
      <point x="147" y="-20"/>
    </contour>
    <contour>
      <point x="13" y="410" type="line" name="dv03"/>
      <point x="355" y="410" type="line"/>
      <point x="355" y="500" type="line"/>
      <point x="13" y="500" type="line" name="dv04"/>
    </contour>
  </outline>
</glyph>
<glyph name="w" format="2">
  <advance width="854"/>
  <unicode hex="0077"/>
  <anchor x="427" y="-20" name="bottom"/>
  <anchor x="427" y="520" name="top"/>
  <outline>
    <contour>
      <point x="209" y="0" type="line"/>
      <point x="315" y="0" type="line"/>
      <point x="427" y="385" type="line"/>
      <point x="539" y="0" type="line"/>
      <point x="645" y="0" type="line"/>
      <point x="827" y="500" type="line"/>
      <point x="698" y="500" type="line"/>
      <point x="585" y="148" type="line"/>
      <point x="477" y="500" type="line"/>
      <point x="377" y="500" type="line"/>
      <point x="269" y="148" type="line"/>
      <point x="156" y="500" type="line"/>
      <point x="27" y="500" type="line"/>
    </contour>
  </outline>
</glyph>
<glyph name="z" format="2">
  <advance width="473"/>
  <unicode hex="007A"/>
  <anchor x="236" y="-20" name="bottom"/>
  <anchor x="246" y="520" name="top"/>
  <outline>
    <contour>
      <point x="23" y="0" type="line" name="ab01"/>
      <point x="450" y="0" type="line"/>
      <point x="450" y="90" type="line" name="sv01"/>
      <point x="163" y="90" type="line"/>
      <point x="450" y="420" type="line"/>
      <point x="450" y="500" type="line"/>
      <point x="43" y="500" type="line" name="dv02"/>
      <point x="43" y="410" type="line" name="dv01"/>
      <point x="310" y="410" type="line"/>
      <point x="23" y="80" type="line"/>
    </contour>
  </outline>
</glyph>
<glyph name="braceleft" format="2">
  <advance width="366"/>
  <unicode hex="007B"/>
  <outline>
    <contour>
      <point x="321" y="-336" type="curve"/>
      <point x="332" y="-307" type="line"/>
      <point x="262" y="-276.681"/>
      <point x="245" y="-205.286"/>
      <point x="245" y="-85.967" type="curve" smooth="yes"/>
      <point x="245" y="138" type="line" smooth="yes"/>
      <point x="245" y="202"/>
      <point x="228" y="261"/>
      <point x="138" y="289" type="curve"/>
      <point x="225" y="315"/>
      <point x="245" y="365"/>
      <point x="245" y="429" type="curve" smooth="yes"/>
      <point x="245" y="609.378" type="line" smooth="yes"/>
      <point x="245" y="732.363"/>
      <point x="264" y="809.229"/>
      <point x="334" y="841" type="curve"/>
      <point x="321" y="870" type="line"/>
      <point x="192" y="799.428"/>
      <point x="149" y="697.15"/>
      <point x="149" y="602.032" type="curve" smooth="yes"/>
      <point x="149" y="421" type="line" smooth="yes"/>
      <point x="149" y="371"/>
      <point x="111" y="310"/>
      <point x="39" y="299" type="curve"/>
      <point x="39" y="282" type="line"/>
      <point x="91" y="272"/>
      <point x="149" y="236"/>
      <point x="149" y="165" type="curve" smooth="yes"/>
      <point x="149" y="-75.205" type="line" smooth="yes"/>
      <point x="149" y="-174.229"/>
      <point x="192" y="-268.35"/>
    </contour>
  </outline>
</glyph>
<glyph name="braceright" format="2">
  <advance width="366"/>
  <unicode hex="007D"/>
  <outline>
    <contour>
      <point x="41" y="-307" type="curve"/>
      <point x="52" y="-336" type="line"/>
      <point x="181" y="-268.35"/>
      <point x="224" y="-174.229"/>
      <point x="224" y="-75.205" type="curve" smooth="yes"/>
      <point x="224" y="165" type="line" smooth="yes"/>
      <point x="224" y="236"/>
      <point x="282" y="272"/>
      <point x="334" y="282" type="curve"/>
      <point x="334" y="299" type="line"/>
      <point x="262" y="310"/>
      <point x="224" y="371"/>
      <point x="224" y="421" type="curve" smooth="yes"/>
      <point x="224" y="602.032" type="line" smooth="yes"/>
      <point x="224" y="697.15"/>
      <point x="181" y="799.428"/>
      <point x="52" y="870" type="curve"/>
      <point x="39" y="841" type="line"/>
      <point x="109" y="809.229"/>
      <point x="128" y="732.363"/>
      <point x="128" y="609.378" type="curve" smooth="yes"/>
      <point x="128" y="429" type="line" smooth="yes"/>
      <point x="128" y="365"/>
      <point x="148" y="315"/>
      <point x="235" y="289" type="curve"/>
      <point x="145" y="261"/>
      <point x="128" y="202"/>
      <point x="128" y="138" type="curve" smooth="yes"/>
      <point x="128" y="-85.967" type="line" smooth="yes"/>
      <point x="128" y="-205.286"/>
      <point x="111" y="-276.681"/>
    </contour>
  </outline>
</glyph>
<glyph name="ordfeminine" format="2">
  <advance width="549"/>
  <unicode hex="00AA"/>
  <outline>
    <contour>
      <point x="246" y="320" type="curve" smooth="yes"/>
      <point x="347" y="320"/>
      <point x="405" y="398"/>
      <point x="405" y="520" type="curve" smooth="yes"/>
      <point x="405" y="642"/>
      <point x="347" y="720"/>
      <point x="245" y="720" type="curve" smooth="yes"/>
      <point x="144" y="720"/>
      <point x="73" y="643"/>
      <point x="73" y="521" type="curve" smooth="yes"/>
      <point x="73" y="399"/>
      <point x="145" y="320"/>
    </contour>
    <contour>
      <point x="273" y="392" type="curve" smooth="yes"/>
      <point x="208" y="392"/>
      <point x="170" y="440.188"/>
      <point x="170" y="519.498" type="curve" smooth="yes"/>
      <point x="170" y="599.812"/>
      <point x="209" y="648"/>
      <point x="276" y="648" type="curve" smooth="yes"/>
      <point x="342" y="648"/>
      <point x="384" y="599.812"/>
      <point x="384" y="522.51" type="curve" smooth="yes"/>
      <point x="384" y="443.2"/>
      <point x="339" y="392"/>
    </contour>
    <contour>
      <point x="384" y="335" type="line"/>
      <point x="481" y="335" type="line"/>
      <point x="481" y="702" type="line"/>
      <point x="384" y="702" type="line"/>
    </contour>
  </outline>
</glyph>
<glyph name="uni00B2" format="2">
  <advance width="432"/>
  <unicode hex="00B2"/>
  <outline>
    <contour>
      <point x="34" y="471" type="curve"/>
      <point x="34" y="393" type="line"/>
      <point x="296" y="452.705"/>
      <point x="398" y="533.102"/>
      <point x="398" y="667.61" type="curve" smooth="yes"/>
      <point x="398" y="775"/>
      <point x="332" y="835"/>
      <point x="223" y="835" type="curve" smooth="yes"/>
      <point x="140" y="835"/>
      <point x="77" y="801"/>
      <point x="37" y="752" type="curve"/>
      <point x="92" y="697" type="line"/>
      <point x="136" y="739"/>
      <point x="180" y="760"/>
      <point x="221" y="760" type="curve" smooth="yes"/>
      <point x="271" y="760"/>
      <point x="305" y="726"/>
      <point x="305" y="667.067" type="curve" smooth="yes"/>
      <point x="305" y="571.867"/>
      <point x="215" y="505"/>
    </contour>
    <contour>
      <point x="34" y="345" type="line"/>
      <point x="398" y="345" type="line"/>
      <point x="398" y="420" type="line"/>
      <point x="34" y="420" type="line"/>
    </contour>
  </outline>
</glyph>
<glyph name="uni00B5" format="2">
  <advance width="610"/>
  <unicode hex="00B5"/>
  <anchor x="300" y="520" name="topgr"/>
  <outline>
    <component base="uni00B5.ss01" identifier="CD12960A"/>
  </outline>
</glyph>
="500" type="line"/>
      <point x="66" y="500" type="line"/>
      <point x="66" y="196" type="line" smooth="yes"/>
      <point x="66" y="51"/>
      <point x="124" y="-20"/>
    </contour>
    <contour>
      <point x="66" y="-200" type="line"/>
      <point x="186" y="-200" type="line"/>
      <point x="186" y="500" type="line"/>
      <point x="66" y="500" type="line"/>
    </contour>
    <contour>
      <point x="387" y="0" type="line"/>
      <point x="507" y="0" type="line"/>
      <point x="507" y="500" type="line"/>
      <point x="387" y="500" type="line"/>
    </contour>
  </outline>
</glyph>
<glyph name="uni00B9" format="2">
  <advance width="333"/>
  <unicode hex="00B9"/>
  <outline>
    <contour>
      <point x="199" y="702" type="curve"/>
      <point x="199" y="343" type="line"/>
      <point x="292" y="343" type="line"/>
      <point x="292" y="828" type="line"/>
      <point x="218" y="828" type="line"/>
      <point x="183" y="765"/>
      <point x="98" y="714"/>
      <point x="27" y="700" type="curve"/>
      <point x="27" y="623" type="line"/>
      <point x="117" y="644"/>
      <point x="167" y="665"/>
    </contour>
  </outline>
</glyph>
<glyph name="ordmasculine" format="2">
  <advance width="516"/>
  <unicode hex="00BA"/>
  <outline>
    <contour>
      <point x="258" y="317" type="curve" smooth="yes"/>
      <point x="374" y="317"/>
      <point x="443" y="393"/>
      <point x="443" y="523" type="curve" smooth="yes"/>
      <point x="443" y="631"/>
      <point x="373" y="720"/>
      <point x="258" y="720" type="curve" smooth="yes"/>
      <point x="143" y="720"/>
      <point x="74" y="631"/>
      <point x="74" y="523" type="curve" smooth="yes"/>
      <point x="74" y="393"/>
      <point x="144" y="317"/>
    </contour>
    <contour>
      <point x="257" y="385" type="curve" smooth="yes"/>
      <point x="202" y="385"/>
      <point x="161" y="427"/>
      <point x="161" y="526" type="curve" smooth="yes"/>
      <point x="161" y="611"/>
      <point x="201" y="652"/>
      <point x="256" y="652" type="curve" smooth="yes"/>
      <point x="312" y="652"/>
      <point x="356" y="619"/>
      <point x="356" y="523" type="curve" smooth="yes"/>
      <point x="356" y="429"/>
      <point x="313" y="385"/>
    </contour>
  </outline>
</glyph>
<glyph name="AE" format="2">
  <advance width="880"/>
  <unicode hex="00C6"/>
  <anchor x="480" y="-20" name="bottom"/>
  <anchor x="480" y="719" name="top"/>
  <outline>
    <contour>
      <point x="404" y="0" type="line"/>
      <point x="825" y="0" type="line" name="ab01"/>
      <point x="825" y="100" type="line" name="sv01"/>
      <point x="524" y="100" type="line"/>
      <point x="524" y="315" type="line" name="dv01"/>
      <point x="785" y="315" type="line"/>
      <point x="785" y="415" type="line"/>
      <point x="524" y="415" type="line" name="dv02"/>
      <point x="524" y="600" type="line" name="sv02"/>
      <point x="810" y="600" type="line"/>
      <point x="810" y="700" type="line" name="at01"/>
      <point x="404" y="700" type="line"/>
    </contour>
    <contour>
      <point x="138" y="131" type="line" name="dv01"/>
      <point x="504" y="131" type="line"/>
      <point x="470" y="231" type="line" name="dv03"/>
      <point x="172" y="231" type="line" name="dv02"/>
    </contour>
    <contour>
      <point x="22" y="0" type="line"/>
      <point x="148" y="0" type="line"/>
      <point x="349" y="700" type="line"/>
      <point x="249" y="700" type="line"/>
    </contour>
    <contour>
      <point x="270" y="600" type="line"/>
      <point x="489" y="600" type="line"/>
      <point x="490" y="700" type="line"/>
      <point x="304" y="700" type="line"/>
    </contour>
  </outline>
</glyph>
<glyph name="ccedilla" format="2">
  <advance width="564"/>
  <unicode hex="00E7"/>
  <anchor x="283" y="-218" name="bottom"/>
  <anchor x="303" y="520" name="top"/>
  <outline>
    <contour>
      <point x="293" y="-20" type="curve" smooth="yes" name="dv01"/>
      <point x="393" y="-20"/>
      <point x="474" y="17"/>
      <point x="516" y="70" type="curve"/>
      <point x="448" y="138" type="line"/>
      <point x="418" y="95.373"/>
      <point x="350" y="70"/>
      <point x="299" y="70" type="curve" smooth="yes" name="dv02"/>
      <point x="191" y="68.997"/>
      <point x="170" y="167.544"/>
      <point x="170" y="255.029" type="curve" smooth="yes"/>
      <point x="170" y="373.688"/>
      <point x="211" y="430"/>
      <point x="297" y="430" type="curve" smooth="yes" name="sv01"/>
      <point x="352" y="430"/>
      <point x="410" y="406.657"/>
      <point x="442" y="362" type="curve"/>
      <point x="510" y="430" type="line"/>
      <point x="468" y="483"/>
      <point x="392" y="520"/>
      <point x="294" y="520" type="curve" smooth="yes"/>
      <point x="138" y="520"/>
      <point x="50" y="421"/>
      <point x="50" y="255" type="curve" smooth="yes"/>
      <point x="50" y="79"/>
      <point x="138" y="-20"/>
    </contour>
    <contour>
      <point x="272" y="-218" type="curve" smooth="yes"/>
      <point x="355" y="-218"/>
      <point x="402" y="-189"/>
      <point x="402" y="-136" type="curve" smooth="yes"/>
      <point x="402" y="-89"/>
      <point x="366" y="-64"/>
      <point x="306" y="-64" type="curve"/>
      <point x="348.784" y="13.546" type="line"/>
      <point x="275.784" y="13.546" type="line"/>
      <point x="223" y="-90" type="line"/>
      <point x="238" y="-88"/>
      <point x="249" y="-86"/>
      <point x="262" y="-86" type="curve" smooth="yes"/>
      <point x="297" y="-86"/>
      <point x="318" y="-101"/>
      <point x="318" y="-130" type="curve" smooth="yes"/>
      <point x="318" y="-158"/>
      <point x="298" y="-177"/>
      <point x="262" y="-177" type="curve" smooth="yes"/>
      <point x="244" y="-177"/>
      <point x="216" y="-172"/>
      <point x="195" y="-166" type="curve"/>
      <point x="176" y="-205" type="line"/>
      <point x="202" y="-211"/>
      <point x="231" y="-218"/>
    </contour>
  </outline>
</glyph>
<glyph name="oslash" format="2">
  <advance width="616"/>
  <unicode hex="00F8"/>
  <anchor x="308" y="-20" name="bottom"/>
  <anchor x="413" y="-3" name="ogonek"/>
  <anchor x="308" y="520" name="top"/>
  <anchor x="376" y="520" name="topgr"/>
  <outline>
    <contour>
      <point x="308" y="-20" type="curve" smooth="yes" name="dv01"/>
      <point x="476" y="-20"/>
      <point x="557" y="79"/>
      <point x="557" y="255" type="curve" smooth="yes"/>
      <point x="557" y="421"/>
      <point x="475" y="520"/>
      <point x="308" y="520" type="curve" smooth="yes" name="at01"/>
      <point x="152" y="520"/>
      <point x="59" y="421"/>
      <point x="59" y="255" type="curve" smooth="yes"/>
      <point x="59" y="79"/>
      <point x="153" y="-20"/>
    </contour>
    <contour>
      <point x="131.456" y="-77" type="line"/>
      <point x="154.56" y="-77" type="line"/>
      <point x="485.119" y="578.06" type="line"/>
      <point x="462.015" y="578.06" type="line"/>
    </contour>
    <contour>
      <point x="308" y="70" type="curve" smooth="yes" name="dv02"/>
      <point x="225" y="70"/>
      <point x="179" y="132.346"/>
      <point x="179" y="255.028" type="curve" smooth="yes"/>
      <point x="179" y="373.687"/>
      <point x="222" y="430"/>
      <point x="308" y="430" type="curve" smooth="yes" name="sv01"/>
      <point x="395" y="430"/>
      <point x="437" y="369.665"/>
      <point x="437" y="253.017" type="curve" smooth="yes"/>
      <point x="437" y="135.363"/>
      <point x="394" y="70"/>
    </contour>
  </outline>
</glyph>
<glyph name="Aogonek" format="2">
  <advance width="655"/>
  <unicode hex="0104"/>
  <anchor x="328" y="-20" name="bottom"/>
  <anchor x="328" y="719" name="top"/>
  <anchor x="96" y="500" name="topgr"/>
  <outline>
    <contour>
      <point x="507" y="0" type="line"/>
      <point x="633" y="0" type="line"/>
      <point x="406" y="700" type="line"/>
      <point x="298" y="700" type="line"/>
    </contour>
    <contour>
      <point x="587" y="-205" type="curve"/>
      <point x="634" y="-182" type="line"/>
      <point x="590" y="-168"/>
      <point x="568" y="-137"/>
      <point x="568" y="-103" type="curve" smooth="yes"/>
      <point x="568" y="-66"/>
      <point x="593" y="-24"/>
      <point x="633" y="0" type="curve"/>
      <point x="610" y="3" type="line"/>
      <point x="527" y="-13"/>
      <point x="475" y="-55"/>
      <point x="475" y="-109" type="curve" smooth="yes"/>
      <point x="475" y="-158"/>
      <point x="519" y="-195"/>
    </contour>
    <contour>
      <point x="143" y="131" type="line" name="dv01"/>
      <point x="509" y="131" type="line"/>
      <point x="475" y="226" type="line" name="dv03"/>
      <point x="177" y="226" type="line" name="dv02"/>
    </contour>
    <contour>
      <point x="22" y="0" type="line"/>
      <point x="148" y="0" type="line"/>
      <point x="357" y="700" type="line"/>
      <point x="249" y="700" type="line"/>
    </contour>
  </outline>
</glyph>
<glyph name="aogonek" format="2">
  <advance width="606"/>
  <unicode hex="0105"/>
  <anchor x="294" y="-20" name="bottom"/>
  <anchor x="294" y="520" name="top"/>
  <outline>
    <contour>
      <point x="244" y="-20" type="curve" smooth="yes" name="dv01"/>
      <point x="368" y="-20"/>
      <point x="435" y="78"/>
      <point x="435" y="248" type="curve" smooth="yes"/>
      <point x="435" y="422"/>
      <point x="365" y="520"/>
      <point x="235" y="520" type="curve" smooth="yes" name="at01"/>
      <point x="98" y="520"/>
      <point x="21" y="411"/>
      <point x="21" y="259" type="curve" smooth="yes"/>
      <point x="21" y="99"/>
      <point x="107" y="-20"/>
    </contour>
    <contour>
      <point x="481" y="-205" type="curve"/>
      <point x="528" y="-182" type="line"/>
      <point x="484" y="-168"/>
      <point x="462" y="-137"/>
      <point x="462" y="-103" type="curve" smooth="yes"/>
      <point x="462" y="-66"/>
      <point x="487" y="-24"/>
      <point x="527" y="0" type="curve"/>
      <point x="504" y="3" type="line"/>
      <point x="421" y="-13"/>
      <point x="369" y="-55"/>
      <point x="369" y="-109" type="curve" smooth="yes"/>
      <point x="369" y="-158"/>
      <point x="413" y="-195"/>
    </contour>
    <contour>
      <point x="272" y="70" type="curve" smooth="yes" name="dv02"/>
      <point x="192" y="70"/>
      <point x="141" y="143.203"/>
      <point x="141" y="256.518" type="curve" smooth="yes"/>
      <point x="141" y="365.822"/>
      <point x="189" y="430"/>
      <point x="269" y="430" type="curve" smooth="yes" name="sv01"/>
      <point x="354" y="430"/>
      <point x="413" y="357.799"/>
      <point x="413" y="253.51" type="curve" smooth="yes"/>
      <point x="413" y="151.226"/>
      <point x="356" y="70"/>
    </contour>
    <contour>
      <point x="413" y="0" type="line" name="ab01"/>
      <point x="533" y="0" type="line"/>
      <point x="533" y="500" type="line" name="av01"/>
      <point x="413" y="500" type="line"/>
    </contour>
  </outline>
</glyph>
<glyph name="Iogonek" format="2">
  <advance width="326"/>
  <unicode hex="012E"/>
  <anchor x="163" y="-20" name="bottom"/>
  <anchor x="163" y="719" name="top"/>
  <anchor x="-13" y="500" name="topgr"/>
  <outline>
    <contour>
      <point x="103" y="0" type="line" name="ab01"/>
      <point x="223" y="0" type="line"/>
      <point x="223" y="700" type="line" name="at01"/>
      <point x="103" y="700" type="line"/>
    </contour>
    <contour>
      <point x="177" y="-205" type="curve"/>
      <point x="224" y="-182" type="line"/>
      <point x="180" y="-168"/>
      <point x="158" y="-137"/>
      <point x="158" y="-103" type="curve" smooth="yes"/>
      <point x="158" y="-66"/>
      <point x="183" y="-24"/>
      <point x="223" y="0" type="curve"/>
      <point x="200" y="3" type="line"/>
      <point x="117" y="-13"/>
      <point x="65" y="-55"/>
      <point x="65" y="-109" type="curve" smooth="yes"/>
      <point x="65" y="-158"/>
      <point x="109" y="-195"/>
    </contour>
  </outline>
</glyph>
<glyph name="iogonek" format="2">
  <advance width="272"/>
  <unicode hex="012F"/>
  <anchor x="136" y="-20" name="bottom"/>
  <anchor x="136" y="689" name="top"/>
  <outline>
    <contour>
      <point x="76" y="0" type="line"/>
      <point x="196" y="0" type="line"/>
      <point x="196" y="500" type="line"/>
      <point x="76" y="500" type="line"/>
    </contour>
    <contour>
      <point x="150" y="-205" type="curve"/>
      <point x="197" y="-182" type="line"/>
      <point x="153" y="-168"/>
      <point x="131" y="-137"/>
      <point x="131" y="-103" type="curve" smooth="yes"/>
      <point x="131" y="-66"/>
      <point x="156" y="-24"/>
      <point x="196" y="0" type="curve"/>
      <point x="173" y="3" type="line"/>
      <point x="90" y="-13"/>
      <point x="38" y="-55"/>
      <point x="38" y="-109" type="curve" smooth="yes"/>
      <point x="38" y="-158"/>
      <point x="82" y="-195"/>
    </contour>
    <contour>
      <point x="138" y="574" type="curve" smooth="yes" name="dv01"/>
      <point x="180" y="574"/>
      <point x="201" y="605"/>
      <point x="201" y="637" type="curve" smooth="yes"/>
      <point x="201" y="669"/>
      <point x="180" y="698"/>
      <point x="138" y="698" type="curve" smooth="yes" name="dv02"/>
      <point x="94" y="698"/>
      <point x="72" y="665"/>
      <point x="72" y="637" type="curve" smooth="yes"/>
      <point x="72" y="609"/>
      <point x="94" y="574"/>
    </contour>
  </outline>
</glyph>
<glyph name="kgreenlandic" format="2">
  <advance width="594"/>
  <unicode hex="0138"/>
  <outline>
    <contour>
      <point x="422" y="0" type="line" name="ab02"/>
      <point x="558" y="0" type="line"/>
      <point x="418" y="263" type="line"/>
      <point x="544" y="500" type="line" name="av02"/>
      <point x="429" y="500" type="line"/>
      <point x="341" y="311" type="line" name="iv02"/>
      <point x="88" y="311" type="line"/>
      <point x="95" y="222" type="line"/>
      <point x="323" y="222" type="line" name="iv01"/>
    </contour>
    <contour>
      <point x="74" y="0" type="line"/>
      <point x="194" y="0" type="line"/>
      <point x="194" y="500" type="line"/>
      <point x="74" y="500" type="line"/>
    </contour>
  </outline>
</glyph>
<glyph name="Lslash" format="2">
  <advance width="554"/>
  <unicode hex="0141"/>
  <outline>
    <contour>
      <point x="78" y="0" type="line" name="ab01"/>
      <point x="504" y="0" type="line"/>
      <point x="504" y="100" type="line" name="sv01"/>
      <point x="198" y="100" type="line"/>
      <point x="198" y="700" type="line" name="at01"/>
      <point x="78" y="700" type="line"/>
    </contour>
    <contour>
      <point x="0" y="231" type="line"/>
      <point x="369" y="481" type="line"/>
      <point x="369" y="530" type="line"/>
      <point x="0" y="280" type="line"/>
    </contour>
  </outline>
</glyph>
<glyph name="Scedilla" format="2">
  <advance width="600"/>
  <unicode hex="015E"/>
  <anchor x="284" y="-218" name="bottom"/>
  <anchor x="286" y="719" name="top"/>
  <outline>
    <contour>
      <point x="300" y="-20" type="curve" smooth="yes"/>
      <point x="455" y="-20"/>
      <point x="551" y="60.125"/>
      <point x="551" y="183.318" type="curve" smooth="yes"/>
      <point x="551" y="289.484"/>
      <point x="479.004" y="353.602"/>
      <point x="324" y="388.639" type="curve" smooth="yes"/>
      <point x="222.004" y="411.693"/>
      <point x="168" y="444.726"/>
      <point x="168" y="508.826" type="curve" smooth="yes"/>
      <point x="168" y="570.923"/>
      <point x="219" y="620"/>
      <point x="301" y="620" type="curve" smooth="yes"/>
      <point x="368" y="620"/>
      <point x="426" y="586.637"/>
      <point x="477" y="528" type="curve"/>
      <point x="548" y="599" type="line"/>
      <point x="484" y="679"/>
      <point x="397" y="720"/>
      <point x="292" y="720" type="curve" smooth="yes"/>
      <point x="141" y="720"/>
      <point x="48" y="634.867"/>
      <point x="48" y="505.665" type="curve" smooth="yes"/>
      <point x="48" y="393.49"/>
      <point x="118.967" y="326.226"/>
      <point x="290" y="290.329" type="curve" smooth="yes"/>
      <point x="390.967" y="269.137"/>
      <point x="434" y="242.254"/>
      <point x="434" y="188.169" type="curve" smooth="yes"/>
      <point x="434" y="125.07"/>
      <point x="377" y="80"/>
      <point x="291" y="80" type="curve" smooth="yes"/>
      <point x="218" y="80"/>
      <point x="160" y="113.363"/>
      <point x="109" y="172" type="curve"/>
      <point x="38" y="101" type="line"/>
      <point x="102" y="21"/>
      <point x="189" y="-20"/>
    </contour>
    <contour>
      <point x="273" y="-218" type="curve" smooth="yes"/>
      <point x="356" y="-218"/>
      <point x="403" y="-189"/>
      <point x="403" y="-136" type="curve" smooth="yes"/>
      <point x="403" y="-89"/>
      <point x="367" y="-64"/>
      <point x="307" y="-64" type="curve"/>
      <point x="349.784" y="13.546" type="line"/>
      <point x="276.784" y="13.546" type="line"/>
      <point x="224" y="-90" type="line"/>
      <point x="239" y="-88"/>
      <point x="250" y="-86"/>
      <point x="263" y="-86" type="curve" smooth="yes"/>
      <point x="298" y="-86"/>
      <point x="319" y="-101"/>
      <point x="319" y="-130" type="curve" smooth="yes"/>
      <point x="319" y="-158"/>
      <point x="299" y="-177"/>
      <point x="263" y="-177" type="curve" smooth="yes"/>
      <point x="245" y="-177"/>
      <point x="217" y="-172"/>
      <point x="196" y="-166" type="curve"/>
      <point x="177" y="-205" type="line"/>
      <point x="203" y="-211"/>
      <point x="232" y="-218"/>
    </contour>
  </outline>
</glyph>
<glyph name="scedilla" format="2">
  <advance width="487"/>
  <unicode hex="015F"/>
  <anchor x="223" y="-218" name="bottom"/>
  <anchor x="243" y="520" name="top"/>
  <outline>
    <contour>
      <point x="236" y="-20" type="curve" smooth="yes"/>
      <point x="350" y="-20"/>
      <point x="439" y="44.143"/>
      <point x="439" y="141.359" type="curve" smooth="yes"/>
      <point x="439" y="207.506"/>
      <point x="397.879" y="247.173"/>
      <point x="278" y="281.67" type="curve" smooth="yes"/>
      <point x="195.878" y="305.303"/>
      <point x="166" y="327.773"/>
      <point x="166" y="367.862" type="curve" smooth="yes"/>
      <point x="166" y="404.944"/>
      <point x="191" y="430"/>
      <point x="235" y="430" type="curve" smooth="yes"/>
      <point x="282" y="430"/>
      <point x="330" y="401.582"/>
      <point x="358" y="362" type="curve"/>
      <point x="426" y="430" type="line"/>
      <point x="386" y="480"/>
      <point x="316" y="520"/>
      <point x="229" y="520" type="curve" smooth="yes"/>
      <point x="118" y="520"/>
      <point x="46" y="454.855"/>
      <point x="46" y="366.659" type="curve" smooth="yes"/>
      <point x="46" y="291.492"/>
      <point x="97.878" y="234.906"/>
      <point x="226" y="201.292" type="curve" smooth="yes"/>
      <point x="288.881" y="184.794"/>
      <point x="319" y="167.216"/>
      <point x="319" y="132.138" type="curve" smooth="yes"/>
      <point x="319" y="96.058"/>
      <point x="287" y="70"/>
      <point x="234" y="70" type="curve" smooth="yes"/>
      <point x="180" y="70"/>
      <point x="132" y="98.418"/>
      <point x="104" y="138" type="curve"/>
      <point x="36" y="70" type="line"/>
      <point x="76" y="20"/>
      <point x="146" y="-20"/>
    </contour>
    <contour>
      <point x="212" y="-218" type="curve" smooth="yes"/>
      <point x="295" y="-218"/>
      <point x="342" y="-189"/>
      <point x="342" y="-136" type="curve" smooth="yes"/>
      <point x="342" y="-89"/>
      <point x="306" y="-64"/>
      <point x="246" y="-64" type="curve"/>
      <point x="288.784" y="13.546" type="line"/>
      <point x="215.784" y="13.546" type="line"/>
      <point x="163" y="-90" type="line"/>
      <point x="178" y="-88"/>
      <point x="189" y="-86"/>
      <point x="202" y="-86" type="curve" smooth="yes"/>
      <point x="237" y="-86"/>
      <point x="258" y="-101"/>
      <point x="258" y="-130" type="curve" smooth="yes"/>
      <point x="258" y="-158"/>
      <point x="238" y="-177"/>
      <point x="202" y="-177" type="curve" smooth="yes"/>
      <point x="184" y="-177"/>
      <point x="156" y="-172"/>
      <point x="135" y="-166" type="curve"/>
      <point x="116" y="-205" type="line"/>
      <point x="142" y="-211"/>
      <point x="171" y="-218"/>
    </contour>
  </outline>
</glyph>
<glyph name="uni0162" format="2">
  <advance width="648"/>
  <unicode hex="0162"/>
  <anchor x="304" y="-218" name="bottom"/>
  <anchor x="324" y="719" name="top"/>
  <outline>
    <contour>
      <point x="264" y="0" type="line" name="ab01"/>
      <point x="384" y="0" type="line"/>
      <point x="384" y="600" type="line" name="sv02"/>
      <point x="617" y="600" type="line" name="sv03"/>
      <point x="617" y="700" type="line"/>
      <point x="31" y="700" type="line" name="at01"/>
      <point x="31" y="600" type="line" name="sv01"/>
      <point x="264" y="600" type="line"/>
    </contour>
    <contour>
      <point x="293" y="-218" type="curve" smooth="yes"/>
      <point x="376" y="-218"/>
      <point x="423" y="-189"/>
      <point x="423" y="-136" type="curve" smooth="yes"/>
      <point x="423" y="-89"/>
      <point x="387" y="-64"/>
      <point x="327" y="-64" type="curve"/>
      <point x="369.784" y="13.546" type="line"/>
      <point x="296.784" y="13.546" type="line"/>
      <point x="244" y="-90" type="line"/>
      <point x="259" y="-88"/>
      <point x="270" y="-86"/>
      <point x="283" y="-86" type="curve" smooth="yes"/>
      <point x="318" y="-86"/>
      <point x="339" y="-101"/>
      <point x="339" y="-130" type="curve" smooth="yes"/>
      <point x="339" y="-158"/>
      <point x="319" y="-177"/>
      <point x="283" y="-177" type="curve" smooth="yes"/>
      <point x="265" y="-177"/>
      <point x="237" y="-172"/>
      <point x="216" y="-166" type="curve"/>
      <point x="197" y="-205" type="line"/>
      <point x="223" y="-211"/>
      <point x="252" y="-218"/>
    </contour>
  </outline>
</glyph>
<glyph name="uni0163" format="2">
  <advance width="395"/>
  <unicode hex="0163"/>
  <anchor x="200" y="-218" name="bottom"/>
  <anchor x="167" y="630" name="top"/>
  <anchor x="262" y="700" name="topright"/>
  <outline>
    <contour>
      <point x="254" y="-20" type="curve" smooth="yes" name="dv01"/>
      <point x="286.27" y="-20"/>
      <point x="316.25" y="-15.36"/>
      <point x="368.83" y="6.36" type="curve"/>
      <point x="345.41" y="93.91" type="line"/>
      <point x="326.55" y="81.72"/>
      <point x="298.32" y="73"/>
      <point x="273" y="73" type="curve" smooth="yes" name="dv02"/>
      <point x="237" y="73"/>
      <point x="225" y="90"/>
      <point x="225" y="161" type="curve" smooth="yes"/>
      <point x="225" y="620" type="line" name="ab01"/>
      <point x="105" y="620" type="line"/>
      <point x="105" y="132" type="line" smooth="yes"/>
      <point x="105" y="30"/>
      <point x="147" y="-20"/>
    </contour>
    <contour>
      <point x="189" y="-218" type="curve" smooth="yes"/>
      <point x="272" y="-218"/>
      <point x="319" y="-189"/>
      <point x="319" y="-136" type="curve" smooth="yes"/>
      <point x="319" y="-89"/>
      <point x="283" y="-64"/>
      <point x="223" y="-64" type="curve"/>
      <point x="265.784" y="13.546" type="line"/>
      <point x="192.784" y="13.546" type="line"/>
      <point x="140" y="-90" type="line"/>
      <point x="155" y="-88"/>
      <point x="166" y="-86"/>
      <point x="179" y="-86" type="curve" smooth="yes"/>
      <point x="214" y="-86"/>
      <point x="235" y="-101"/>
      <point x="235" y="-130" type="curve" smooth="yes"/>
      <point x="235" y="-158"/>
      <point x="215" y="-177"/>
      <point x="179" y="-177" type="curve" smooth="yes"/>
      <point x="161" y="-177"/>
      <point x="133" y="-172"/>
      <point x="112" y="-166" type="curve"/>
      <point x="93" y="-205" type="line"/>
      <point x="119" y="-211"/>
      <point x="148" y="-218"/>
    </contour>
    <contour>
      <point x="13" y="410" type="line" name="dv03"/>
      <point x="355" y="410" type="line"/>
      <point x="355" y="500" type="line"/>
      <point x="13" y="500" type="line" name="dv04"/>
    </contour>
  </outline>
</glyph>
<glyph name="uni018F" format="2">
  <advance width="759"/>
  <unicode hex="018F"/>
  <anchor x="380" y="-20" name="bottom"/>
  <anchor x="380" y="719" name="top"/>
  <outline>
    <contour>
      <point x="380.25" y="-20" type="curve" smooth="yes" name="dv01"/>
      <point x="583.099" y="-20"/>
      <point x="716" y="129"/>
      <point x="716" y="356" type="curve" smooth="yes" name="sh03"/>
      <point x="716" y="582"/>
      <point x="585" y="720"/>
      <point x="369" y="720" type="curve" smooth="yes" name="dv04"/>
      <point x="254" y="720"/>
      <point x="165" y="681"/>
      <point x="99" y="599" type="curve"/>
      <point x="170" y="528" type="line"/>
      <point x="223" y="589.67"/>
      <point x="285" y="620"/>
      <point x="369" y="620" type="curve" smooth="yes" name="dv03"/>
      <point x="515" y="620"/>
      <point x="597" y="527.658"/>
      <point x="597" y="352.007" type="curve" smooth="yes"/>
      <point x="597" y="178.364"/>
      <point x="516.908" y="80"/>
      <point x="380.751" y="80" type="curve" smooth="yes" name="dv02"/>
      <point x="254.605" y="80"/>
      <point x="173.512" y="165.374"/>
      <point x="163.5" y="308" type="curve" name="sh02"/>
      <point x="609" y="308" type="line" name="dv05"/>
      <point x="608" y="408" type="line" name="dv06"/>
      <point x="47" y="408" type="line" name="sh04"/>
      <point x="45.25" y="393"/>
      <point x="43.5" y="371"/>
      <point x="43.5" y="345" type="curve" smooth="yes" name="sh01"/>
      <point x="43.5" y="129"/>
      <point x="177.4" y="-20"/>
    </contour>
  </outline>
</glyph>
<glyph name="florin" format="2">
  <advance width="533"/>
  <unicode hex="0192"/>
  <outline>
    <contour>
      <point x="45" y="-17" type="curve" smooth="yes"/>
      <point x="211" y="-17"/>
      <point x="279" y="82"/>
      <point x="279" y="375" type="curve" smooth="yes"/>
      <point x="279" y="570"/>
      <point x="309" y="628"/>
      <point x="392" y="628" type="curve" smooth="yes"/>
      <point x="428" y="628"/>
      <point x="470" y="617"/>
      <point x="518" y="599" type="curve"/>
      <point x="534" y="696" type="line"/>
      <point x="475" y="713"/>
      <point x="440" y="719"/>
      <point x="397" y="719" type="curve" smooth="yes"/>
      <point x="227" y="719"/>
      <point x="157" y="627"/>
      <point x="157" y="350" type="curve" smooth="yes"/>
      <point x="157" y="135"/>
      <point x="115" y="74"/>
      <point x="47" y="74" type="curve" smooth="yes"/>
      <point x="24" y="74"/>
      <point x="-13" y="81"/>
      <point x="-75" y="100" type="curve"/>
      <point x="-90" y="6" type="line"/>
      <point x="-30" y="-11"/>
      <point x="4" y="-17"/>
    </contour>
    <contour>
      <point x="19" y="390" type="line"/>
      <point x="485" y="390" type="line"/>
      <point x="485" y="480" type="line"/>
      <point x="19" y="480" type="line"/>
    </contour>
  </outline>
</glyph>
<glyph name="uni0237" format="2">
  <advance width="290"/>
  <unicode hex="0237"/>
  <anchor x="100" y="-217" name="bottom"/>
  <anchor x="162" y="520" name="top"/>
  <outline>
    <contour>
      <point x="93.459" y="-221" type="curve" smooth="yes" name="dv01"/>
      <point x="175.514" y="-221"/>
      <point x="221" y="-174"/>
      <point x="221" y="-68" type="curve" smooth="yes"/>
      <point x="221" y="500" type="line"/>
      <point x="101" y="500" type="line" name="av01"/>
      <point x="101" y="-39" type="line" smooth="yes"/>
      <point x="101" y="-106"/>
      <point x="94.9" y="-128"/>
      <point x="60.59" y="-128" type="curve" smooth="yes" name="dv02"/>
      <point x="47.628" y="-128"/>
      <point x="25" y="-123"/>
      <point x="3" y="-114" type="curve"/>
      <point x="-22" y="-198" type="line"/>
      <point x="23" y="-212"/>
      <point x="35.486" y="-221"/>
    </contour>
  </outline>
</glyph>
<glyph name="uni0259" format="2">
  <advance width="613"/>
  <unicode hex="0259"/>
  <anchor x="306" y="-20" name="bottom"/>
  <anchor x="306" y="520" name="top"/>
  <outline>
    <contour>
      <point x="301" y="-20" type="curve" smooth="yes" name="dv01"/>
      <point x="458" y="-20"/>
      <point x="554" y="89"/>
      <point x="554" y="256" type="curve" smooth="yes" name="sh02"/>
      <point x="554" y="421"/>
      <point x="460" y="520"/>
      <point x="301" y="520" type="curve" smooth="yes"/>
      <point x="203" y="520"/>
      <point x="127" y="483"/>
      <point x="85" y="430" type="curve"/>
      <point x="153" y="362" type="line"/>
      <point x="186.422" y="406.657"/>
      <point x="247" y="430"/>
      <point x="298" y="430" type="curve" smooth="yes"/>
      <point x="378" y="430"/>
      <point x="428.211" y="374.593"/>
      <point x="431" y="294" type="curve" name="sh03"/>
      <point x="53" y="294" type="line" name="dv04"/>
      <point x="51" y="279"/>
      <point x="50" y="270"/>
      <point x="50" y="253" type="curve" smooth="yes" name="sh01"/>
      <point x="50" y="84"/>
      <point x="147" y="-20"/>
    </contour>
    <contour>
      <point x="303" y="70" type="curve" smooth="yes" name="dv02"/>
      <point x="226" y="70"/>
      <point x="179" y="122"/>
      <point x="171" y="214" type="curve" name="dv03"/>
      <point x="433" y="214" type="line" name="ah01"/>
      <point x="425" y="120.35"/>
      <point x="379" y="70"/>
    </contour>
  </outline>
</glyph>
<glyph name="uni02BC" format="2">
  <advance width="287"/>
  <unicode hex="02BC"/>
  <outline>
    <contour>
      <point x="73" y="500" type="line"/>
      <point x="157" y="500" type="line"/>
      <point x="238" y="701" type="line"/>
      <point x="124" y="701" type="line"/>
    </contour>
  </outline>
</glyph>
<glyph name="tildecomb" format="2">
  <advance width="0"/>
  <unicode hex="0303"/>
  <anchor x="222" y="500" name="_top"/>
  <anchor x="222" y="670" name="top"/>
  <outline>
    <contour>
      <point x="285" y="578" type="curve" smooth="yes"/>
      <point x="342" y="578"/>
      <point x="387" y="614"/>
      <point x="387" y="685" type="curve"/>
      <point x="317" y="685" type="line"/>
      <point x="315" y="658"/>
      <point x="307" y="643"/>
      <point x="282" y="643" type="curve" smooth="yes"/>
      <point x="240" y="643"/>
      <point x="209" y="687"/>
      <point x="146" y="687" type="curve" smooth="yes"/>
      <point x="93" y="687"/>
      <point x="52" y="655"/>
      <point x="52" y="582" type="curve"/>
      <point x="122" y="582" type="line"/>
      <point x="124" y="610"/>
      <point x="133" y="622"/>
      <point x="155" y="622" type="curve" smooth="yes"/>
      <point x="198" y="622"/>
      <point x="221" y="578"/>
    </contour>
  </outline>
</glyph>
<glyph name="uni0306" format="2">
  <advance width="0"/>
  <unicode hex="0306"/>
  <anchor x="168" y="500" name="_top"/>
  <anchor x="168" y="680" name="top"/>
  <outline>
    <contour>
      <point x="168" y="553" type="curve" smooth="yes"/>
      <point x="247" y="553"/>
      <point x="296.581" y="610.967"/>
      <point x="305" y="701" type="curve"/>
      <point x="235" y="701" type="line"/>
      <point x="231" y="650.864"/>
      <point x="205" y="614"/>
      <point x="168" y="614" type="curve" smooth="yes"/>
      <point x="132" y="614"/>
      <point x="108" y="647.915"/>
      <point x="104" y="701" type="curve"/>
      <point x="34" y="701" type="line"/>
      <point x="43.643" y="604.8"/>
      <point x="94" y="553"/>
    </contour>
  </outline>
</glyph>
<glyph name="uni0307" format="2">
  <advance width="0"/>
  <unicode hex="0307"/>
  <anchor x="105" y="500" name="_top"/>
  <anchor x="105" y="669" name="top"/>
  <outline>
    <contour>
      <point x="107" y="554" type="curve" smooth="yes" name="dv01"/>
      <point x="149" y="554"/>
      <point x="170" y="585"/>
      <point x="170" y="617" type="curve" smooth="yes"/>
      <point x="170" y="649"/>
      <point x="149" y="678"/>
      <point x="107" y="678" type="curve" smooth="yes" name="dv02"/>
      <point x="63" y="678"/>
      <point x="41" y="645"/>
      <point x="41" y="617" type="curve" smooth="yes"/>
      <point x="41" y="589"/>
      <point x="63" y="554"/>
    </contour>
  </outline>
</glyph>
<glyph name="uni0308" format="2">
  <advance width="0"/>
  <unicode hex="0308"/>
  <anchor x="204" y="500" name="_top"/>
  <anchor x="204" y="500" name="_topgr"/>
  <anchor x="204" y="647" name="top"/>
  <outline>
    <contour>
      <point x="102.757" y="557.661" type="curve" smooth="yes" name="dv01"/>
      <point x="142.277" y="557.661"/>
      <point x="161.037" y="586.83"/>
      <point x="161.037" y="616" type="curve" smooth="yes"/>
      <point x="161.037" y="647.052"/>
      <point x="142.277" y="674.339"/>
      <point x="102.757" y="674.339" type="curve" smooth="yes" name="dv02"/>
      <point x="61.354" y="674.339"/>
      <point x="40.653" y="643.288"/>
      <point x="40.653" y="616" type="curve" smooth="yes"/>
      <point x="40.653" y="589.653"/>
      <point x="61.354" y="557.661"/>
    </contour>
    <contour>
      <point x="308.066" y="557.661" type="curve" smooth="yes" name="dv01.1"/>
      <point x="347.587" y="557.661"/>
      <point x="366.347" y="586.83"/>
      <point x="366.347" y="616" type="curve" smooth="yes"/>
      <point x="366.347" y="647.052"/>
      <point x="347.587" y="674.339"/>
      <point x="308.066" y="674.339" type="curve" smooth="yes" name="dv02.1"/>
      <point x="266.664" y="674.339"/>
      <point x="245.963" y="643.288"/>
      <point x="245.963" y="616" type="curve" smooth="yes"/>
      <point x="245.963" y="589.653"/>
      <point x="266.664" y="557.661"/>
    </contour>
  </outline>
</glyph>
<glyph name="uni030A" format="2">
  <advance width="0"/>
  <unicode hex="030A"/>
  <anchor x="135" y="500" name="_top"/>
  <anchor x="135" y="723" name="top"/>
  <outline>
    <contour>
      <point x="135" y="520" type="curve" smooth="yes"/>
      <point x="200" y="520"/>
      <point x="243" y="559.829"/>
      <point x="243" y="622" type="curve" smooth="yes"/>
      <point x="243" y="683.2"/>
      <point x="200" y="724"/>
      <point x="135" y="724" type="curve" smooth="yes"/>
      <point x="70" y="724"/>
      <point x="27" y="683.2"/>
      <point x="27" y="622" type="curve" smooth="yes"/>
      <point x="27" y="559.829"/>
      <point x="70" y="520"/>
    </contour>
    <contour>
      <point x="135" y="569" type="curve" smooth="yes"/>
      <point x="102" y="569"/>
      <point x="80" y="588.875"/>
      <point x="80" y="622" type="curve" smooth="yes"/>
      <point x="80" y="654.179"/>
      <point x="102" y="675"/>
      <point x="135" y="675" type="curve" smooth="yes"/>
      <point x="168" y="675"/>
      <point x="190" y="654.179"/>
      <point x="190" y="622" type="curve" smooth="yes"/>
      <point x="190" y="589.821"/>
      <point x="168" y="569"/>
    </contour>
  </outline>
</glyph>
<glyph name="uni030B" format="2">
  <advance width="0"/>
  <unicode hex="030B"/>
  <anchor x="148" y="500" name="_top"/>
  <anchor x="214" y="702" name="top"/>
  <outline>
    <contour>
      <point x="206" y="551" type="line"/>
      <point x="262" y="551" type="line"/>
      <point x="362" y="700" type="line"/>
      <point x="266" y="700" type="line"/>
    </contour>
    <contour>
      <point x="33" y="551" type="line"/>
      <point x="89" y="551" type="line"/>
      <point x="189" y="700" type="line"/>
      <point x="93" y="700" type="line"/>
    </contour>
  </outline>
</glyph>
<glyph name="uni030C" format="2">
  <advance width="0"/>
  <unicode hex="030C"/>
  <anchor x="173" y="500" name="_top"/>
  <anchor x="173" y="702" name="top"/>
  <outline>
    <contour>
      <point x="129" y="550" type="line"/>
      <point x="217" y="550" type="line"/>
      <point x="319" y="701" type="line"/>
      <point x="234" y="701" type="line"/>
      <point x="173" y="595" type="line"/>
      <point x="112" y="701" type="line"/>
      <point x="27" y="701" type="line"/>
    </contour>
  </outline>
</glyph>
<glyph name="uni0326" format="2">
  <advance width="0"/>
  <unicode hex="0326"/>
  <anchor x="123" y="0" name="_bottom"/>
  <anchor x="123" y="-248" name="bottom"/>
  <outline>
    <contour>
      <point x="74" y="-261" type="curve"/>
      <point x="84" y="-277" type="line"/>
      <point x="138" y="-260.083"/>
      <point x="177" y="-205.351"/>
      <point x="177" y="-143.654" type="curve" smooth="yes"/>
      <point x="177" y="-99.868"/>
      <point x="157" y="-73"/>
      <point x="120" y="-73" type="curve" smooth="yes"/>
      <point x="89" y="-73"/>
      <point x="68" y="-92.802"/>
      <point x="68" y="-124.485" type="curve" smooth="yes"/>
      <point x="68" y="-155.178"/>
      <point x="88" y="-173"/>
      <point x="116" y="-173" type="curve" smooth="yes"/>
      <point x="132" y="-173"/>
      <point x="146" y="-167"/>
      <point x="153" y="-160" type="curve"/>
      <point x="150" y="-203"/>
      <point x="118" y="-239"/>
    </contour>
  </outline>
</glyph>
<glyph name="dieresistonos" format="2">
  <advance width="333"/>
  <unicode hex="0385"/>
  <anchor x="166" y="500" name="_topgr"/>
  <anchor x="166" y="688" name="topgr"/>
  <outline>
    <contour>
      <point x="124" y="549" type="line"/>
      <point x="178" y="549" type="line"/>
      <point x="229" y="712" type="line"/>
      <point x="155" y="712" type="line"/>
    </contour>
    <contour>
      <point x="53.785" y="562.399" type="curve" smooth="yes"/>
      <point x="83.042" y="562.399"/>
      <point x="98.585" y="584.342"/>
      <point x="98.585" y="607.199" type="curve" smooth="yes"/>
      <point x="98.585" y="630.971"/>
      <point x="83.042" y="652"/>
      <point x="53.785" y="652" type="curve" smooth="yes"/>
      <point x="24.527" y="652"/>
      <point x="8.984" y="628.228"/>
      <point x="8.984" y="607.199" type="curve" smooth="yes"/>
      <point x="8.984" y="587.085"/>
      <point x="24.527" y="562.399"/>
    </contour>
    <contour>
      <point x="281.215" y="562.399" type="curve" smooth="yes"/>
      <point x="310.473" y="562.399"/>
      <point x="326.016" y="584.342"/>
      <point x="326.016" y="607.199" type="curve" smooth="yes"/>
      <point x="326.016" y="630.971"/>
      <point x="310.473" y="652"/>
      <point x="281.215" y="652" type="curve" smooth="yes"/>
      <point x="251.958" y="652"/>
      <point x="236.415" y="628.228"/>
      <point x="236.415" y="607.199" type="curve" smooth="yes"/>
      <point x="236.415" y="587.085"/>
      <point x="251.958" y="562.399"/>
    </contour>
  </outline>
</glyph>
<glyph name="anoteleia" format="2">
  <advance width="262"/>
  <unicode hex="0387"/>
  <outline>
    <contour>
      <point x="131" y="361" type="curve" smooth="yes"/>
      <point x="169" y="361"/>
      <point x="199" y="392"/>
      <point x="199" y="430" type="curve" smooth="yes"/>
      <point x="199" y="467"/>
      <point x="169" y="496"/>
      <point x="131" y="496" type="curve" smooth="yes"/>
      <point x="92" y="496"/>
      <point x="63" y="467"/>
      <point x="63" y="430" type="curve" smooth="yes"/>
      <point x="63" y="392"/>
      <point x="92" y="361"/>
    </contour>
  </outline>
</glyph>
<glyph name="uni0394" format="2">
  <advance width="655"/>
  <unicode hex="0394"/>
  <outline>
    <contour>
      <point x="507" y="0" type="line"/>
      <point x="633" y="0" type="line"/>
      <point x="406" y="700" type="line"/>
      <point x="293" y="700" type="line"/>
    </contour>
    <contour>
      <point x="133" y="0" type="line" name="dv01"/>
      <point x="519" y="0" type="line"/>
      <point x="485" y="100" type="line" name="dv03"/>
      <point x="167" y="100" type="line" name="dv02"/>
    </contour>
    <contour>
      <point x="22" y="0" type="line"/>
      <point x="148" y="0" type="line"/>
      <point x="362" y="700" type="line"/>
      <point x="249" y="700" type="line"/>
    </contour>
  </outline>
</glyph>
<glyph name="Theta" format="2">
  <advance width="785"/>
  <unicode hex="0398"/>
  <anchor x="398" y="-20" name="bottom"/>
  <anchor x="523" y="-1" name="ogonek"/>
  <anchor x="398" y="719" name="top"/>
  <anchor x="12" y="500" name="topgr"/>
  <outline>
    <contour>
      <point x="397" y="-20" type="curve" smooth="yes" name="dv01"/>
      <point x="599" y="-20"/>
      <point x="742" y="107"/>
      <point x="742" y="350" type="curve" smooth="yes" name="dv06"/>
      <point x="742" y="575"/>
      <point x="612" y="720"/>
      <point x="398" y="720" type="curve" smooth="yes" name="dv04"/>
      <point x="192" y="720"/>
      <point x="53" y="586"/>
      <point x="53" y="350" type="curve" smooth="yes"/>
      <point x="53" y="109"/>
      <point x="196" y="-20"/>
    </contour>
    <contour>
      <point x="400.938" y="84" type="curve" smooth="yes" name="dv02"/>
      <point x="262.45" y="84"/>
      <point x="177" y="183.84"/>
      <point x="177" y="349.967" type="curve" smooth="yes"/>
      <point x="177" y="518.071"/>
      <point x="255.575" y="616"/>
      <point x="393.08" y="616" type="curve" smooth="yes" name="dv03"/>
      <point x="534.514" y="616"/>
      <point x="618" y="520.126"/>
      <point x="618" y="350.045" type="curve" smooth="yes" name="dv05"/>
      <point x="618" y="184.907"/>
      <point x="537.461" y="84"/>
    </contour>
    <contour>
      <point x="252.422" y="348" type="line"/>
      <point x="542.578" y="348" type="line"/>
      <point x="542.578" y="384" type="line"/>
      <point x="252.422" y="384" type="line"/>
    </contour>
  </outline>
</glyph>
<glyph name="Lambda" format="2">
  <advance width="655"/>
  <unicode hex="039B"/>
  <anchor x="328" y="-20" name="bottom"/>
  <anchor x="328" y="719" name="top"/>
  <outline>
    <contour>
      <point x="298" y="700" type="line"/>
      <point x="507" y="0" type="line"/>
      <point x="633" y="0" type="line"/>
      <point x="406" y="700" type="line"/>
    </contour>
    <contour>
      <point x="249" y="700" type="line"/>
      <point x="22" y="0" type="line"/>
      <point x="148" y="0" type="line"/>
      <point x="357" y="700" type="line"/>
    </contour>
  </outline>
</glyph>
<glyph name="Xi" format="2">
  <advance width="593"/>
  <unicode hex="039E"/>
  <outline>
    <contour>
      <point x="75" y="600" type="line"/>
      <point x="538" y="600" type="line"/>
      <point x="538" y="700" type="line"/>
      <point x="75" y="700" type="line"/>
    </contour>
    <contour>
      <point x="75" y="0" type="line"/>
      <point x="538" y="0" type="line"/>
      <point x="538" y="100" type="line"/>
      <point x="75" y="100" type="line"/>
    </contour>
    <contour>
      <point x="131" y="301" type="line"/>
      <point x="483" y="301" type="line"/>
      <point x="483" y="397" type="line"/>
      <point x="131" y="397" type="line"/>
    </contour>
  </outline>
</glyph>
<glyph name="Sigma" format="2">
  <advance width="570"/>
  <unicode hex="03A3"/>
  <outline>
    <contour>
      <point x="31" y="0" type="line"/>
      <point x="514" y="0" type="line"/>
      <point x="514" y="100" type="line"/>
      <point x="205" y="100" type="line"/>
      <point x="415" y="350" type="line"/>
      <point x="205" y="600" type="line"/>
      <point x="514" y="600" type="line"/>
      <point x="514" y="700" type="line"/>
      <point x="31" y="700" type="line"/>
      <point x="31" y="632" type="line"/>
      <point x="268" y="350" type="line"/>
      <point x="31" y="68" type="line"/>
    </contour>
  </outline>
</glyph>
<glyph name="Psi" format="2">
  <advance width="883"/>
  <unicode hex="03A8"/>
  <anchor x="442" y="720" name="topgr"/>
  <outline>
    <contour>
      <point x="441" y="172" type="curve" smooth="yes"/>
      <point x="674" y="172"/>
      <point x="813" y="272"/>
      <point x="813" y="440" type="curve" smooth="yes"/>
      <point x="813" y="701" type="line"/>
      <point x="693" y="701" type="line"/>
      <point x="693" y="434" type="line" smooth="yes"/>
      <point x="693" y="325"/>
      <point x="614" y="274"/>
      <point x="445" y="274" type="curve" smooth="yes"/>
      <point x="274" y="274"/>
      <point x="190" y="327"/>
      <point x="190" y="434" type="curve" smooth="yes"/>
      <point x="190" y="701" type="line"/>
      <point x="70" y="701" type="line"/>
      <point x="70" y="440" type="line" smooth="yes"/>
      <point x="70" y="273"/>
      <point x="209" y="172"/>
    </contour>
    <contour>
      <point x="381" y="0" type="line"/>
      <point x="501" y="0" type="line"/>
      <point x="501" y="700" type="line"/>
      <point x="381" y="700" type="line"/>
    </contour>
  </outline>
</glyph>
<glyph name="alpha" format="2">
  <advance width="631"/>
  <unicode hex="03B1"/>
  <anchor x="297" y="520" name="topgr"/>
  <outline>
    <contour>
      <point x="250" y="-20" type="curve" smooth="yes"/>
      <point x="378.956" y="-20"/>
      <point x="482.199" y="99.994"/>
      <point x="536.096" y="255.754" type="curve" smooth="yes"/>
      <point x="562.445" y="331.902"/>
      <point x="577" y="416.598"/>
      <point x="577" y="500" type="curve"/>
      <point x="457" y="500" type="line"/>
      <point x="457" y="430.621"/>
      <point x="457.325" y="347.25"/>
      <point x="446.951" y="272.463" type="curve" smooth="yes"/>
      <point x="431.605" y="161.841"/>
      <point x="392.848" y="70"/>
      <point x="295" y="70" type="curve" smooth="yes"/>
      <point x="209" y="70"/>
      <point x="157" y="140"/>
      <point x="157" y="253" type="curve" smooth="yes"/>
      <point x="157" y="363"/>
      <point x="206" y="430"/>
      <point x="291" y="430" type="curve" smooth="yes"/>
      <point x="370.958" y="430"/>
      <point x="412.634" y="371.331"/>
      <point x="434.356" y="291.404" type="curve" smooth="yes"/>
      <point x="458.275" y="203.396"/>
      <point x="458" y="89.614"/>
      <point x="458" y="0" type="curve"/>
      <point x="577" y="0" type="line"/>
      <point x="577" y="114.695"/>
      <point x="557.486" y="223.863"/>
      <point x="520.037" y="312.292" type="curve" smooth="yes"/>
      <point x="467.369" y="436.657"/>
      <point x="379.226" y="520"/>
      <point x="260" y="520" type="curve" smooth="yes"/>
      <point x="131" y="520"/>
      <point x="37" y="423"/>
      <point x="37" y="255" type="curve" smooth="yes"/>
      <point x="37" y="90"/>
      <point x="127" y="-20"/>
    </contour>
  </outline>
</glyph>
<glyph name="beta" format="2">
  <advance width="630"/>
  <unicode hex="03B2"/>
  <anchor x="315" y="721" name="topgr"/>
  <outline>
    <contour>
      <point x="84" y="516" type="curve" smooth="yes"/>
      <point x="84" y="-200" type="line"/>
      <point x="204" y="-200" type="line"/>
      <point x="204" y="483" type="line" smooth="yes"/>
      <point x="204" y="588"/>
      <point x="246" y="629"/>
      <point x="321" y="629" type="curve" smooth="yes"/>
      <point x="396" y="629"/>
      <point x="439" y="599"/>
      <point x="439" y="525" type="curve" smooth="yes"/>
      <point x="439" y="442"/>
      <point x="406" y="398"/>
      <point x="335" y="398" type="curve" smooth="yes"/>
      <point x="268" y="398" type="line"/>
      <point x="268" y="318" type="line"/>
      <point x="346" y="318" type="line" smooth="yes"/>
      <point x="423" y="318"/>
      <point x="470" y="272"/>
      <point x="470" y="198" type="curve" smooth="yes"/>
      <point x="470" y="116"/>
      <point x="414" y="70"/>
      <point x="335.133" y="70" type="curve" smooth="yes"/>
      <point x="258" y="70"/>
      <point x="204" y="114"/>
      <point x="204" y="179" type="curve"/>
      <point x="182" y="90" type="line"/>
      <point x="209" y="24"/>
      <point x="280" y="-20"/>
      <point x="368.172" y="-20" type="curve" smooth="yes"/>
      <point x="490" y="-20"/>
      <point x="590" y="63.31"/>
      <point x="590" y="187.282" type="curve" smooth="yes"/>
      <point x="590" y="282.493"/>
      <point x="532" y="342"/>
      <point x="415" y="363" type="curve"/>
      <point x="510" y="382"/>
      <point x="559" y="437.494"/>
      <point x="559" y="529.311" type="curve" smooth="yes"/>
      <point x="559" y="647.362"/>
      <point x="478" y="719"/>
      <point x="326" y="719" type="curve" smooth="yes"/>
      <point x="174" y="719"/>
      <point x="84" y="648"/>
    </contour>
  </outline>
</glyph>
<glyph name="delta" format="2">
  <advance width="578"/>
  <unicode hex="03B4"/>
  <anchor x="289" y="721" name="topgr"/>
  <outline>
    <contour>
      <point x="290" y="-20" type="curve" smooth="yes"/>
      <point x="445" y="-20"/>
      <point x="538" y="75"/>
      <point x="538" y="226" type="curve" smooth="yes"/>
      <point x="538" y="376"/>
      <point x="446" y="467"/>
      <point x="290" y="467" type="curve" smooth="yes"/>
      <point x="129" y="467"/>
      <point x="40" y="369"/>
      <point x="40" y="226" type="curve" smooth="yes"/>
      <point x="40" y="82"/>
      <point x="130" y="-20"/>
    </contour>
    <contour>
      <point x="287" y="70" type="curve" smooth="yes"/>
      <point x="201" y="70"/>
      <point x="160" y="123"/>
      <point x="160" y="224" type="curve" smooth="yes"/>
      <point x="160" y="326"/>
      <point x="202" y="377"/>
      <point x="284" y="377" type="curve" smooth="yes"/>
      <point x="379" y="377"/>
      <point x="418" y="307"/>
      <point x="418" y="219" type="curve" smooth="yes"/>
      <point x="418" y="129"/>
      <point x="377" y="70"/>
    </contour>
    <contour>
      <point x="288" y="438" type="curve"/>
      <point x="371" y="457" type="line"/>
      <point x="247" y="493.208"/>
      <point x="222" y="528.416"/>
      <point x="222" y="566.636" type="curve" smooth="yes"/>
      <point x="222" y="604.856"/>
      <point x="247" y="630"/>
      <point x="293" y="630" type="curve" smooth="yes"/>
      <point x="338" y="630"/>
      <point x="382" y="604.561"/>
      <point x="414" y="572" type="curve"/>
      <point x="482" y="640" type="line"/>
      <point x="438" y="683"/>
      <point x="372" y="720"/>
      <point x="287" y="720" type="curve" smooth="yes"/>
      <point x="174" y="720"/>
      <point x="102" y="655"/>
      <point x="102" y="572" type="curve" smooth="yes"/>
      <point x="102" y="489"/>
      <point x="174" y="446"/>
    </contour>
  </outline>
</glyph>
<glyph name="eta" format="2">
  <advance width="601"/>
  <unicode hex="03B7"/>
  <anchor x="290" y="520" name="topgr"/>
  <outline>
    <contour>
      <point x="426" y="279.522" type="curve" smooth="yes"/>
      <point x="426" y="-200" type="line" name="ab01"/>
      <point x="546" y="-200" type="line"/>
      <point x="546" y="304" type="line" smooth="yes"/>
      <point x="546" y="448"/>
      <point x="494.551" y="520"/>
      <point x="383.42" y="520" type="curve" smooth="yes" name="at01"/>
      <point x="280.522" y="520"/>
      <point x="211.58" y="459"/>
      <point x="191" y="370" type="curve"/>
      <point x="192" y="287" type="line"/>
      <point x="199" y="217" type="line" name="iv01"/>
      <point x="199" y="345.204"/>
      <point x="247.12" y="430"/>
      <point x="339.175" y="430" type="curve" smooth="yes" name="sv01"/>
      <point x="404.032" y="430"/>
      <point x="426" y="388.869"/>
    </contour>
    <contour>
      <point x="79" y="356" type="curve" smooth="yes"/>
      <point x="79" y="0" type="line"/>
      <point x="199" y="0" type="line"/>
      <point x="199" y="384" type="line" smooth="yes"/>
      <point x="199" y="482"/>
      <point x="150" y="520"/>
      <point x="13" y="520" type="curve"/>
      <point x="13" y="430" type="line"/>
      <point x="50" y="430"/>
      <point x="79" y="416"/>
    </contour>
  </outline>
</glyph>
<glyph name="theta" format="2">
  <advance width="606"/>
  <unicode hex="03B8"/>
  <anchor x="303" y="721" name="topgr"/>
  <outline>
    <contour>
      <point x="304.996" y="-20" type="curve" smooth="yes"/>
      <point x="474.673" y="-20"/>
      <point x="565.5" y="109"/>
      <point x="565.5" y="348" type="curve" smooth="yes"/>
      <point x="565.5" y="586"/>
      <point x="471.679" y="720"/>
      <point x="304.996" y="720" type="curve" smooth="yes"/>
      <point x="136.318" y="720"/>
      <point x="40.5" y="585"/>
      <point x="40.5" y="348" type="curve" smooth="yes"/>
      <point x="40.5" y="110"/>
      <point x="133.323" y="-20"/>
    </contour>
    <contour>
      <point x="305.007" y="70" type="curve" smooth="yes"/>
      <point x="205.658" y="70"/>
      <point x="160.5" y="155"/>
      <point x="160.5" y="346" type="curve" smooth="yes"/>
      <point x="160.5" y="546"/>
      <point x="201.644" y="630"/>
      <point x="305.007" y="630" type="curve" smooth="yes"/>
      <point x="405.359" y="630"/>
      <point x="445.5" y="547"/>
      <point x="445.5" y="346" type="curve" smooth="yes"/>
      <point x="445.5" y="149"/>
      <point x="406.363" y="70"/>
    </contour>
    <contour>
      <point x="157" y="310" type="line"/>
      <point x="449" y="310" type="line"/>
      <point x="449" y="390" type="line"/>
      <point x="157" y="390" type="line"/>
    </contour>
  </outline>
</glyph>
<glyph name="iota" format="2">
  <advance width="300"/>
  <unicode hex="03B9"/>
  <anchor x="127" y="520" name="topgr"/>
  <outline>
    <contour>
      <point x="213" y="0" type="curve" smooth="yes"/>
      <point x="247" y="0" type="line"/>
      <point x="247" y="90" type="line"/>
      <point x="196" y="90"/>
      <point x="186" y="105"/>
      <point x="186" y="167" type="curve" smooth="yes"/>
      <point x="186" y="500" type="line"/>
      <point x="66" y="500" type="line"/>
      <point x="66" y="153" type="line" smooth="yes"/>
      <point x="66" y="47"/>
      <point x="106" y="0"/>
    </contour>
  </outline>
</glyph>
<glyph name="lambda" format="2">
  <advance width="600"/>
  <unicode hex="03BB"/>
  <anchor x="300" y="721" name="topgr"/>
  <outline>
    <contour>
      <point x="480" y="-20" type="curve" smooth="yes" name="dv01"/>
      <point x="507" y="-20"/>
      <point x="528" y="-16"/>
      <point x="574" y="2" type="curve"/>
      <point x="558" y="88" type="line"/>
      <point x="540" y="79"/>
      <point x="517" y="73"/>
      <point x="503" y="73" type="curve" smooth="yes" name="dv02"/>
      <point x="485" y="73"/>
      <point x="454.533" y="82.858"/>
      <point x="433" y="162.867" type="curve" smooth="yes"/>
      <point x="329" y="549.296" type="line" smooth="yes"/>
      <point x="289.212" y="697.135"/>
      <point x="239" y="750"/>
      <point x="147" y="750" type="curve" smooth="yes" name="dv02"/>
      <point x="119" y="750"/>
      <point x="91" y="745.217"/>
      <point x="36" y="728" type="curve"/>
      <point x="51" y="648" type="line"/>
      <point x="74" y="656"/>
      <point x="108" y="660"/>
      <point x="121" y="660" type="curve" smooth="yes" name="dv01"/>
      <point x="175" y="660"/>
      <point x="194" y="589"/>
      <point x="216" y="508" type="curve" smooth="yes"/>
      <point x="298" y="203" type="line" smooth="yes"/>
      <point x="350" y="11"/>
      <point x="404" y="-20"/>
    </contour>
    <contour>
      <point x="34" y="0" type="line"/>
      <point x="162" y="0" type="line"/>
      <point x="289" y="330" type="line"/>
      <point x="226" y="500" type="line"/>
    </contour>
  </outline>
</glyph>
<glyph name="nu" format="2">
  <advance width="566"/>
  <unicode hex="03BD"/>
  <outline>
    <contour>
      <point x="204" y="-19" type="line"/>
      <point x="287" y="-19" type="line" smooth="yes"/>
      <point x="444" y="-19"/>
      <point x="526" y="78"/>
      <point x="526" y="259" type="curve" smooth="yes"/>
      <point x="526" y="352"/>
      <point x="504" y="444"/>
      <point x="472" y="500" type="curve"/>
      <point x="342" y="500" type="line"/>
      <point x="376" y="435"/>
      <point x="405" y="352"/>
      <point x="405" y="256" type="curve" smooth="yes"/>
      <point x="405" y="137"/>
      <point x="361" y="71"/>
      <point x="291" y="71" type="curve"/>
      <point x="143" y="500" type="line"/>
      <point x="15" y="500" type="line"/>
    </contour>
  </outline>
</glyph>
<glyph name="rho" format="2">
  <advance width="600"/>
  <unicode hex="03C1"/>
  <anchor x="312" y="520" name="topgr"/>
  <outline>
    <contour>
      <point x="336" y="-20" type="curve" smooth="yes"/>
      <point x="469" y="-20"/>
      <point x="563" y="90"/>
      <point x="563" y="257" type="curve" smooth="yes"/>
      <point x="563" y="423"/>
      <point x="471" y="520"/>
      <point x="309" y="520" type="curve" smooth="yes"/>
      <point x="142" y="520"/>
      <point x="66" y="417"/>
      <point x="66" y="247" type="curve"/>
      <point x="76" y="250" type="line"/>
      <point x="104" y="231"/>
      <point x="131" y="207"/>
      <point x="158" y="192" type="curve"/>
      <point x="148" y="70"/>
      <point x="215" y="-20"/>
    </contour>
    <contour>
      <point x="66" y="-200" type="line"/>
      <point x="186" y="-200" type="line"/>
      <point x="186" y="274" type="line"/>
      <point x="66" y="251" type="line"/>
    </contour>
    <contour>
      <point x="311" y="70" type="curve" smooth="yes" name="dv02"/>
      <point x="228" y="70"/>
      <point x="186" y="132.346"/>
      <point x="186" y="255.028" type="curve" smooth="yes"/>
      <point x="186" y="373.687"/>
      <point x="227" y="430"/>
      <point x="313" y="430" type="curve" smooth="yes" name="sv01"/>
      <point x="400" y="430"/>
      <point x="444" y="369.665"/>
      <point x="444" y="253.017" type="curve" smooth="yes"/>
      <point x="444" y="135.363"/>
      <point x="397" y="70"/>
    </contour>
  </outline>
</glyph>
<glyph name="uni03C2" format="2">
  <advance width="572"/>
  <unicode hex="03C2"/>
  <anchor x="286" y="520" name="topgr"/>
  <outline>
    <contour>
      <point x="383" y="-200" type="curve"/>
      <point x="494.852" y="-200" type="line"/>
      <point x="513.494" y="-181.07"/>
      <point x="534" y="-143.21"/>
      <point x="534" y="-93.395" type="curve" smooth="yes"/>
      <point x="534" y="0.258"/>
      <point x="454" y="70"/>
      <point x="327" y="70" type="curve" smooth="yes"/>
      <point x="204" y="70"/>
      <point x="160" y="136.369"/>
      <point x="160" y="245.978" type="curve" smooth="yes"/>
      <point x="160" y="365.642"/>
      <point x="213" y="430"/>
      <point x="307" y="430" type="curve" smooth="yes" name="sv01"/>
      <point x="363" y="430"/>
      <point x="411" y="406.657"/>
      <point x="443" y="362" type="curve"/>
      <point x="511" y="430" type="line"/>
      <point x="469" y="483"/>
      <point x="393" y="520"/>
      <point x="296" y="520" type="curve" smooth="yes" name="at01"/>
      <point x="134" y="520"/>
      <point x="40" y="418"/>
      <point x="40" y="250" type="curve" smooth="yes"/>
      <point x="40" y="86"/>
      <point x="131.618" y="-20"/>
      <point x="299.412" y="-20" type="curve" smooth="yes"/>
      <point x="393.088" y="-20"/>
      <point x="425" y="-53"/>
      <point x="425" y="-105" type="curve" smooth="yes"/>
      <point x="425" y="-143"/>
      <point x="408" y="-166"/>
    </contour>
  </outline>
</glyph>
<glyph name="tau" format="2">
  <advance width="421"/>
  <unicode hex="03C4"/>
  <anchor x="210" y="520" name="topgr"/>
  <outline>
    <contour>
      <point x="285" y="0" type="curve" smooth="yes"/>
      <point x="319" y="0" type="line"/>
      <point x="319" y="90" type="line"/>
      <point x="268" y="90"/>
      <point x="258" y="95"/>
      <point x="258" y="157" type="curve" smooth="yes"/>
      <point x="258" y="500" type="line"/>
      <point x="138" y="500" type="line"/>
      <point x="138" y="153" type="line" smooth="yes"/>
      <point x="138" y="47"/>
      <point x="178" y="0"/>
    </contour>
    <contour>
      <point x="38" y="410" type="line"/>
      <point x="376" y="410" type="line"/>
      <point x="376" y="500" type="line"/>
      <point x="38" y="500" type="line"/>
    </contour>
  </outline>
</glyph>
<glyph name="upsilon" format="2">
  <advance width="589"/>
  <unicode hex="03C5"/>
  <anchor x="283" y="520" name="topgr"/>
  <outline>
    <contour>
      <point x="307" y="-20" type="curve" smooth="yes"/>
      <point x="470" y="-20"/>
      <point x="549" y="76"/>
      <point x="549" y="253" type="curve" smooth="yes"/>
      <point x="549" y="349"/>
      <point x="526" y="434"/>
      <point x="487" y="500" type="curve"/>
      <point x="368" y="500" type="line"/>
      <point x="403" y="428"/>
      <point x="429" y="350"/>
      <point x="429" y="256" type="curve" smooth="yes"/>
      <point x="429" y="140"/>
      <point x="390" y="70"/>
      <point x="304" y="70" type="curve" smooth="yes"/>
      <point x="235" y="70"/>
      <point x="196" y="114"/>
      <point x="196" y="208" type="curve" smooth="yes"/>
      <point x="196" y="500" type="line"/>
      <point x="76" y="500" type="line"/>
      <point x="76" y="185" type="line" smooth="yes"/>
      <point x="76" y="54"/>
      <point x="163" y="-20"/>
    </contour>
  </outline>
</glyph>
<glyph name="phi" format="2">
  <advance width="712"/>
  <unicode hex="03C6"/>
  <anchor x="356" y="520" name="topgr"/>
  <outline>
    <contour>
      <point x="294" y="-20" type="curve"/>
      <point x="294" y="-200" type="line"/>
      <point x="414" y="-200" type="line"/>
      <point x="414" y="-20" type="line"/>
      <point x="586" y="-20"/>
      <point x="671.5" y="84"/>
      <point x="671.5" y="250" type="curve" smooth="yes"/>
      <point x="671.5" y="421"/>
      <point x="579.622" y="520"/>
      <point x="423.828" y="520" type="curve" smooth="yes"/>
      <point x="341.937" y="520"/>
      <point x="294" y="475.902"/>
      <point x="294" y="399.733" type="curve" smooth="yes"/>
      <point x="294" y="70" type="line"/>
      <point x="185" y="70"/>
      <point x="160" y="155.243"/>
      <point x="160" y="253.523" type="curve" smooth="yes"/>
      <point x="160" y="328.737"/>
      <point x="171" y="390.914"/>
      <point x="235" y="421" type="curve"/>
      <point x="156" y="500" type="line"/>
      <point x="90" y="460"/>
      <point x="40" y="382"/>
      <point x="40" y="251" type="curve" smooth="yes"/>
      <point x="40" y="94"/>
      <point x="111" y="-20"/>
    </contour>
    <contour>
      <point x="414" y="70" type="curve"/>
      <point x="414" y="392.793" type="line" smooth="yes"/>
      <point x="414" y="421.955"/>
      <point x="420.022" y="430"/>
      <point x="441.099" y="430" type="curve" smooth="yes"/>
      <point x="523.398" y="430"/>
      <point x="551.5" y="337.486"/>
      <point x="551.5" y="252.011" type="curve" smooth="yes"/>
      <point x="551.5" y="131.341"/>
      <point x="505.332" y="70"/>
    </contour>
  </outline>
</glyph>
<glyph name="psi" format="2">
  <advance width="774"/>
  <unicode hex="03C8"/>
  <anchor x="387" y="656" name="topgr"/>
  <outline>
    <contour>
      <point x="387" y="-20" type="curve" smooth="yes"/>
      <point x="569" y="-20"/>
      <point x="697" y="70"/>
      <point x="697" y="206" type="curve" smooth="yes"/>
      <point x="697" y="500" type="line"/>
      <point x="577" y="500" type="line"/>
      <point x="577" y="219" type="line" smooth="yes"/>
      <point x="577" y="132"/>
      <point x="495" y="71"/>
      <point x="388" y="71" type="curve" smooth="yes"/>
      <point x="286" y="71"/>
      <point x="196" y="125"/>
      <point x="196" y="219" type="curve" smooth="yes"/>
      <point x="196" y="500" type="line"/>
      <point x="76" y="500" type="line"/>
      <point x="76" y="206" type="line" smooth="yes"/>
      <point x="76" y="70"/>
      <point x="203" y="-20"/>
    </contour>
    <contour>
      <point x="326" y="-200" type="line"/>
      <point x="446" y="-200" type="line"/>
      <point x="446" y="656" type="line"/>
      <point x="326" y="656" type="line"/>
    </contour>
  </outline>
</glyph>
<glyph name="uni040A" format="2">
  <advance width="970"/>
  <unicode hex="040A"/>
  <outline>
    <contour>
      <point x="78" y="0" type="line" name="ab01"/>
      <point x="198" y="0" type="line"/>
      <point x="198" y="335" type="line" name="dv01"/>
      <point x="488" y="335" type="line"/>
      <point x="488" y="0" type="line" name="ab02"/>
      <point x="608" y="0" type="line"/>
      <point x="608" y="700" type="line" name="at01"/>
      <point x="488" y="700" type="line"/>
      <point x="488" y="435" type="line"/>
      <point x="198" y="435" type="line" name="dv02"/>
      <point x="198" y="700" type="line" name="at02"/>
      <point x="78" y="700" type="line"/>
    </contour>
    <contour>
      <point x="495" y="0" type="line"/>
      <point x="688" y="0" type="line" smooth="yes"/>
      <point x="871" y="0"/>
      <point x="931" y="89.175"/>
      <point x="931" y="216.413" type="curve" smooth="yes"/>
      <point x="931" y="342.563"/>
      <point x="871" y="435"/>
      <point x="688" y="435" type="curve" smooth="yes"/>
      <point x="515" y="435" type="line"/>
      <point x="530" y="335" type="line"/>
      <point x="650" y="335" type="line" smooth="yes"/>
      <point x="764" y="335"/>
      <point x="811" y="299.75"/>
      <point x="811" y="217.5" type="curve" smooth="yes"/>
      <point x="811" y="134.075"/>
      <point x="764" y="100"/>
      <point x="648" y="100" type="curve" smooth="yes"/>
      <point x="604" y="100" type="line"/>
    </contour>
  </outline>
</glyph>
<glyph name="uni040B" format="2">
  <advance width="752"/>
  <unicode hex="040B"/>
  <outline>
    <contour>
      <point x="184" y="0" type="line"/>
      <point x="304" y="0" type="line"/>
      <point x="304" y="600" type="line"/>
      <point x="552" y="600" type="line"/>
      <point x="552" y="700" type="line"/>
      <point x="31" y="700" type="line"/>
      <point x="31" y="600" type="line"/>
      <point x="184" y="600" type="line"/>
    </contour>
    <contour>
      <point x="548" y="252" type="curve" smooth="yes"/>
      <point x="548" y="0" type="line"/>
      <point x="668" y="0" type="line"/>
      <point x="668" y="255" type="line" smooth="yes"/>
      <point x="668" y="404"/>
      <point x="592" y="476"/>
      <point x="481" y="476" type="curve" smooth="yes"/>
      <point x="369" y="476"/>
      <point x="302" y="401"/>
      <point x="293" y="318" type="curve"/>
      <point x="304" y="231" type="line"/>
      <point x="304" y="313"/>
      <point x="361" y="376"/>
      <point x="441" y="376" type="curve" smooth="yes"/>
      <point x="513" y="376"/>
      <point x="548" y="346"/>
    </contour>
  </outline>
</glyph>
<glyph name="uni040F" format="2">
  <advance width="683"/>
  <unicode hex="040F"/>
  <outline>
    <contour>
      <point x="292" y="-158" type="curve"/>
      <point x="397" y="-158" type="line"/>
      <point x="410" y="-105"/>
      <point x="409" y="-52"/>
      <point x="393" y="0" type="curve"/>
      <point x="596" y="0" type="line"/>
      <point x="596" y="700" type="line"/>
      <point x="476" y="700" type="line"/>
      <point x="476" y="101" type="line"/>
      <point x="207" y="101" type="line"/>
      <point x="207" y="700" type="line"/>
      <point x="87" y="700" type="line"/>
      <point x="87" y="0" type="line"/>
      <point x="290" y="0" type="line"/>
      <point x="302" y="-38"/>
      <point x="303" y="-119"/>
    </contour>
  </outline>
</glyph>
<glyph name="uni0411" format="2">
  <advance width="613"/>
  <unicode hex="0411"/>
  <outline>
    <contour>
      <point x="77" y="0" type="line"/>
      <point x="333" y="0" type="line" smooth="yes"/>
      <point x="480" y="0"/>
      <point x="574" y="86.981"/>
      <point x="574" y="222.058" type="curve" smooth="yes"/>
      <point x="574" y="357.135"/>
      <point x="480" y="439"/>
      <point x="333" y="439" type="curve" smooth="yes"/>
      <point x="197" y="439" type="line"/>
      <point x="197" y="700" type="line"/>
      <point x="77" y="700" type="line"/>
    </contour>
    <contour>
      <point x="331" y="100" type="curve" smooth="yes"/>
      <point x="197" y="100" type="line"/>
      <point x="197" y="339" type="line"/>
      <point x="331" y="339" type="line" smooth="yes"/>
      <point x="421" y="339"/>
      <point x="454" y="297.253"/>
      <point x="454" y="222.109" type="curve" smooth="yes"/>
      <point x="454" y="146.965"/>
      <point x="421" y="100"/>
    </contour>
    <contour>
      <point x="108" y="599" type="line"/>
      <point x="530" y="599" type="line"/>
      <point x="530" y="700" type="line"/>
      <point x="95" y="700" type="line"/>
      <point x="95" y="694" type="line"/>
    </contour>
  </outline>
</glyph>
<glyph name="uni0414" format="2">
  <advance width="864"/>
  <unicode hex="0414"/>
  <outline>
    <contour>
      <point x="30" y="-140" type="curve"/>
      <point x="130" y="-140" type="line"/>
      <point x="130" y="-47"/>
      <point x="127" y="0"/>
      <point x="186" y="0" type="curve" smooth="yes"/>
      <point x="671" y="0" type="line" smooth="yes"/>
      <point x="742" y="0"/>
      <point x="734" y="-42"/>
      <point x="734" y="-140" type="curve"/>
      <point x="834" y="-140" type="line"/>
      <point x="834" y="77"/>
      <point x="802" y="99"/>
      <point x="702" y="99" type="curve"/>
      <point x="702" y="700" type="line"/>
      <point x="237" y="700" type="line"/>
      <point x="237" y="670" type="line" smooth="yes"/>
      <point x="237" y="217"/>
      <point x="223" y="174"/>
      <point x="158" y="101" type="curve"/>
      <point x="69" y="101"/>
      <point x="30" y="77"/>
    </contour>
    <contour>
      <point x="272" y="100" type="line"/>
      <point x="345.12" y="169.37"/>
      <point x="355.84" y="213.32"/>
      <point x="356.9" y="600" type="curve"/>
      <point x="582" y="600" type="line"/>
      <point x="582" y="100" type="line"/>
    </contour>
  </outline>
</glyph>
<glyph name="uni0418" format="2">
  <advance width="752"/>
  <unicode hex="0418"/>
  <anchor x="376" y="-20" name="bottom"/>
  <anchor x="376" y="719" name="top"/>
  <outline>
    <contour>
      <point x="87" y="0" type="line"/>
      <point x="197" y="0" type="line" name="ab01"/>
      <point x="545" y="515" type="line" name="iv01"/>
      <point x="545" y="0" type="line" name="ab02"/>
      <point x="665" y="0" type="line"/>
      <point x="665" y="700" type="line" name="at01"/>
      <point x="555" y="700" type="line"/>
      <point x="207" y="185" type="line" name="iv02"/>
      <point x="207" y="700" type="line" name="at02"/>
      <point x="87" y="700" type="line"/>
    </contour>
  </outline>
</glyph>
<glyph name="uni041A" format="2">
  <advance width="640"/>
  <unicode hex="041A"/>
  <anchor x="320" y="-20" name="bottom"/>
  <anchor x="320" y="719" name="top"/>
  <outline>
    <contour>
      <point x="149" y="325" type="line"/>
      <point x="363" y="325" type="line" smooth="yes"/>
      <point x="466" y="325"/>
      <point x="527" y="371"/>
      <point x="539" y="473" type="curve"/>
      <point x="560" y="700" type="line"/>
      <point x="439" y="700" type="line"/>
      <point x="424" y="547" type="line" smooth="yes"/>
      <point x="416" y="458"/>
      <point x="391" y="425"/>
      <point x="335" y="425" type="curve" smooth="yes"/>
      <point x="149" y="425" type="line"/>
    </contour>
    <contour>
      <point x="78" y="0" type="line"/>
      <point x="198" y="0" type="line"/>
      <point x="198" y="700" type="line"/>
      <point x="78" y="700" type="line"/>
    </contour>
    <contour>
      <point x="475" y="0" type="line"/>
      <point x="603" y="0" type="line"/>
      <point x="470" y="365" type="line"/>
      <point x="351" y="341" type="line"/>
    </contour>
  </outline>
</glyph>
<glyph name="uni041B" format="2">
  <advance width="720"/>
  <unicode hex="041B"/>
  <outline>
    <contour>
      <point x="96" y="-20" type="curve" smooth="yes"/>
      <point x="208.981" y="-20"/>
      <point x="255.437" y="37.256"/>
      <point x="272.009" y="274.58" type="curve" smooth="yes"/>
      <point x="277.879" y="358.642"/>
      <point x="280" y="465.296"/>
      <point x="280" y="600" type="curve"/>
      <point x="523" y="600" type="line"/>
      <point x="523" y="0" type="line"/>
      <point x="643" y="0" type="line"/>
      <point x="643" y="700" type="line"/>
      <point x="160" y="700" type="line"/>
      <point x="160" y="534.169"/>
      <point x="158.724" y="409.384"/>
      <point x="154.673" y="316.92" type="curve" smooth="yes"/>
      <point x="146.827" y="137.844"/>
      <point x="128.569" y="80"/>
      <point x="89" y="80" type="curve" smooth="yes"/>
      <point x="73" y="80"/>
      <point x="54" y="90"/>
      <point x="22" y="108" type="curve"/>
      <point x="1" y="9" type="line"/>
      <point x="40" y="-14"/>
      <point x="60" y="-20"/>
    </contour>
  </outline>
</glyph>
<glyph name="uni0423" format="2">
  <advance width="612"/>
  <unicode hex="0423"/>
  <anchor x="317" y="-20" name="bottom"/>
  <anchor x="306" y="719" name="top"/>
  <outline>
    <contour>
      <point x="80" y="30" type="curve"/>
      <point x="80" y="-70" type="line"/>
      <point x="217" y="-70"/>
      <point x="295" y="-54"/>
      <point x="329" y="36" type="curve" smooth="yes"/>
      <point x="584" y="700" type="line"/>
      <point x="455" y="700" type="line"/>
      <point x="253" y="118" type="line" smooth="yes"/>
      <point x="228.936" y="48.668"/>
      <point x="162" y="30"/>
    </contour>
    <contour>
      <point x="233" y="138" type="line"/>
      <point x="310" y="138" type="line"/>
      <point x="339" y="142" type="line"/>
      <point x="157" y="700" type="line"/>
      <point x="28" y="700" type="line"/>
    </contour>
  </outline>
</glyph>
<glyph name="uni0427" format="2">
  <advance width="674"/>
  <unicode hex="0427"/>
  <anchor x="337" y="719" name="top"/>
  <outline>
    <contour>
      <point x="273" y="206" type="curve" smooth="yes"/>
      <point x="396" y="206"/>
      <point x="469" y="281"/>
      <point x="478" y="364" type="curve"/>
      <point x="467" y="451" type="line"/>
      <point x="467" y="369"/>
      <point x="402" y="306"/>
      <point x="311" y="306" type="curve" smooth="yes"/>
      <point x="230" y="306"/>
      <point x="190" y="356"/>
      <point x="190" y="450" type="curve" smooth="yes"/>
      <point x="190" y="700" type="line"/>
      <point x="70" y="700" type="line"/>
      <point x="70" y="427" type="line" smooth="yes"/>
      <point x="70" y="278"/>
      <point x="152" y="206"/>
    </contour>
    <contour>
      <point x="467" y="0" type="line"/>
      <point x="587" y="0" type="line"/>
      <point x="587" y="700" type="line"/>
      <point x="467" y="700" type="line"/>
    </contour>
  </outline>
</glyph>
<glyph name="uni0429" format="2">
  <advance width="1060"/>
  <unicode hex="0429"/>
  <outline>
    <contour>
      <point x="917" y="-140" type="curve"/>
      <point x="1017" y="-140" type="line"/>
      <point x="1017" y="87"/>
      <point x="985" y="100"/>
      <point x="885" y="100" type="curve"/>
      <point x="885" y="700" type="line"/>
      <point x="765" y="700" type="line"/>
      <point x="765" y="100" type="line"/>
      <point x="546" y="100" type="line"/>
      <point x="546" y="700" type="line"/>
      <point x="426" y="700" type="line"/>
      <point x="426" y="100" type="line"/>
      <point x="207" y="100" type="line"/>
      <point x="207" y="700" type="line"/>
      <point x="87" y="700" type="line"/>
      <point x="87" y="0" type="line"/>
      <point x="854" y="0" type="line" smooth="yes"/>
      <point x="925" y="0"/>
      <point x="917" y="-50"/>
    </contour>
  </outline>
</glyph>
<glyph name="uni042C" format="2">
  <advance width="613"/>
  <unicode hex="042C"/>
  <outline>
    <contour>
      <point x="77" y="0" type="line"/>
      <point x="333" y="0" type="line" smooth="yes"/>
      <point x="480" y="0"/>
      <point x="574" y="88.963"/>
      <point x="574" y="227.117" type="curve" smooth="yes"/>
      <point x="574" y="365.27"/>
      <point x="480" y="449"/>
      <point x="333" y="449" type="curve" smooth="yes"/>
      <point x="197" y="449" type="line"/>
      <point x="197" y="700" type="line"/>
      <point x="77" y="700" type="line"/>
    </contour>
    <contour>
      <point x="331" y="100" type="curve" smooth="yes"/>
      <point x="197" y="100" type="line"/>
      <point x="197" y="349" type="line"/>
      <point x="331" y="349" type="line" smooth="yes"/>
      <point x="421" y="349"/>
      <point x="454" y="305.507"/>
      <point x="454" y="227.218" type="curve" smooth="yes"/>
      <point x="454" y="148.93"/>
      <point x="421" y="100"/>
    </contour>
  </outline>
</glyph>
<glyph name="uni042D" format="2">
  <advance width="694"/>
  <unicode hex="042D"/>
  <anchor x="330" y="719" name="top"/>
  <outline>
    <contour>
      <point x="303" y="-20" type="curve" smooth="yes" name="dv01"/>
      <point x="508" y="-20"/>
      <point x="647" y="135"/>
      <point x="647" y="365" type="curve" smooth="yes"/>
      <point x="647" y="581"/>
      <point x="524" y="720"/>
      <point x="311" y="720" type="curve" smooth="yes" name="dv04"/>
      <point x="198" y="720"/>
      <point x="109" y="681"/>
      <point x="43" y="599" type="curve"/>
      <point x="114" y="528" type="line"/>
      <point x="166.487" y="586.989"/>
      <point x="227.886" y="616"/>
      <point x="303.15" y="616" type="curve" smooth="yes" name="dv03"/>
      <point x="443.775" y="616"/>
      <point x="523" y="524.208"/>
      <point x="523" y="365.299" type="curve" smooth="yes"/>
      <point x="523" y="188.623"/>
      <point x="423.969" y="84"/>
      <point x="295.228" y="84" type="curve" smooth="yes" name="dv02"/>
      <point x="216.993" y="84"/>
      <point x="155.593" y="117.495"/>
      <point x="114" y="173" type="curve"/>
      <point x="43" y="102" type="line"/>
      <point x="118" y="18"/>
      <point x="202" y="-20"/>
    </contour>
    <contour>
      <point x="216" y="308" type="line"/>
      <point x="541" y="308" type="line"/>
      <point x="541" y="408" type="line"/>
      <point x="216" y="408" type="line"/>
    </contour>
  </outline>
</glyph>
<glyph name="uni042F" format="2">
  <advance width="648"/>
  <unicode hex="042F"/>
  <anchor x="324" y="-20" name="bottom"/>
  <anchor x="324" y="719" name="top"/>
  <outline>
    <contour>
      <point x="462" y="0" type="line" name="dv01"/>
      <point x="582" y="0" type="line"/>
      <point x="582" y="700" type="line"/>
      <point x="304.227" y="700" type="line" smooth="yes" name="at01"/>
      <point x="143.735" y="700"/>
      <point x="46" y="617"/>
      <point x="46" y="479" type="curve" smooth="yes"/>
      <point x="46" y="342"/>
      <point x="142.826" y="254"/>
      <point x="303.515" y="254" type="curve" smooth="yes"/>
      <point x="560" y="254" type="line" name="ab01"/>
      <point x="560" y="354" type="line" name="sv01"/>
      <point x="345.847" y="354" type="line" smooth="yes"/>
      <point x="207.583" y="354"/>
      <point x="166" y="389"/>
      <point x="166" y="478" type="curve" smooth="yes"/>
      <point x="166" y="565"/>
      <point x="206.028" y="600"/>
      <point x="346.128" y="600" type="curve" smooth="yes"/>
      <point x="462" y="600" type="line" name="dv02"/>
    </contour>
    <contour>
      <point x="43" y="0" type="line" name="ab02"/>
      <point x="178" y="0" type="line"/>
      <point x="341" y="281" type="line"/>
      <point x="233" y="333" type="line"/>
    </contour>
  </outline>
</glyph>
<glyph name="uni0431" format="2">
  <advance width="582"/>
  <unicode hex="0431"/>
  <outline>
    <contour>
      <point x="295.353" y="-20" type="curve" smooth="yes"/>
      <point x="455.915" y="-20"/>
      <point x="542" y="70.818"/>
      <point x="542" y="234.49" type="curve" smooth="yes"/>
      <point x="542" y="394.17"/>
      <point x="460.533" y="479"/>
      <point x="331.144" y="479" type="curve" smooth="yes"/>
      <point x="230.509" y="479"/>
      <point x="150" y="427.38"/>
      <point x="122" y="343" type="curve"/>
      <point x="122" y="524"/>
      <point x="169.88" y="572.596"/>
      <point x="314.305" y="588" type="curve" smooth="yes"/>
      <point x="404.284" y="597.597"/>
      <point x="468.341" y="622"/>
      <point x="498" y="649" type="curve"/>
      <point x="498" y="749" type="line"/>
      <point x="444.968" y="702"/>
      <point x="364.924" y="685.113"/>
      <point x="309.015" y="678" type="curve" smooth="yes"/>
      <point x="105.552" y="652.113"/>
      <point x="40" y="554"/>
      <point x="40" y="333" type="curve" smooth="yes"/>
      <point x="40" y="84"/>
      <point x="123.183" y="-20"/>
    </contour>
    <contour>
      <point x="293.438" y="70" type="curve" smooth="yes"/>
      <point x="208.982" y="70"/>
      <point x="163" y="135"/>
      <point x="163" y="234" type="curve" smooth="yes"/>
      <point x="163" y="335"/>
      <point x="210.859" y="389"/>
      <point x="295.315" y="389" type="curve" smooth="yes"/>
      <point x="379.772" y="389"/>
      <point x="422" y="335"/>
      <point x="422" y="236" type="curve" smooth="yes"/>
      <point x="422" y="135"/>
      <point x="377.895" y="70"/>
    </contour>
  </outline>
</glyph>
<glyph name="uni0432" format="2">
  <advance width="536"/>
  <unicode hex="0432"/>
  <anchor x="263" y="-20" name="bottom"/>
  <anchor x="263" y="520" name="top"/>
  <outline>
    <contour>
      <point x="70" y="0" type="line"/>
      <point x="305" y="0" type="line" smooth="yes"/>
      <point x="438" y="0"/>
      <point x="506" y="44"/>
      <point x="506" y="139" type="curve" smooth="yes"/>
      <point x="506" y="218"/>
      <point x="458" y="260"/>
      <point x="354" y="265" type="curve"/>
      <point x="441.636" y="283"/>
      <point x="474.5" y="314"/>
      <point x="474.5" y="383" type="curve" smooth="yes"/>
      <point x="474.5" y="467"/>
      <point x="425.564" y="500"/>
      <point x="297.73" y="500" type="curve" smooth="yes"/>
      <point x="70" y="500" type="line"/>
    </contour>
    <contour>
      <point x="284" y="90" type="curve" smooth="yes"/>
      <point x="190" y="90" type="line"/>
      <point x="190" y="212" type="line"/>
      <point x="283" y="212" type="line" smooth="yes"/>
      <point x="357" y="212"/>
      <point x="389" y="195"/>
      <point x="389" y="154" type="curve" smooth="yes"/>
      <point x="389" y="111"/>
      <point x="355" y="90"/>
    </contour>
    <contour>
      <point x="265.187" y="292" type="curve" smooth="yes"/>
      <point x="190" y="292" type="line"/>
      <point x="190" y="410" type="line"/>
      <point x="266.19" y="410" type="line" smooth="yes"/>
      <point x="326.395" y="410"/>
      <point x="357.5" y="392.707"/>
      <point x="357.5" y="353.034" type="curve" smooth="yes"/>
      <point x="357.5" y="312.345"/>
      <point x="323.384" y="292"/>
    </contour>
  </outline>
</glyph>
<glyph name="uni0437" format="2">
  <advance width="495"/>
  <unicode hex="0437"/>
  <anchor x="270" y="-20" name="bottom"/>
  <anchor x="250" y="520" name="top"/>
  <outline>
    <contour>
      <point x="243" y="-20" type="curve" smooth="yes" name="dv01"/>
      <point x="386" y="-20"/>
      <point x="465" y="57"/>
      <point x="465" y="150" type="curve" smooth="yes"/>
      <point x="465" y="229.4"/>
      <point x="406.267" y="275"/>
      <point x="304" y="275" type="curve"/>
      <point x="388.772" y="275"/>
      <point x="438" y="316.88"/>
      <point x="438" y="389" type="curve" smooth="yes"/>
      <point x="438" y="456"/>
      <point x="395" y="520"/>
      <point x="258" y="520" type="curve" smooth="yes" name="at01"/>
      <point x="153" y="520"/>
      <point x="77" y="483"/>
      <point x="35" y="430" type="curve"/>
      <point x="108" y="357" type="line"/>
      <point x="139" y="399.583"/>
      <point x="181" y="430"/>
      <point x="245" y="430" type="curve" smooth="yes" name="sv01"/>
      <point x="282" y="430"/>
      <point x="319" y="419.915"/>
      <point x="319" y="372.517" type="curve" smooth="yes"/>
      <point x="319" y="327.136"/>
      <point x="286" y="311"/>
      <point x="185" y="307" type="curve"/>
      <point x="185" y="227" type="line"/>
      <point x="297" y="235"/>
      <point x="346" y="214"/>
      <point x="346" y="156" type="curve" smooth="yes"/>
      <point x="346" y="95.294"/>
      <point x="293" y="70"/>
      <point x="236" y="70" type="curve" smooth="yes" name="dv02"/>
      <point x="175" y="70"/>
      <point x="130" y="98.333"/>
      <point x="100" y="155" type="curve"/>
      <point x="27" y="82" type="line"/>
      <point x="73" y="18"/>
      <point x="142" y="-20"/>
    </contour>
  </outline>
</glyph>
<glyph name="uni0438" format="2">
  <advance width="609"/>
  <unicode hex="0438"/>
  <anchor x="305" y="-20" name="bottom"/>
  <anchor x="305" y="520" name="top"/>
  <outline>
    <contour>
      <point x="70" y="0" type="line"/>
      <point x="175" y="0" type="line"/>
      <point x="419" y="324" type="line"/>
      <point x="419" y="0" type="line"/>
      <point x="539" y="0" type="line"/>
      <point x="539" y="500" type="line"/>
      <point x="434" y="500" type="line"/>
      <point x="190" y="176" type="line"/>
      <point x="190" y="500" type="line"/>
      <point x="70" y="500" type="line"/>
    </contour>
  </outline>
</glyph>
<glyph name="uni043A" format="2">
  <advance width="588"/>
  <unicode hex="043A"/>
  <anchor x="288" y="-20" name="bottom"/>
  <anchor x="288" y="520" name="top"/>
  <outline>
    <contour>
      <point x="181" y="221" type="line" name="dv01"/>
      <point x="359" y="221" type="line" smooth="yes"/>
      <point x="440" y="221"/>
      <point x="485" y="257"/>
      <point x="496" y="338" type="curve"/>
      <point x="514" y="500" type="line" name="av02"/>
      <point x="396" y="500" type="line"/>
      <point x="384" y="391" type="line"/>
      <point x="377" y="338"/>
      <point x="362" y="311"/>
      <point x="303" y="311" type="curve" smooth="yes"/>
      <point x="181" y="311" type="line" name="dv02"/>
    </contour>
    <contour>
      <point x="74" y="0" type="line" name="ab01"/>
      <point x="194" y="0" type="line"/>
      <point x="194" y="500" type="line"/>
      <point x="74" y="500" type="line" name="av01"/>
    </contour>
    <contour>
      <point x="421" y="0" type="line" name="ab02"/>
      <point x="552" y="0" type="line"/>
      <point x="440" y="251" type="line"/>
      <point x="314" y="240" type="line" name="iv01"/>
    </contour>
  </outline>
</glyph>
<glyph name="uni043B" format="2">
  <advance width="590"/>
  <unicode hex="043B"/>
  <outline>
    <contour>
      <point x="61" y="-20" type="curve" smooth="yes"/>
      <point x="199" y="-20"/>
      <point x="246" y="79"/>
      <point x="246" y="400" type="curve"/>
      <point x="397" y="400" type="line"/>
      <point x="397" y="0" type="line"/>
      <point x="517" y="0" type="line"/>
      <point x="517" y="500" type="line"/>
      <point x="126" y="500" type="line"/>
      <point x="126" y="191"/>
      <point x="120" y="70"/>
      <point x="60" y="70" type="curve" smooth="yes"/>
      <point x="52" y="70"/>
      <point x="44" y="71"/>
      <point x="34" y="73" type="curve"/>
      <point x="15" y="-16" type="line"/>
      <point x="32" y="-18"/>
      <point x="49" y="-20"/>
    </contour>
  </outline>
</glyph>
<glyph name="uni043C" format="2">
  <advance width="689"/>
  <unicode hex="043C"/>
  <outline>
    <contour>
      <point x="70" y="0" type="line"/>
      <point x="180" y="0" type="line"/>
      <point x="180" y="314" type="line"/>
      <point x="304" y="100" type="line"/>
      <point x="385" y="100" type="line"/>
      <point x="509" y="314" type="line"/>
      <point x="509" y="0" type="line"/>
      <point x="619" y="0" type="line"/>
      <point x="619" y="500" type="line"/>
      <point x="513" y="500" type="line"/>
      <point x="344" y="209" type="line"/>
      <point x="175" y="500" type="line"/>
      <point x="70" y="500" type="line"/>
    </contour>
  </outline>
</glyph>
<glyph name="uni043D" format="2">
  <advance width="593"/>
  <unicode hex="043D"/>
  <anchor x="296" y="-20" name="bottom"/>
  <anchor x="296" y="520" name="top"/>
  <outline>
    <contour>
      <point x="70" y="0" type="line"/>
      <point x="190" y="0" type="line"/>
      <point x="190" y="205" type="line"/>
      <point x="403" y="205" type="line"/>
      <point x="403" y="0" type="line"/>
      <point x="523" y="0" type="line"/>
      <point x="523" y="500" type="line"/>
      <point x="403" y="500" type="line"/>
      <point x="403" y="305" type="line"/>
      <point x="190" y="305" type="line"/>
      <point x="190" y="500" type="line"/>
      <point x="70" y="500" type="line"/>
    </contour>
  </outline>
</glyph>
<glyph name="uni0444" format="2">
  <advance width="806"/>
  <unicode hex="0444"/>
  <outline>
    <contour>
      <point x="523.779" y="-20" type="curve" smooth="yes" name="dv01"/>
      <point x="679.558" y="-20"/>
      <point x="768" y="79"/>
      <point x="768" y="255" type="curve" smooth="yes"/>
      <point x="768" y="421"/>
      <point x="679.551" y="520"/>
      <point x="522.755" y="520" type="curve" smooth="yes"/>
      <point x="464.459" y="520"/>
      <point x="414.204" y="507"/>
      <point x="374" y="486" type="curve"/>
      <point x="374" y="362" type="line"/>
      <point x="406.235" y="406"/>
      <point x="464.662" y="429"/>
      <point x="520.066" y="429" type="curve" smooth="yes" name="sv01"/>
      <point x="606.699" y="429"/>
      <point x="648" y="373"/>
      <point x="648" y="255" type="curve" smooth="yes"/>
      <point x="648" y="168"/>
      <point x="626.851" y="70.321"/>
      <point x="518.072" y="71" type="curve" smooth="yes" name="dv02"/>
      <point x="466.706" y="71.321"/>
      <point x="398.216" y="96"/>
      <point x="368" y="138" type="curve"/>
      <point x="368" y="15" type="line"/>
      <point x="410.211" y="-7"/>
      <point x="463.477" y="-20"/>
    </contour>
    <contour>
      <point x="282.215" y="-20" type="curve" smooth="yes" name="dv01"/>
      <point x="343.52" y="-20"/>
      <point x="397.79" y="-6"/>
      <point x="440" y="17" type="curve"/>
      <point x="438" y="138" type="line"/>
      <point x="407.784" y="96"/>
      <point x="339.294" y="71.321"/>
      <point x="287.928" y="71" type="curve" smooth="yes" name="dv02"/>
      <point x="179.149" y="70.321"/>
      <point x="158" y="168"/>
      <point x="158" y="255" type="curve" smooth="yes"/>
      <point x="158" y="373"/>
      <point x="199.301" y="429"/>
      <point x="285.934" y="429" type="curve" smooth="yes" name="sv01"/>
      <point x="341.338" y="429"/>
      <point x="399.765" y="406"/>
      <point x="432" y="362" type="curve"/>
      <point x="432" y="486" type="line"/>
      <point x="391.796" y="507"/>
      <point x="341.541" y="520"/>
      <point x="283.245" y="520" type="curve" smooth="yes"/>
      <point x="126.449" y="520"/>
      <point x="38" y="421"/>
      <point x="38" y="255" type="curve" smooth="yes"/>
      <point x="38" y="79"/>
      <point x="126.44" y="-20"/>
    </contour>
    <contour>
      <point x="342" y="-200" type="line"/>
      <point x="462" y="-200" type="line"/>
      <point x="462" y="750" type="line"/>
      <point x="342" y="750" type="line"/>
    </contour>
  </outline>
</glyph>
<glyph name="uni0446" format="2">
  <advance width="676"/>
  <unicode hex="0446"/>
  <outline>
    <contour>
      <point x="564" y="-140" type="curve"/>
      <point x="650" y="-140" type="line"/>
      <point x="650" y="52"/>
      <point x="629" y="98"/>
      <point x="529" y="98" type="curve"/>
      <point x="529" y="500" type="line"/>
      <point x="409" y="500" type="line"/>
      <point x="409" y="100" type="line"/>
      <point x="190" y="100" type="line"/>
      <point x="190" y="500" type="line"/>
      <point x="70" y="500" type="line"/>
      <point x="70" y="0" type="line"/>
      <point x="511" y="0" type="line" smooth="yes"/>
      <point x="578" y="0"/>
      <point x="564" y="-72"/>
    </contour>
  </outline>
</glyph>
<glyph name="uni0447" format="2">
  <advance width="575"/>
  <unicode hex="0447"/>
  <anchor x="288" y="-20" name="bottom"/>
  <anchor x="288" y="520" name="top"/>
  <outline>
    <contour>
      <point x="385" y="237.17" type="curve"/>
      <point x="385" y="0" type="line"/>
      <point x="505" y="0" type="line"/>
      <point x="505" y="500" type="line"/>
      <point x="385" y="500" type="line"/>
      <point x="385" y="343" type="line" smooth="yes"/>
      <point x="385" y="284.45"/>
      <point x="321" y="244"/>
      <point x="263.91" y="244" type="curve" smooth="yes"/>
      <point x="215.44" y="244"/>
      <point x="186" y="273.16"/>
      <point x="186" y="340.41" type="curve" smooth="yes"/>
      <point x="186" y="500" type="line"/>
      <point x="66" y="500" type="line"/>
      <point x="66" y="340" type="line" smooth="yes"/>
      <point x="66" y="216.77"/>
      <point x="130.41" y="154"/>
      <point x="232.25" y="154" type="curve" smooth="yes"/>
      <point x="296.47" y="154"/>
      <point x="355.8" y="182.56"/>
    </contour>
  </outline>
</glyph>
<glyph name="uni0449" format="2">
  <advance width="944"/>
  <unicode hex="0449"/>
  <outline>
    <contour>
      <point x="825" y="-140" type="curve"/>
      <point x="910" y="-140" type="line"/>
      <point x="910" y="52"/>
      <point x="889" y="99"/>
      <point x="789" y="99" type="curve"/>
      <point x="789" y="500" type="line"/>
      <point x="669" y="500" type="line"/>
      <point x="669" y="100" type="line"/>
      <point x="490" y="100" type="line"/>
      <point x="490" y="500" type="line"/>
      <point x="370" y="500" type="line"/>
      <point x="370" y="100" type="line"/>
      <point x="190" y="100" type="line"/>
      <point x="190" y="500" type="line"/>
      <point x="70" y="500" type="line"/>
      <point x="70" y="0" type="line"/>
      <point x="772" y="0" type="line" smooth="yes"/>
      <point x="840" y="0"/>
      <point x="825" y="-102"/>
    </contour>
  </outline>
</glyph>
<glyph name="uni044C" format="2">
  <advance width="516"/>
  <unicode hex="044C"/>
  <anchor x="258" y="-20" name="bottom"/>
  <anchor x="258" y="520" name="top"/>
  <outline>
    <contour>
      <point x="70" y="0" type="line"/>
      <point x="305.419" y="0" type="line" smooth="yes"/>
      <point x="423.251" y="0"/>
      <point x="486" y="69"/>
      <point x="486" y="177.277" type="curve" smooth="yes"/>
      <point x="486" y="282.369"/>
      <point x="423.086" y="345"/>
      <point x="301.906" y="345" type="curve" smooth="yes"/>
      <point x="105" y="345" type="line"/>
      <point x="105" y="255" type="line"/>
      <point x="288.653" y="255" type="line" smooth="yes"/>
      <point x="350.004" y="255"/>
      <point x="366" y="224.062"/>
      <point x="366" y="172.5" type="curve" smooth="yes"/>
      <point x="366" y="120.938"/>
      <point x="348.434" y="90"/>
      <point x="285.88" y="90" type="curve" smooth="yes"/>
      <point x="190" y="90" type="line"/>
      <point x="190" y="500" type="line"/>
      <point x="70" y="500" type="line"/>
    </contour>
  </outline>
</glyph>
<glyph name="uni044D" format="2">
  <advance width="563"/>
  <unicode hex="044D"/>
  <anchor x="301" y="-20" name="bottom"/>
  <anchor x="281" y="520" name="top"/>
  <outline>
    <contour>
      <point x="273" y="-20" type="curve" smooth="yes" name="dv01"/>
      <point x="428" y="-20"/>
      <point x="516" y="79"/>
      <point x="516" y="255" type="curve" smooth="yes"/>
      <point x="516" y="421"/>
      <point x="428" y="520"/>
      <point x="272" y="520" type="curve" smooth="yes"/>
      <point x="174" y="520"/>
      <point x="98" y="483"/>
      <point x="56" y="430" type="curve"/>
      <point x="124" y="362" type="line"/>
      <point x="156" y="406.657"/>
      <point x="214" y="430"/>
      <point x="269" y="430" type="curve" smooth="yes" name="sv01"/>
      <point x="355" y="430"/>
      <point x="396" y="373.688"/>
      <point x="396" y="255.029" type="curve" smooth="yes"/>
      <point x="396" y="167.544"/>
      <point x="375" y="68.997"/>
      <point x="267" y="70" type="curve" smooth="yes" name="dv02"/>
      <point x="216" y="70"/>
      <point x="148" y="95.373"/>
      <point x="118" y="138" type="curve"/>
      <point x="50" y="70" type="line"/>
      <point x="92" y="17"/>
      <point x="173" y="-20"/>
    </contour>
    <contour>
      <point x="157" y="210" type="line"/>
      <point x="421" y="210" type="line"/>
      <point x="421" y="294" type="line"/>
      <point x="157" y="294" type="line"/>
    </contour>
  </outline>
</glyph>
<glyph name="uni044E" format="2">
  <advance width="838"/>
  <unicode hex="044E"/>
  <anchor x="418" y="-20" name="bottom"/>
  <anchor x="418" y="520" name="top"/>
  <outline>
    <contour>
      <point x="544" y="-20" type="curve" smooth="yes" name="dv01"/>
      <point x="715.373" y="-20"/>
      <point x="798" y="79"/>
      <point x="798" y="255" type="curve" smooth="yes"/>
      <point x="798" y="421"/>
      <point x="714.353" y="520"/>
      <point x="544" y="520" type="curve" smooth="yes" name="at01"/>
      <point x="384.867" y="520"/>
      <point x="290" y="421"/>
      <point x="290" y="255" type="curve" smooth="yes"/>
      <point x="290" y="79"/>
      <point x="385.888" y="-20"/>
    </contour>
    <contour>
      <point x="70" y="0" type="line"/>
      <point x="190" y="0" type="line"/>
      <point x="190" y="500" type="line"/>
      <point x="70" y="500" type="line"/>
    </contour>
    <contour>
      <point x="160" y="210" type="line"/>
      <point x="336" y="210" type="line"/>
      <point x="336" y="300" type="line"/>
      <point x="160" y="300" type="line"/>
    </contour>
    <contour>
      <point x="544" y="70" type="curve" smooth="yes" name="dv02"/>
      <point x="457.783" y="70"/>
      <point x="410" y="132.346"/>
      <point x="410" y="255.028" type="curve" smooth="yes"/>
      <point x="410" y="373.687"/>
      <point x="454.667" y="430"/>
      <point x="544" y="430" type="curve" smooth="yes" name="sv01"/>
      <point x="634.372" y="430"/>
      <point x="678" y="369.665"/>
      <point x="678" y="253.017" type="curve" smooth="yes"/>
      <point x="678" y="135.363"/>
      <point x="633.333" y="70"/>
    </contour>
  </outline>
</glyph>
<glyph name="uni044F" format="2">
  <advance width="540"/>
  <unicode hex="044F"/>
  <anchor x="270" y="-20" name="bottom"/>
  <anchor x="270" y="520" name="top"/>
  <outline>
    <contour>
      <point x="127" y="196" type="curve"/>
      <point x="27" y="0" type="line"/>
      <point x="156" y="0" type="line"/>
      <point x="238" y="172" type="line"/>
      <point x="350" y="172" type="line"/>
      <point x="350" y="0" type="line"/>
      <point x="470" y="0" type="line"/>
      <point x="470" y="500" type="line"/>
      <point x="241" y="500" type="line" smooth="yes"/>
      <point x="106" y="500"/>
      <point x="36" y="445"/>
      <point x="36" y="347" type="curve" smooth="yes"/>
      <point x="36" y="280"/>
      <point x="69" y="229"/>
    </contour>
    <contour>
      <point x="265" y="262" type="line"/>
      <point x="190" y="262"/>
      <point x="156" y="286"/>
      <point x="156" y="337" type="curve" smooth="yes"/>
      <point x="156" y="388"/>
      <point x="189" y="410"/>
      <point x="265" y="410" type="curve" smooth="yes"/>
      <point x="350" y="410" type="line"/>
      <point x="350" y="262" type="line"/>
    </contour>
  </outline>
</glyph>
<glyph name="uni0454" format="2">
  <advance width="563"/>
  <unicode hex="0454"/>
  <anchor x="265" y="-20" name="bottom"/>
  <anchor x="285" y="520" name="top"/>
  <outline>
    <contour>
      <point x="293" y="-20" type="curve" smooth="yes" name="dv01"/>
      <point x="393" y="-20"/>
      <point x="474" y="17"/>
      <point x="516" y="70" type="curve"/>
      <point x="448" y="138" type="line"/>
      <point x="418" y="95.373"/>
      <point x="350" y="70"/>
      <point x="299" y="70" type="curve" smooth="yes" name="dv02"/>
      <point x="191" y="68.997"/>
      <point x="170" y="167.544"/>
      <point x="170" y="255.029" type="curve" smooth="yes"/>
      <point x="170" y="373.688"/>
      <point x="211" y="430"/>
      <point x="297" y="430" type="curve" smooth="yes" name="sv01"/>
      <point x="352" y="430"/>
      <point x="410" y="406.657"/>
      <point x="442" y="362" type="curve"/>
      <point x="510" y="430" type="line"/>
      <point x="468" y="483"/>
      <point x="392" y="520"/>
      <point x="294" y="520" type="curve" smooth="yes"/>
      <point x="138" y="520"/>
      <point x="50" y="421"/>
      <point x="50" y="255" type="curve" smooth="yes"/>
      <point x="50" y="79"/>
      <point x="138" y="-20"/>
    </contour>
    <contour>
      <point x="409" y="210" type="line"/>
      <point x="409" y="294" type="line"/>
      <point x="145" y="294" type="line"/>
      <point x="145" y="210" type="line"/>
    </contour>
  </outline>
</glyph>
<glyph name="uni0457" format="2">
  <advance width="272"/>
  <unicode hex="0457"/>
  <anchor x="136" y="-20" name="bottom"/>
  <anchor x="190" y="-2" name="ogonek"/>
  <anchor x="136" y="667" name="top"/>
  <outline>
    <contour>
      <point x="76" y="0" type="line"/>
      <point x="196" y="0" type="line"/>
      <point x="196" y="500" type="line"/>
      <point x="76" y="500" type="line"/>
    </contour>
    <contour>
      <point x="34.757" y="577.661" type="curve" smooth="yes" name="dv01"/>
      <point x="74.277" y="577.661"/>
      <point x="93.037" y="606.83"/>
      <point x="93.037" y="636" type="curve" smooth="yes"/>
      <point x="93.037" y="667.052"/>
      <point x="74.277" y="694.339"/>
      <point x="34.757" y="694.339" type="curve" smooth="yes" name="dv02"/>
      <point x="-6.646" y="694.339"/>
      <point x="-27.347" y="663.288"/>
      <point x="-27.347" y="636" type="curve" smooth="yes"/>
      <point x="-27.347" y="609.653"/>
      <point x="-6.646" y="577.661"/>
    </contour>
    <contour>
      <point x="240.066" y="577.661" type="curve" smooth="yes" name="dv01.1"/>
      <point x="279.587" y="577.661"/>
      <point x="298.347" y="606.83"/>
      <point x="298.347" y="636" type="curve" smooth="yes"/>
      <point x="298.347" y="667.052"/>
      <point x="279.587" y="694.339"/>
      <point x="240.066" y="694.339" type="curve" smooth="yes" name="dv02.1"/>
      <point x="198.664" y="694.339"/>
      <point x="177.963" y="663.288"/>
      <point x="177.963" y="636" type="curve" smooth="yes"/>
      <point x="177.963" y="609.653"/>
      <point x="198.664" y="577.661"/>
    </contour>
  </outline>
</glyph>
<glyph name="uni0459" format="2">
  <advance width="810"/>
  <unicode hex="0459"/>
  <outline>
    <contour>
      <point x="61" y="-20" type="curve" smooth="yes"/>
      <point x="169.125" y="-20"/>
      <point x="221.385" y="46.914"/>
      <point x="238.945" y="230.286" type="curve" smooth="yes"/>
      <point x="243.797" y="280.951"/>
      <point x="246" y="340.508"/>
      <point x="246" y="410" type="curve"/>
      <point x="377" y="410" type="line"/>
      <point x="377" y="0" type="line"/>
      <point x="602" y="0" type="line" smooth="yes"/>
      <point x="712" y="0"/>
      <point x="780" y="63"/>
      <point x="780" y="164.44" type="curve" smooth="yes"/>
      <point x="780" y="261.605"/>
      <point x="718" y="315"/>
      <point x="602" y="315" type="curve" smooth="yes"/>
      <point x="497" y="315" type="line"/>
      <point x="497" y="500" type="line"/>
      <point x="126" y="500" type="line"/>
      <point x="126" y="394.835"/>
      <point x="125.305" y="311.446"/>
      <point x="122.023" y="247.193" type="curve" smooth="yes"/>
      <point x="115.661" y="122.653"/>
      <point x="99.58" y="70"/>
      <point x="60" y="70" type="curve" smooth="yes"/>
      <point x="52" y="70"/>
      <point x="44" y="71"/>
      <point x="34" y="73" type="curve"/>
      <point x="15" y="-16" type="line"/>
      <point x="32" y="-18"/>
      <point x="49" y="-20"/>
    </contour>
    <contour>
      <point x="583" y="90" type="curve" smooth="yes"/>
      <point x="497" y="90" type="line"/>
      <point x="497" y="225" type="line"/>
      <point x="598" y="225" type="line" smooth="yes"/>
      <point x="639" y="225"/>
      <point x="660" y="202.687"/>
      <point x="660" y="160.427" type="curve" smooth="yes"/>
      <point x="660" y="115.823"/>
      <point x="631" y="90"/>
    </contour>
  </outline>
</glyph>
<glyph name="uni045F" format="2">
  <advance width="605"/>
  <unicode hex="045F"/>
  <outline>
    <contour>
      <point x="263" y="-141" type="curve"/>
      <point x="352" y="-141" type="line"/>
      <point x="368" y="-88"/>
      <point x="364" y="-52"/>
      <point x="346" y="0" type="curve"/>
      <point x="525" y="0" type="line"/>
      <point x="525" y="500" type="line"/>
      <point x="405" y="500" type="line"/>
      <point x="405" y="91" type="line"/>
      <point x="200" y="91" type="line"/>
      <point x="200" y="500" type="line"/>
      <point x="80" y="500" type="line"/>
      <point x="80" y="0" type="line"/>
      <point x="259" y="0" type="line"/>
      <point x="274" y="-42"/>
      <point x="272" y="-97"/>
    </contour>
  </outline>
</glyph>
<glyph name="uni0491" format="2">
  <advance width="510"/>
  <unicode hex="0491"/>
  <outline>
    <contour>
      <point x="80" y="0" type="line"/>
      <point x="200" y="0" type="line"/>
      <point x="200" y="410" type="line"/>
      <point x="350" y="410" type="line" smooth="yes"/>
      <point x="452" y="410"/>
      <point x="473" y="446"/>
      <point x="473" y="638" type="curve"/>
      <point x="383" y="638" type="line"/>
      <point x="383" y="601"/>
      <point x="391" y="500"/>
      <point x="337" y="500" type="curve" smooth="yes"/>
      <point x="80" y="500" type="line"/>
    </contour>
  </outline>
</glyph>
<glyph name="uni1E9E" format="2">
  <advance width="715"/>
  <unicode hex="1E9E"/>
  <outline>
    <contour>
      <point x="467.818" y="-20" type="curve" smooth="yes"/>
      <point x="600.286" y="-20"/>
      <point x="686" y="54"/>
      <point x="686" y="160" type="curve" smooth="yes"/>
      <point x="686" y="340"/>
      <point x="473" y="316"/>
      <point x="473" y="406" type="curve" smooth="yes"/>
      <point x="473" y="433"/>
      <point x="496.752" y="454.833"/>
      <point x="519" y="485" type="curve" smooth="yes"/>
      <point x="633.15113" y="639.78132" type="line"/>
      <point x="581.81289" y="685.38464"/>
      <point x="480.88672" y="720"/>
      <point x="354" y="720" type="curve" smooth="yes"/>
      <point x="165" y="720"/>
      <point x="66" y="643"/>
      <point x="66" y="489" type="curve"/>
      <point x="66" y="0" type="line"/>
      <point x="186" y="0" type="line"/>
      <point x="186" y="477.897" type="line" smooth="yes"/>
      <point x="186" y="583.343"/>
      <point x="223.362" y="616"/>
      <point x="344" y="616" type="curve" smooth="yes"/>
      <point x="399.408" y="616"/>
      <point x="450.75" y="604.492"/>
      <point x="476.582" y="595.935" type="curve"/>
      <point x="472.434" y="609.776" type="line"/>
      <point x="411" y="526" type="line" smooth="yes"/>
      <point x="370.437" y="470.686"/>
      <point x="352" y="445.16"/>
      <point x="352" y="395.682" type="curve" smooth="yes"/>
      <point x="352" y="236.362"/>
      <point x="567" y="261.101"/>
      <point x="567" y="151.259" type="curve" smooth="yes"/>
      <point x="567" y="106.729"/>
      <point x="525.2" y="81"/>
      <point x="472.95" y="81" type="curve" smooth="yes"/>
      <point x="420.7" y="81"/>
      <point x="377" y="107"/>
      <point x="352" y="154" type="curve"/>
      <point x="273" y="75" type="line"/>
      <point x="311" y="18"/>
      <point x="372.364" y="-20"/>
    </contour>
  </outline>
</glyph>
<glyph name="dagger" format="2">
  <advance width="701"/>
  <unicode hex="2020"/>
  <outline>
    <contour>
      <point x="330" y="-104" type="line"/>
      <point x="374" y="-104" type="line"/>
      <point x="403" y="401" type="line"/>
      <point x="650" y="388" type="line"/>
      <point x="650" y="484" type="line"/>
      <point x="405" y="471" type="line"/>
      <point x="410" y="696" type="line"/>
      <point x="295" y="696" type="line"/>
      <point x="299" y="470" type="line"/>
      <point x="50" y="484" type="line"/>
      <point x="50" y="388" type="line"/>
      <point x="301" y="401" type="line"/>
    </contour>
  </outline>
</glyph>
<glyph name="fraction" format="2">
  <advance width="176"/>
  <unicode hex="2044"/>
  <outline>
    <contour>
      <point x="-110" y="0" type="line"/>
      <point x="-70" y="0" type="line"/>
      <point x="286" y="700" type="line"/>
      <point x="246" y="700" type="line"/>
    </contour>
  </outline>
</glyph>
<glyph name="uni2074" format="2">
  <advance width="460"/>
  <unicode hex="2074"/>
  <outline>
    <contour>
      <point x="258" y="344" type="line"/>
      <point x="351" y="344" type="line"/>
      <point x="351" y="448" type="line"/>
      <point x="439" y="448" type="line"/>
      <point x="439" y="523" type="line"/>
      <point x="351" y="523" type="line"/>
      <point x="351" y="830" type="line"/>
      <point x="225" y="830" type="line"/>
      <point x="20" y="496" type="line"/>
      <point x="20" y="448" type="line"/>
      <point x="258" y="448" type="line"/>
    </contour>
    <contour>
      <point x="132" y="523" type="line"/>
      <point x="258" y="725" type="line"/>
      <point x="258" y="523" type="line"/>
    </contour>
  </outline>
</glyph>
<glyph name="uni2075" format="2">
  <advance width="420"/>
  <unicode hex="2075"/>
  <outline>
    <contour>
      <point x="205" y="340" type="curve" smooth="yes"/>
      <point x="319" y="340"/>
      <point x="387" y="405"/>
      <point x="387" y="508" type="curve" smooth="yes"/>
      <point x="387" y="600"/>
      <point x="332" y="663"/>
      <point x="234" y="663" type="curve" smooth="yes"/>
      <point x="209" y="663"/>
      <point x="180" y="659"/>
      <point x="155" y="646" type="curve"/>
      <point x="173" y="757" type="line"/>
      <point x="357" y="757" type="line"/>
      <point x="365" y="832" type="line"/>
      <point x="91" y="832" type="line"/>
      <point x="42" y="527" type="line"/>
      <point x="100" y="560"/>
      <point x="158" y="596"/>
      <point x="215" y="596" type="curve" smooth="yes"/>
      <point x="265" y="596"/>
      <point x="293" y="568"/>
      <point x="293" y="513" type="curve" smooth="yes"/>
      <point x="293" y="451"/>
      <point x="258" y="415"/>
      <point x="191" y="415" type="curve" smooth="yes"/>
      <point x="148" y="415"/>
      <point x="119" y="430"/>
      <point x="83" y="476" type="curve"/>
      <point x="30" y="423" type="line"/>
      <point x="82" y="365"/>
      <point x="135" y="340"/>
    </contour>
  </outline>
</glyph>
<glyph name="uni20BC" format="2">
  <advance width="801"/>
  <unicode hex="20BC"/>
  <outline>
    <contour>
      <point x="99" y="0" type="curve"/>
      <point x="224" y="0" type="line"/>
      <point x="190" y="61"/>
      <point x="172" y="139"/>
      <point x="172" y="210" type="curve" smooth="yes"/>
      <point x="172" y="386"/>
      <point x="263.2" y="502"/>
      <point x="400.912" y="502" type="curve" smooth="yes"/>
      <point x="538.624" y="502"/>
      <point x="628" y="388"/>
      <point x="628" y="213" type="curve" smooth="yes"/>
      <point x="628" y="141"/>
      <point x="610" y="62"/>
      <point x="575" y="0" type="curve"/>
      <point x="696" y="0" type="line"/>
      <point x="730" y="75"/>
      <point x="748" y="154"/>
      <point x="748" y="230" type="curve" smooth="yes"/>
      <point x="748" y="450"/>
      <point x="605.978" y="602"/>
      <point x="401.881" y="602" type="curve" smooth="yes"/>
      <point x="194.022" y="602"/>
      <point x="52" y="444"/>
      <point x="52" y="214" type="curve" smooth="yes"/>
      <point x="52" y="143"/>
      <point x="68" y="69"/>
    </contour>
    <contour>
      <point x="354" y="110" type="line"/>
      <point x="446" y="157" type="line"/>
      <point x="446" y="750" type="line"/>
      <point x="354" y="703" type="line"/>
    </contour>
  </outline>
</glyph>
<glyph name="uni2126" format="2">
  <advance width="790"/>
  <unicode hex="2126"/>
  <anchor x="-10" y="500" name="topgr"/>
  <outline>
    <contour>
      <point x="71" y="0" type="line"/>
      <point x="351" y="0" type="line"/>
      <point x="351" y="100" type="line"/>
      <point x="233.034" y="152.096"/>
      <point x="177" y="251.058"/>
      <point x="177" y="372.117" type="curve" smooth="yes"/>
      <point x="177" y="524.882"/>
      <point x="262.467" y="620"/>
      <point x="395.088" y="620" type="curve" smooth="yes"/>
      <point x="530.656" y="620"/>
      <point x="623" y="520.078"/>
      <point x="623" y="371.156" type="curve" smooth="yes"/>
      <point x="623" y="248.175"/>
      <point x="562.722" y="152.096"/>
      <point x="448" y="100" type="curve"/>
      <point x="448" y="0" type="line"/>
      <point x="728" y="0" type="line"/>
      <point x="728" y="100" type="line"/>
      <point x="580" y="100" type="line"/>
      <point x="682" y="141.066"/>
      <point x="747" y="256.252"/>
      <point x="747" y="387.464" type="curve" smooth="yes"/>
      <point x="747" y="583.78"/>
      <point x="601" y="720"/>
      <point x="400" y="720" type="curve" smooth="yes"/>
      <point x="198" y="720"/>
      <point x="53" y="582.779"/>
      <point x="53" y="383.457" type="curve" smooth="yes"/>
      <point x="53" y="251.244"/>
      <point x="116" y="141.066"/>
      <point x="219" y="100" type="curve"/>
      <point x="71" y="100" type="line"/>
    </contour>
  </outline>
</glyph>
<glyph name="integral" format="2">
  <advance width="452"/>
  <unicode hex="222B"/>
  <outline>
    <contour>
      <point x="80" y="-163" type="curve" smooth="yes"/>
      <point x="217" y="-163"/>
      <point x="272.677" y="-94.993"/>
      <point x="276" y="61" type="curve" smooth="yes"/>
      <point x="285.5" y="507" type="line" smooth="yes"/>
      <point x="287.375" y="595.003"/>
      <point x="311.445" y="660"/>
      <point x="387.286" y="660" type="curve" smooth="yes"/>
      <point x="408.242" y="660"/>
      <point x="468.116" y="655"/>
      <point x="523" y="608" type="curve"/>
      <point x="557" y="709" type="line"/>
      <point x="517" y="742"/>
      <point x="444" y="760"/>
      <point x="373" y="760" type="curve" smooth="yes"/>
      <point x="237" y="760"/>
      <point x="169.505" y="693.99"/>
      <point x="166" y="536" type="curve" smooth="yes"/>
      <point x="155.75" y="74" type="line" smooth="yes"/>
      <point x="154.041" y="-3.007"/>
      <point x="127.657" y="-63"/>
      <point x="64.448" y="-63" type="curve" smooth="yes"/>
      <point x="39.365" y="-63"/>
      <point x="-14.814" y="-54"/>
      <point x="-71" y="0" type="curve"/>
      <point x="-105" y="-112" type="line"/>
      <point x="-57" y="-143"/>
      <point x="6" y="-163"/>
    </contour>
  </outline>
</glyph>
<glyph name="f_f" format="2">
  <advance width="806"/>
  <unicode hex="FB00"/>
  <anchor x="403" y="0" name="caret_1"/>
  <outline>
    <contour>
      <point x="507" y="0" type="line" name="ab01"/>
      <point x="627" y="0" type="line"/>
      <point x="627" y="410" type="line" name="sv01"/>
      <point x="773" y="410" type="line"/>
      <point x="773" y="500" type="line" name="sv02"/>
      <point x="627" y="500" type="line"/>
      <point x="627" y="579" type="line" smooth="yes"/>
      <point x="627" y="633"/>
      <point x="645" y="660"/>
      <point x="683" y="660" type="curve" smooth="yes" name="dv01"/>
      <point x="697" y="660"/>
      <point x="731" y="656"/>
      <point x="754" y="648" type="curve"/>
      <point x="769" y="728" type="line"/>
      <point x="714" y="745.217"/>
      <point x="686" y="750"/>
      <point x="657" y="750" type="curve" smooth="yes" name="dv02"/>
      <point x="562" y="750"/>
      <point x="507" y="698.207"/>
      <point x="507" y="607.57" type="curve" smooth="yes"/>
      <point x="507" y="500" type="line" name="dv04"/>
      <point x="415" y="500" type="line"/>
      <point x="415" y="410" type="line"/>
      <point x="507" y="410" type="line" name="dv03"/>
    </contour>
    <contour>
      <point x="114" y="0" type="line" name="ab01"/>
      <point x="234" y="0" type="line"/>
      <point x="234" y="410" type="line" name="sv01"/>
      <point x="380" y="410" type="line"/>
      <point x="380" y="500" type="line" name="sv02"/>
      <point x="234" y="500" type="line"/>
      <point x="234" y="579" type="line" smooth="yes"/>
      <point x="234" y="633"/>
      <point x="252" y="660"/>
      <point x="290" y="660" type="curve" smooth="yes" name="dv01"/>
      <point x="304" y="660"/>
      <point x="338" y="656"/>
      <point x="361" y="648" type="curve"/>
      <point x="376" y="728" type="line"/>
      <point x="321" y="745.217"/>
      <point x="293" y="750"/>
      <point x="264" y="750" type="curve" smooth="yes" name="dv02"/>
      <point x="169" y="750"/>
      <point x="114" y="698.207"/>
      <point x="114" y="607.57" type="curve" smooth="yes"/>
      <point x="114" y="500" type="line" name="dv04"/>
      <point x="22" y="500" type="line"/>
      <point x="22" y="410" type="line"/>
      <point x="114" y="410" type="line" name="dv03"/>
    </contour>
    <contour>
      <point x="219" y="410" type="line"/>
      <point x="518" y="410" type="line"/>
      <point x="518" y="500" type="line"/>
      <point x="219" y="500" type="line"/>
    </contour>
  </outline>
</glyph>
<glyph name="C.ss09" format="2">
  <advance width="753"/>
  <anchor x="397" y="-19" name="bottom"/>
  <anchor x="377" y="719" name="top"/>
  <outline>
    <contour>
      <point x="389" y="-20" type="curve" smooth="yes"/>
      <point x="556" y="-20"/>
      <point x="673" y="84"/>
      <point x="710" y="261" type="curve"/>
      <point x="590" y="261" type="line"/>
      <point x="580" y="152"/>
      <point x="497" y="80"/>
      <point x="387" y="80" type="curve" smooth="yes"/>
      <point x="250" y="80"/>
      <point x="163" y="192"/>
      <point x="163" y="354" type="curve" smooth="yes"/>
      <point x="163" y="511"/>
      <point x="244" y="620"/>
      <point x="382" y="620" type="curve" smooth="yes"/>
      <point x="474" y="620"/>
      <point x="551" y="571"/>
      <point x="580" y="485" type="curve"/>
      <point x="700" y="485" type="line"/>
      <point x="653" y="637"/>
      <point x="547" y="720"/>
      <point x="391" y="720" type="curve" smooth="yes"/>
      <point x="180" y="720"/>
      <point x="43" y="568"/>
      <point x="43" y="355" type="curve" smooth="yes"/>
      <point x="43" y="142"/>
      <point x="180" y="-20"/>
    </contour>
  </outline>
</glyph>
<glyph name="C.ss10" format="2">
  <advance width="715"/>
  <anchor x="397" y="-19" name="bottom"/>
  <anchor x="377" y="719" name="top"/>
  <outline>
    <contour>
      <point x="395" y="-20" type="curve" smooth="yes"/>
      <point x="505" y="-20"/>
      <point x="602" y="23"/>
      <point x="672" y="107" type="curve"/>
      <point x="633" y="235" type="line"/>
      <point x="557" y="117.24"/>
      <point x="487" y="80"/>
      <point x="401" y="80" type="curve" smooth="yes"/>
      <point x="246" y="80"/>
      <point x="163" y="191.413"/>
      <point x="163" y="353.011" type="curve" smooth="yes"/>
      <point x="163" y="514.61"/>
      <point x="245" y="620"/>
      <point x="391" y="620" type="curve" smooth="yes"/>
      <point x="481" y="620"/>
      <point x="550" y="579.74"/>
      <point x="624" y="465" type="curve"/>
      <point x="663" y="593" type="line"/>
      <point x="594" y="677"/>
      <point x="500" y="720"/>
      <point x="388" y="720" type="curve" smooth="yes"/>
      <point x="180" y="720"/>
      <point x="43" y="573"/>
      <point x="43" y="357" type="curve" smooth="yes"/>
      <point x="43" y="137"/>
      <point x="185" y="-20"/>
    </contour>
  </outline>
</glyph>
<glyph name="Djecyr.ss12" format="2">
  <advance width="783"/>
  <outline>
    <contour>
      <point x="428" y="-44" type="curve"/>
      <point x="428" y="-144" type="line"/>
      <point x="641" y="-144"/>
      <point x="724" y="-2"/>
      <point x="724" y="194" type="curve" smooth="yes"/>
      <point x="724" y="369"/>
      <point x="623" y="466"/>
      <point x="485" y="466" type="curve" smooth="yes"/>
      <point x="399" y="466"/>
      <point x="344" y="416"/>
      <point x="315" y="352" type="curve"/>
      <point x="315" y="600" type="line"/>
      <point x="554" y="600" type="line"/>
      <point x="554" y="700" type="line"/>
      <point x="31" y="700" type="line"/>
      <point x="31" y="600" type="line"/>
      <point x="195" y="600" type="line"/>
      <point x="195" y="0" type="line"/>
      <point x="315" y="0" type="line"/>
      <point x="315" y="200" type="line" smooth="yes"/>
      <point x="315" y="300"/>
      <point x="380" y="373"/>
      <point x="463" y="373" type="curve" smooth="yes"/>
      <point x="552" y="373"/>
      <point x="604" y="320"/>
      <point x="604" y="188" type="curve" smooth="yes"/>
      <point x="604" y="31"/>
      <point x="556" y="-44"/>
    </contour>
  </outline>
</glyph>
<glyph name="Eng.ss07" format="2">
  <advance width="732"/>
  <anchor x="363" y="-214" name="bottom"/>
  <anchor x="366" y="719" name="top"/>
  <outline>
    <contour>
      <point x="77" y="0" type="line"/>
      <point x="197" y="0" type="line" name="ab01"/>
      <point x="197" y="515" type="line" name="iv01"/>
      <point x="545" y="0" type="line" name="ab02"/>
      <point x="655" y="95.157" type="line"/>
      <point x="655" y="700" type="line" name="at01"/>
      <point x="535" y="700" type="line"/>
      <point x="535" y="185" type="line" name="iv02"/>
      <point x="187" y="700" type="line" name="at02"/>
      <point x="77" y="700" type="line"/>
    </contour>
    <contour>
      <point x="349" y="-131" type="curve"/>
      <point x="349" y="-231" type="line"/>
      <point x="574" y="-231"/>
      <point x="655" y="-153"/>
      <point x="655" y="61" type="curve" smooth="yes"/>
      <point x="655" y="613" type="line"/>
      <point x="535" y="613" type="line"/>
      <point x="535" y="37" type="line" smooth="yes"/>
      <point x="535" y="-92"/>
      <point x="484" y="-131"/>
    </contour>
  </outline>
</glyph>
<glyph name="Eng.ss09" format="2">
  <advance width="732"/>
  <anchor x="375" y="-207" name="bottom"/>
  <anchor x="366" y="719" name="top"/>
  <outline>
    <contour>
      <point x="77" y="0" type="line"/>
      <point x="197" y="0" type="line" name="ab01"/>
      <point x="197" y="515" type="line" name="iv01"/>
      <point x="545" y="0" type="line" name="ab02"/>
      <point x="655" y="89.792" type="line"/>
      <point x="655" y="700" type="line" name="at01"/>
      <point x="535" y="700" type="line"/>
      <point x="535" y="185" type="line" name="iv02"/>
      <point x="187" y="700" type="line" name="at02"/>
      <point x="77" y="700" type="line"/>
    </contour>
    <contour>
      <point x="431.541" y="-230" type="curve" smooth="yes"/>
      <point x="571.919" y="-230"/>
      <point x="655" y="-135"/>
      <point x="655" y="42" type="curve" smooth="yes"/>
      <point x="655" y="490" type="line"/>
      <point x="535" y="490" type="line"/>
      <point x="535" y="43.279" type="line" smooth="yes"/>
      <point x="535" y="-76.914"/>
      <point x="491.305" y="-130"/>
      <point x="427.583" y="-130" type="curve" smooth="yes"/>
      <point x="363.861" y="-130"/>
      <point x="332" y="-91"/>
      <point x="325" y="-15" type="curve"/>
      <point x="205" y="-15" type="line"/>
      <point x="231" y="-165"/>
      <point x="291.162" y="-230"/>
    </contour>
  </outline>
</glyph>
<glyph name="Eukrcyr.ss09" format="2">
  <advance width="773"/>
  <anchor x="386" y="719" name="top"/>
  <outline>
    <contour>
      <point x="399" y="-20" type="curve" smooth="yes"/>
      <point x="566" y="-20"/>
      <point x="683" y="84"/>
      <point x="720" y="261" type="curve"/>
      <point x="600" y="261" type="line"/>
      <point x="590" y="152"/>
      <point x="507" y="80"/>
      <point x="397" y="80" type="curve" smooth="yes"/>
      <point x="260" y="80"/>
      <point x="173" y="192"/>
      <point x="173" y="354" type="curve" smooth="yes"/>
      <point x="173" y="511"/>
      <point x="254" y="620"/>
      <point x="392" y="620" type="curve" smooth="yes"/>
      <point x="484" y="620"/>
      <point x="561" y="571"/>
      <point x="590" y="485" type="curve"/>
      <point x="710" y="485" type="line"/>
      <point x="663" y="637"/>
      <point x="557" y="720"/>
      <point x="401" y="720" type="curve" smooth="yes"/>
      <point x="190" y="720"/>
      <point x="53" y="568"/>
      <point x="53" y="355" type="curve" smooth="yes"/>
      <point x="53" y="142"/>
      <point x="190" y="-20"/>
    </contour>
    <contour>
      <point x="487" y="310" type="line"/>
      <point x="487" y="410" type="line"/>
      <point x="164" y="410" type="line"/>
      <point x="164" y="310" type="line"/>
    </contour>
  </outline>
</glyph>
<glyph name="Eukrcyr.ss12" format="2">
  <advance width="669"/>
  <anchor x="365" y="719" name="top"/>
  <outline>
    <contour>
      <point x="369.188" y="-21.067" type="curve" smooth="yes"/>
      <point x="484.171" y="-21.067"/>
      <point x="580.473" y="33.731"/>
      <point x="616" y="87.206" type="curve"/>
      <point x="607.893" y="170.742" type="line"/>
      <point x="532.166" y="110.376"/>
      <point x="459.646" y="78.933"/>
      <point x="378.188" y="78.933" type="curve" smooth="yes"/>
      <point x="229.188" y="78.933"/>
      <point x="173.188" y="182.328"/>
      <point x="173.188" y="345.953" type="curve" smooth="yes"/>
      <point x="173.188" y="513.594"/>
      <point x="223.872" y="619.699"/>
      <point x="372.872" y="619.699" type="curve" smooth="yes"/>
      <point x="454.33" y="619.699"/>
      <point x="532.166" y="587.855"/>
      <point x="607.893" y="528.19" type="curve"/>
      <point x="616" y="611.727" type="line"/>
      <point x="580.473" y="665.201"/>
      <point x="484.171" y="720"/>
      <point x="369.188" y="720" type="curve" smooth="yes"/>
      <point x="169.188" y="720"/>
      <point x="53.188" y="572"/>
      <point x="53.188" y="349" type="curve" smooth="yes"/>
      <point x="53.188" y="126"/>
      <point x="169.188" y="-21.067"/>
    </contour>
    <contour>
      <point x="491.188" y="310" type="line"/>
      <point x="491.188" y="410" type="line"/>
      <point x="146.188" y="410" type="line"/>
      <point x="146.188" y="310" type="line"/>
    </contour>
  </outline>
</glyph>
<glyph name="Euro.ss09" format="2">
  <advance width="730"/>
  <outline>
    <contour>
      <point x="391" y="-20" type="curve" smooth="yes"/>
      <point x="559" y="-20"/>
      <point x="650" y="106"/>
      <point x="677" y="261" type="curve"/>
      <point x="557" y="261" type="line"/>
      <point x="535" y="144"/>
      <point x="467" y="81"/>
      <point x="386" y="81" type="curve" smooth="yes"/>
      <point x="299" y="81"/>
      <point x="234" y="141"/>
      <point x="220" y="275" type="curve"/>
      <point x="445" y="275" type="line"/>
      <point x="468" y="325" type="line"/>
      <point x="24" y="325" type="line"/>
      <point x="1" y="275" type="line"/>
      <point x="98" y="275" type="line"/>
      <point x="111" y="90"/>
      <point x="223" y="-20"/>
    </contour>
    <contour>
      <point x="1" y="382" type="line"/>
      <point x="458" y="382" type="line"/>
      <point x="481" y="432" type="line"/>
      <point x="206" y="432" type="line"/>
      <point x="219.431" y="406.923" type="line"/>
      <point x="226.538" y="558.033"/>
      <point x="300.455" y="619"/>
      <point x="391" y="619" type="curve" smooth="yes"/>
      <point x="472" y="619"/>
      <point x="526" y="572"/>
      <point x="557" y="485" type="curve"/>
      <point x="677" y="485" type="line"/>
      <point x="641" y="620"/>
      <point x="549" y="720"/>
      <point x="394" y="720" type="curve" smooth="yes"/>
      <point x="223.631" y="720"/>
      <point x="104.437" y="600.593"/>
      <point x="98.063" y="411.315" type="curve"/>
      <point x="114" y="432" type="line"/>
      <point x="24" y="432" type="line"/>
    </contour>
  </outline>
</glyph>
<glyph name="G.ss13" format="2">
  <advance width="763"/>
  <anchor x="382" y="-19" name="bottom"/>
  <anchor x="382" y="719" name="top"/>
  <outline>
    <contour>
      <point x="386" y="-20" type="curve" smooth="yes"/>
      <point x="586" y="-20"/>
      <point x="720" y="118.64"/>
      <point x="720" y="325.104" type="curve" smooth="yes"/>
      <point x="720" y="365" type="line"/>
      <point x="380" y="365" type="line"/>
      <point x="380" y="275" type="line"/>
      <point x="600" y="275" type="line"/>
      <point x="600" y="179.51"/>
      <point x="513" y="80"/>
      <point x="380" y="80" type="curve" smooth="yes"/>
      <point x="250" y="80"/>
      <point x="163" y="175.353"/>
      <point x="163" y="346.989" type="curve" smooth="yes"/>
      <point x="163" y="518.625"/>
      <point x="250" y="620"/>
      <point x="384" y="620" type="curve" smooth="yes"/>
      <point x="478" y="620"/>
      <point x="551" y="570.634"/>
      <point x="580" y="485" type="curve"/>
      <point x="700" y="485" type="line"/>
      <point x="652" y="640"/>
      <point x="542" y="720"/>
      <point x="388" y="720" type="curve" smooth="yes"/>
      <point x="183" y="720"/>
      <point x="43" y="578"/>
      <point x="43" y="353" type="curve" smooth="yes"/>
      <point x="43" y="134"/>
      <point x="176" y="-20"/>
    </contour>
  </outline>
</glyph>
<glyph name="G.ss15" format="2">
  <advance width="747"/>
  <anchor x="383" y="-19" name="bottom"/>
  <anchor x="383" y="719" name="top"/>
  <outline>
    <contour>
      <point x="376" y="-19" type="curve" smooth="yes"/>
      <point x="567" y="-19"/>
      <point x="704" y="116"/>
      <point x="704" y="321" type="curve" smooth="yes"/>
      <point x="704" y="374" type="line"/>
      <point x="377" y="374" type="line"/>
      <point x="377" y="274" type="line"/>
      <point x="607" y="274" type="line"/>
      <point x="597" y="309" type="line"/>
      <point x="597" y="174"/>
      <point x="515" y="81"/>
      <point x="379" y="81" type="curve" smooth="yes"/>
      <point x="243" y="81"/>
      <point x="163" y="174"/>
      <point x="163" y="343" type="curve" smooth="yes"/>
      <point x="163" y="517"/>
      <point x="247" y="620"/>
      <point x="393" y="620" type="curve" smooth="yes"/>
      <point x="478" y="620"/>
      <point x="563" y="589"/>
      <point x="645" y="510" type="curve"/>
      <point x="654" y="595" type="line"/>
      <point x="574" y="680"/>
      <point x="484" y="720"/>
      <point x="377" y="720" type="curve" smooth="yes"/>
      <point x="166" y="720"/>
      <point x="43" y="563"/>
      <point x="43" y="350" type="curve" smooth="yes"/>
      <point x="43" y="132"/>
      <point x="173" y="-19"/>
    </contour>
  </outline>
</glyph>
<glyph name="IJ.liga.ss07" format="2">
  <advance width="640"/>
  <outline>
    <contour>
      <point x="103" y="-44" type="curve"/>
      <point x="103" y="-144" type="line"/>
      <point x="485" y="-144"/>
      <point x="566" y="-86"/>
      <point x="566" y="128" type="curve" smooth="yes"/>
      <point x="566" y="700" type="line"/>
      <point x="446" y="700" type="line"/>
      <point x="446" y="124" type="line" smooth="yes"/>
      <point x="446" y="-5"/>
      <point x="395" y="-44"/>
    </contour>
    <contour>
      <point x="103" y="50" type="line" name="ab01"/>
      <point x="223" y="50" type="line"/>
      <point x="223" y="700" type="line" name="at01"/>
      <point x="103" y="700" type="line"/>
    </contour>
  </outline>
</glyph>
<glyph name="IJ.liga.ss09" format="2">
  <advance width="622"/>
  <outline>
    <contour>
      <point x="326.447" y="-20" type="curve" smooth="yes"/>
      <point x="465.628" y="-20"/>
      <point x="548" y="75"/>
      <point x="548" y="252" type="curve" smooth="yes"/>
      <point x="548" y="700" type="line"/>
      <point x="428" y="700" type="line"/>
      <point x="428" y="253.279" type="line" smooth="yes"/>
      <point x="428" y="133.086"/>
      <point x="385.217" y="80"/>
      <point x="322.826" y="80" type="curve" smooth="yes"/>
      <point x="260.435" y="80"/>
      <point x="229.239" y="119"/>
      <point x="223" y="195" type="curve"/>
      <point x="103" y="195" type="line"/>
      <point x="115.736" y="47.213"/>
      <point x="187.266" y="-20"/>
    </contour>
    <contour>
      <point x="103" y="250" type="line"/>
      <point x="223" y="250" type="line"/>
      <point x="223" y="700" type="line"/>
      <point x="103" y="700" type="line"/>
    </contour>
  </outline>
</glyph>
<glyph name="J.ss07" format="2">
  <advance width="380"/>
  <anchor x="160" y="-79" name="bottom"/>
  <anchor x="260" y="719" name="top"/>
  <outline>
    <contour>
      <point x="10" y="-44" type="curve"/>
      <point x="10" y="-144" type="line"/>
      <point x="235" y="-144"/>
      <point x="316" y="-66"/>
      <point x="316" y="148" type="curve" smooth="yes"/>
      <point x="316" y="700" type="line"/>
      <point x="196" y="700" type="line"/>
      <point x="196" y="124" type="line" smooth="yes"/>
      <point x="196" y="-5"/>
      <point x="145" y="-44"/>
    </contour>
  </outline>
</glyph>
<glyph name="J.ss09" format="2">
  <advance width="584"/>
  <anchor x="274" y="-20" name="bottom"/>
  <anchor x="453" y="719" name="top"/>
  <outline>
    <contour>
      <point x="276" y="-20" type="curve" smooth="yes"/>
      <point x="423" y="-20"/>
      <point x="510" y="75"/>
      <point x="510" y="252" type="curve" smooth="yes"/>
      <point x="510" y="700" type="line"/>
      <point x="390" y="700" type="line"/>
      <point x="390" y="253.279" type="line" smooth="yes"/>
      <point x="390" y="133.086"/>
      <point x="342" y="80"/>
      <point x="272" y="80" type="curve" smooth="yes"/>
      <point x="202" y="80"/>
      <point x="167" y="119"/>
      <point x="160" y="195" type="curve"/>
      <point x="40" y="195" type="line"/>
      <point x="66" y="45"/>
      <point x="129" y="-20"/>
    </contour>
  </outline>
</glyph>
<glyph name="J.ss10" format="2">
  <advance width="558"/>
  <anchor x="257" y="-20" name="bottom"/>
  <anchor x="436" y="719" name="top"/>
  <outline>
    <contour>
      <point x="260" y="-20" type="curve" smooth="yes"/>
      <point x="413" y="-20"/>
      <point x="494" y="81"/>
      <point x="494" y="242" type="curve" smooth="yes"/>
      <point x="494" y="700" type="line"/>
      <point x="374" y="700" type="line"/>
      <point x="374" y="253.279" type="line" smooth="yes"/>
      <point x="374" y="135.089"/>
      <point x="332" y="80"/>
      <point x="248" y="80" type="curve" smooth="yes"/>
      <point x="177" y="80"/>
      <point x="119" y="119.253"/>
      <point x="61" y="235" type="curve"/>
      <point x="22" y="107" type="line"/>
      <point x="79" y="28"/>
      <point x="154" y="-20"/>
    </contour>
  </outline>
</glyph>
<glyph name="J.ss12" format="2">
  <advance width="480"/>
  <anchor x="196" y="-20" name="bottom"/>
  <anchor x="359" y="719" name="top"/>
  <outline>
    <contour>
      <point x="185" y="-20" type="curve" smooth="yes"/>
      <point x="337" y="-20"/>
      <point x="416" y="57"/>
      <point x="416" y="232" type="curve" smooth="yes"/>
      <point x="416" y="700" type="line"/>
      <point x="296" y="700" type="line"/>
      <point x="296" y="232" type="line" smooth="yes"/>
      <point x="296" y="116"/>
      <point x="252" y="80"/>
      <point x="164" y="80" type="curve" smooth="yes"/>
      <point x="131" y="80"/>
      <point x="87" y="85"/>
      <point x="21" y="110" type="curve"/>
      <point x="11" y="26" type="line"/>
      <point x="57" y="0"/>
      <point x="108" y="-20"/>
    </contour>
  </outline>
</glyph>
<glyph name="R.ss08" format="2">
  <advance width="635"/>
  <anchor x="323" y="-20" name="bottom"/>
  <anchor x="323" y="719" name="top"/>
  <outline>
    <contour>
      <point x="78" y="0" type="line"/>
      <point x="198" y="0" type="line"/>
      <point x="198" y="244" type="line"/>
      <point x="324" y="244" type="line" smooth="yes"/>
      <point x="475" y="244"/>
      <point x="566" y="341"/>
      <point x="566" y="474" type="curve" smooth="yes"/>
      <point x="566" y="611"/>
      <point x="474" y="700"/>
      <point x="330" y="700" type="curve" smooth="yes"/>
      <point x="78" y="700" type="line"/>
    </contour>
    <contour>
      <point x="457" y="0" type="curve"/>
      <point x="580" y="0" type="line"/>
      <point x="550" y="66"/>
      <point x="570" y="171"/>
      <point x="545" y="222" type="curve" smooth="yes"/>
      <point x="520" y="273"/>
      <point x="478" y="287"/>
      <point x="382" y="313" type="curve"/>
      <point x="306" y="244" type="line"/>
      <point x="359" y="242"/>
      <point x="411" y="232"/>
      <point x="432" y="183" type="curve" smooth="yes"/>
      <point x="449" y="143"/>
      <point x="432" y="70"/>
    </contour>
    <contour>
      <point x="294" y="344" type="curve" smooth="yes"/>
      <point x="198" y="344" type="line"/>
      <point x="198" y="600" type="line"/>
      <point x="294" y="600" type="line" smooth="yes"/>
      <point x="394" y="600"/>
      <point x="445" y="555"/>
      <point x="445" y="469" type="curve" smooth="yes"/>
      <point x="445" y="383"/>
      <point x="394" y="344"/>
    </contour>
  </outline>
</glyph>
<glyph name="S.ss10" format="2">
  <advance width="580"/>
  <anchor x="290" y="-20" name="bottom"/>
  <anchor x="275" y="719" name="top"/>
  <outline>
    <contour>
      <point x="313" y="-20" type="curve" smooth="yes"/>
      <point x="445" y="-20"/>
      <point x="531" y="56.119"/>
      <point x="531" y="191.33" type="curve" smooth="yes"/>
      <point x="531" y="327.762"/>
      <point x="421.484" y="362.363"/>
      <point x="322.76" y="393.555" type="curve" smooth="yes"/>
      <point x="241.747" y="419.151"/>
      <point x="168" y="442.451"/>
      <point x="168" y="517.84" type="curve" smooth="yes"/>
      <point x="168" y="576.933"/>
      <point x="199" y="620"/>
      <point x="269" y="620" type="curve" smooth="yes"/>
      <point x="352" y="620"/>
      <point x="410" y="579.74"/>
      <point x="482" y="465" type="curve"/>
      <point x="521" y="593" type="line"/>
      <point x="453" y="677"/>
      <point x="363" y="720"/>
      <point x="257" y="720" type="curve" smooth="yes"/>
      <point x="137" y="720"/>
      <point x="48" y="643.881"/>
      <point x="48" y="510.673" type="curve" smooth="yes"/>
      <point x="48" y="372.097"/>
      <point x="157.427" y="337.986"/>
      <point x="256.12" y="307.221" type="curve" smooth="yes"/>
      <point x="337.18" y="281.953"/>
      <point x="411" y="258.942"/>
      <point x="411" y="182.16" type="curve" smooth="yes"/>
      <point x="411" y="116.056"/>
      <point x="359" y="80"/>
      <point x="303" y="80" type="curve" smooth="yes"/>
      <point x="213" y="80"/>
      <point x="151" y="120.26"/>
      <point x="77" y="235" type="curve"/>
      <point x="38" y="107" type="line"/>
      <point x="107" y="23"/>
      <point x="201" y="-20"/>
    </contour>
  </outline>
</glyph>
<glyph name="Scedilla.ss09" format="2">
  <advance width="590"/>
  <anchor x="275" y="-218" name="bottom"/>
  <anchor x="280" y="719" name="top"/>
  <outline>
    <contour>
      <point x="298" y="-21" type="curve" smooth="yes"/>
      <point x="450" y="-21"/>
      <point x="541" y="64.133"/>
      <point x="541" y="177.309" type="curve" smooth="yes"/>
      <point x="541" y="335.675"/>
      <point x="425.378" y="366.752"/>
      <point x="322.881" y="394.301" type="curve" smooth="yes"/>
      <point x="241.281" y="416.233"/>
      <point x="168" y="435.929"/>
      <point x="168" y="515.837" type="curve" smooth="yes"/>
      <point x="168" y="581.941"/>
      <point x="204" y="620"/>
      <point x="283" y="620" type="curve" smooth="yes"/>
      <point x="357" y="620"/>
      <point x="395" y="586"/>
      <point x="409" y="502" type="curve"/>
      <point x="530" y="502" type="line"/>
      <point x="506" y="633"/>
      <point x="426" y="720"/>
      <point x="279" y="720" type="curve" smooth="yes"/>
      <point x="134" y="720"/>
      <point x="48" y="634.867"/>
      <point x="48" y="521.691" type="curve" smooth="yes"/>
      <point x="48" y="363.325"/>
      <point x="163.312" y="332.248"/>
      <point x="265.534" y="304.699" type="curve" smooth="yes"/>
      <point x="346.915" y="282.767"/>
      <point x="421" y="263.071"/>
      <point x="421" y="183.163" type="curve" smooth="yes"/>
      <point x="421" y="117.059"/>
      <point x="380" y="79"/>
      <point x="294" y="79" type="curve" smooth="yes"/>
      <point x="214" y="79"/>
      <point x="173" y="113"/>
      <point x="158" y="197" type="curve"/>
      <point x="38" y="197" type="line"/>
      <point x="62" y="66"/>
      <point x="145" y="-21"/>
    </contour>
    <contour>
      <point x="264" y="-218" type="curve" smooth="yes"/>
      <point x="347" y="-218"/>
      <point x="394" y="-189"/>
      <point x="394" y="-136" type="curve" smooth="yes"/>
      <point x="394" y="-89"/>
      <point x="358" y="-64"/>
      <point x="298" y="-64" type="curve"/>
      <point x="340.784" y="13.546" type="line"/>
      <point x="267.784" y="13.546" type="line"/>
      <point x="215" y="-90" type="line"/>
      <point x="230" y="-88"/>
      <point x="241" y="-86"/>
      <point x="254" y="-86" type="curve" smooth="yes"/>
      <point x="289" y="-86"/>
      <point x="310" y="-101"/>
      <point x="310" y="-130" type="curve" smooth="yes"/>
      <point x="310" y="-158"/>
      <point x="290" y="-177"/>
      <point x="254" y="-177" type="curve" smooth="yes"/>
      <point x="236" y="-177"/>
      <point x="208" y="-172"/>
      <point x="187" y="-166" type="curve"/>
      <point x="168" y="-205" type="line"/>
      <point x="194" y="-211"/>
      <point x="223" y="-218"/>
    </contour>
  </outline>
</glyph>
<glyph name="Scedilla.ss10" format="2">
  <advance width="580"/>
  <anchor x="270" y="-218" name="bottom"/>
  <anchor x="275" y="719" name="top"/>
  <outline>
    <contour>
      <point x="313" y="-20" type="curve" smooth="yes"/>
      <point x="445" y="-20"/>
      <point x="531" y="56.119"/>
      <point x="531" y="191.33" type="curve" smooth="yes"/>
      <point x="531" y="327.762"/>
      <point x="421.484" y="362.363"/>
      <point x="322.76" y="393.555" type="curve" smooth="yes"/>
      <point x="241.747" y="419.151"/>
      <point x="168" y="442.451"/>
      <point x="168" y="517.84" type="curve" smooth="yes"/>
      <point x="168" y="576.933"/>
      <point x="199" y="620"/>
      <point x="269" y="620" type="curve" smooth="yes"/>
      <point x="352" y="620"/>
      <point x="410" y="579.74"/>
      <point x="482" y="465" type="curve"/>
      <point x="521" y="593" type="line"/>
      <point x="453" y="677"/>
      <point x="363" y="720"/>
      <point x="257" y="720" type="curve" smooth="yes"/>
      <point x="137" y="720"/>
      <point x="48" y="643.881"/>
      <point x="48" y="510.673" type="curve" smooth="yes"/>
      <point x="48" y="372.097"/>
      <point x="157.427" y="337.986"/>
      <point x="256.12" y="307.221" type="curve" smooth="yes"/>
      <point x="337.18" y="281.953"/>
      <point x="411" y="258.942"/>
      <point x="411" y="182.16" type="curve" smooth="yes"/>
      <point x="411" y="116.056"/>
      <point x="359" y="80"/>
      <point x="303" y="80" type="curve" smooth="yes"/>
      <point x="213" y="80"/>
      <point x="151" y="120.26"/>
      <point x="77" y="235" type="curve"/>
      <point x="38" y="107" type="line"/>
      <point x="107" y="23"/>
      <point x="201" y="-20"/>
    </contour>
    <contour>
      <point x="259" y="-218" type="curve" smooth="yes"/>
      <point x="342" y="-218"/>
      <point x="389" y="-189"/>
      <point x="389" y="-136" type="curve" smooth="yes"/>
      <point x="389" y="-89"/>
      <point x="353" y="-64"/>
      <point x="293" y="-64" type="curve"/>
      <point x="335.784" y="13.546" type="line"/>
      <point x="262.784" y="13.546" type="line"/>
      <point x="210" y="-90" type="line"/>
      <point x="225" y="-88"/>
      <point x="236" y="-86"/>
      <point x="249" y="-86" type="curve" smooth="yes"/>
      <point x="284" y="-86"/>
      <point x="305" y="-101"/>
      <point x="305" y="-130" type="curve" smooth="yes"/>
      <point x="305" y="-158"/>
      <point x="285" y="-177"/>
      <point x="249" y="-177" type="curve" smooth="yes"/>
      <point x="231" y="-177"/>
      <point x="203" y="-172"/>
      <point x="182" y="-166" type="curve"/>
      <point x="163" y="-205" type="line"/>
      <point x="189" y="-211"/>
      <point x="218" y="-218"/>
    </contour>
  </outline>
</glyph>
<glyph name="Yacyr.ss08" format="2">
  <advance width="645"/>
  <anchor x="322" y="-20" name="bottom"/>
  <anchor x="322" y="719" name="top"/>
  <outline>
    <contour>
      <point x="446" y="0" type="line"/>
      <point x="566" y="0" type="line"/>
      <point x="566" y="700" type="line"/>
      <point x="303.93" y="700" type="line" smooth="yes"/>
      <point x="154.176" y="700"/>
      <point x="58.5" y="611"/>
      <point x="58.5" y="474" type="curve" smooth="yes"/>
      <point x="58.5" y="341"/>
      <point x="154.322" y="244"/>
      <point x="313.323" y="244" type="curve" smooth="yes"/>
      <point x="446" y="244" type="line"/>
    </contour>
    <contour>
      <point x="74" y="0" type="curve"/>
      <point x="197" y="0" type="line"/>
      <point x="212" y="60"/>
      <point x="195" y="143"/>
      <point x="212" y="183" type="curve" smooth="yes"/>
      <point x="233" y="232"/>
      <point x="285" y="242"/>
      <point x="338" y="244" type="curve"/>
      <point x="262" y="305" type="line"/>
      <point x="166" y="279"/>
      <point x="124" y="273"/>
      <point x="99" y="222" type="curve" smooth="yes"/>
      <point x="74" y="171"/>
      <point x="94" y="56"/>
    </contour>
    <contour>
      <point x="342.032" y="344" type="line"/>
      <point x="233.733" y="344"/>
      <point x="178.5" y="383"/>
      <point x="178.5" y="469" type="curve" smooth="yes"/>
      <point x="178.5" y="555"/>
      <point x="233.733" y="600"/>
      <point x="342.032" y="600" type="curve" smooth="yes"/>
      <point x="446" y="600" type="line"/>
      <point x="446" y="344" type="line"/>
    </contour>
  </outline>
</glyph>
<glyph name=".notdef" format="2">
  <advance width="626.19"/>
  <outline>
    <contour>
      <point x="78" y="-120" type="line" name="ab01"/>
      <point x="548.189" y="-119.669" type="line"/>
      <point x="548.189" y="700.331" type="line" name="ab01"/>
      <point x="78" y="700" type="line"/>
    </contour>
    <contour>
      <point x="198" y="-20" type="line"/>
      <point x="198" y="600.331" type="line"/>
      <point x="428.189" y="600.331" type="line"/>
      <point x="428.189" y="-20" type="line"/>
    </contour>
  </outline>
</glyph>
<glyph name="a.ss02" format="2">
  <advance width="551"/>
  <anchor x="251" y="-20" name="bottom"/>
  <anchor x="548" y="-2" name="ogonek"/>
  <anchor x="258" y="520" name="top"/>
  <outline>
    <contour>
      <point x="204.944" y="-20" type="curve" smooth="yes"/>
      <point x="276.972" y="-20"/>
      <point x="330.45" y="10.82"/>
      <point x="357" y="65.26" type="curve"/>
      <point x="357" y="65" type="line"/>
      <point x="477" y="65" type="line"/>
      <point x="477" y="352" type="line" smooth="yes"/>
      <point x="477" y="444"/>
      <point x="413.527" y="520"/>
      <point x="268.154" y="520" type="curve" smooth="yes"/>
      <point x="166.803" y="520"/>
      <point x="88.998" y="483"/>
      <point x="46" y="430" type="curve"/>
      <point x="114" y="362" type="line"/>
      <point x="147.373" y="406.65"/>
      <point x="207.863" y="430"/>
      <point x="264.18" y="430" type="curve" smooth="yes"/>
      <point x="326.755" y="430"/>
      <point x="357" y="400.93"/>
      <point x="357" y="346.8" type="curve" smooth="yes"/>
      <point x="357" y="235.8" type="line"/>
      <point x="330.22" y="284.45"/>
      <point x="277.547" y="312"/>
      <point x="208.049" y="312" type="curve" smooth="yes"/>
      <point x="97.473" y="312"/>
      <point x="21" y="243"/>
      <point x="21" y="146" type="curve" smooth="yes"/>
      <point x="21" y="49"/>
      <point x="97.471" y="-20"/>
    </contour>
    <contour>
      <point x="238.733" y="70" type="curve" smooth="yes"/>
      <point x="183.036" y="70"/>
      <point x="141" y="99.763"/>
      <point x="141" y="152.105" type="curve" smooth="yes"/>
      <point x="141" y="202.395"/>
      <point x="181.026" y="226"/>
      <point x="238.959" y="226" type="curve" smooth="yes"/>
      <point x="295.987" y="226"/>
      <point x="338.52" y="203.411"/>
      <point x="357" y="167.469" type="curve"/>
      <point x="347.48" y="110.211"/>
      <point x="302.439" y="70"/>
    </contour>
    <contour>
      <point x="470.01" y="-20" type="curve" smooth="yes" name="dv01"/>
      <point x="492.763" y="-20"/>
      <point x="514" y="-16"/>
      <point x="560" y="2" type="curve"/>
      <point x="537" y="88" type="line"/>
      <point x="525.806" y="79.414"/>
      <point x="505.5" y="71"/>
      <point x="491.778" y="71" type="curve" smooth="yes" name="dv02"/>
      <point x="479.478" y="71"/>
      <point x="477" y="88.127"/>
      <point x="477" y="159.657" type="curve" smooth="yes"/>
      <point x="477" y="340.903" type="line" name="ab01"/>
      <point x="357" y="340.903" type="line"/>
      <point x="357" y="132" type="line" smooth="yes"/>
      <point x="357" y="30"/>
      <point x="388.855" y="-20"/>
    </contour>
  </outline>
</glyph>
<glyph name="a.ss10" format="2">
  <advance width="558"/>
  <anchor x="274" y="-20" name="bottom"/>
  <anchor x="477" y="-2" name="ogonek"/>
  <anchor x="274" y="520" name="top"/>
  <outline>
    <contour>
      <point x="202" y="-20" type="curve" smooth="yes"/>
      <point x="308" y="-20"/>
      <point x="366" y="60"/>
      <point x="381" y="128" type="curve"/>
      <point x="363" y="186" type="line"/>
      <point x="363" y="129"/>
      <point x="305" y="70"/>
      <point x="233" y="70" type="curve" smooth="yes"/>
      <point x="186" y="70"/>
      <point x="155" y="96"/>
      <point x="155" y="137" type="curve" smooth="yes"/>
      <point x="155" y="175"/>
      <point x="183" y="202"/>
      <point x="242" y="202" type="curve" smooth="yes"/>
      <point x="293" y="202"/>
      <point x="344" y="222"/>
      <point x="363" y="253" type="curve"/>
      <point x="363" y="84" type="line"/>
      <point x="483" y="-10" type="line"/>
      <point x="483" y="352" type="line" smooth="yes"/>
      <point x="483" y="456"/>
      <point x="403.612" y="520"/>
      <point x="268.55" y="520" type="curve" smooth="yes"/>
      <point x="152.047" y="520"/>
      <point x="84" y="472"/>
      <point x="50" y="426" type="curve"/>
      <point x="81" y="318" type="line"/>
      <point x="147" y="410"/>
      <point x="194.66" y="430"/>
      <point x="257.148" y="430" type="curve" smooth="yes"/>
      <point x="327.049" y="430"/>
      <point x="362" y="405"/>
      <point x="362" y="361" type="curve" smooth="yes"/>
      <point x="362" y="313"/>
      <point x="324" y="281"/>
      <point x="229" y="281" type="curve" smooth="yes"/>
      <point x="111" y="281"/>
      <point x="35" y="232"/>
      <point x="35" y="135" type="curve" smooth="yes"/>
      <point x="35" y="38"/>
      <point x="111" y="-20"/>
    </contour>
  </outline>
</glyph>
<glyph name="acutecomb.loclPLK" format="2">
  <advance width="0"/>
  <anchor x="127" y="500" name="_top"/>
  <anchor x="143" y="700" name="top"/>
  <outline>
    <contour>
      <point x="83" y="550" type="line"/>
      <point x="167" y="550" type="line"/>
      <point x="228" y="701" type="line"/>
      <point x="114" y="701" type="line"/>
    </contour>
  </outline>
</glyph>
